STARTFONT 2.1
COMMENT
COMMENT Converted from OpenType font "UbuntuMono-Regular.ttf" by "otf2bdf 3.0".
COMMENT
FONT -FreeType-Ubuntu Mono-Medium-R-Normal--33-240-100-100-P-140-ISO10646-1
SIZE 24 100 100
FONTBOUNDINGBOX 32 35 -10 -6
STARTPROPERTIES 19
FOUNDRY "FreeType"
FAMILY_NAME "Ubuntu Mono"
WEIGHT_NAME "Medium"
SLANT "R"
SETWIDTH_NAME "Normal"
ADD_STYLE_NAME ""
PIXEL_SIZE 33
POINT_SIZE 240
RESOLUTION_X 100
RESOLUTION_Y 100
SPACING "P"
AVERAGE_WIDTH 140
CHARSET_REGISTRY "ISO10646"
CHARSET_ENCODING "1"
FONT_ASCENT 27
FONT_DESCENT 5
COPYRIGHT "Copyright 2011 Canonical Ltd.  Licensed under the Ubuntu Font Licence 1.0"
_OTF_FONTFILE "UbuntuMono-Regular.ttf"
_OTF_PSNAME "UbuntuMono-Regular"
ENDPROPERTIES
CHARS 1224
STARTCHAR 0000
ENCODING 0
SWIDTH 510 0
DWIDTH 17 0
BBX 0 0 0 0
BITMAP
ENDCHAR
STARTCHAR 0008
ENCODING 8
SWIDTH 510 0
DWIDTH 17 0
BBX 0 0 0 0
BITMAP
ENDCHAR
STARTCHAR 0009
ENCODING 9
SWIDTH 510 0
DWIDTH 17 0
BBX 0 0 0 0
BITMAP
ENDCHAR
STARTCHAR 000D
ENCODING 13
SWIDTH 510 0
DWIDTH 17 0
BBX 0 0 0 0
BITMAP
ENDCHAR
STARTCHAR 001D
ENCODING 29
SWIDTH 510 0
DWIDTH 17 0
BBX 0 0 0 0
BITMAP
ENDCHAR
STARTCHAR 0020
ENCODING 32
SWIDTH 510 0
DWIDTH 17 0
BBX 0 0 0 0
BITMAP
ENDCHAR
STARTCHAR 0021
ENCODING 33
SWIDTH 510 0
DWIDTH 17 0
BBX 4 20 6 0
BITMAP
70
70
70
70
70
70
70
70
70
70
60
60
60
00
00
00
70
F0
F0
70
ENDCHAR
STARTCHAR 0022
ENCODING 34
SWIDTH 510 0
DWIDTH 17 0
BBX 8 8 4 14
BITMAP
E3
E3
E3
E3
E3
E3
43
43
ENDCHAR
STARTCHAR 0023
ENCODING 35
SWIDTH 510 0
DWIDTH 17 0
BBX 15 20 1 0
BITMAP
0618
0618
0E38
0E38
0C38
FFFE
FFFE
FFFE
1C70
1C70
1870
1860
1860
FFFE
FFFE
FFFE
30C0
30C0
71C0
71C0
ENDCHAR
STARTCHAR 0024
ENCODING 36
SWIDTH 510 0
DWIDTH 17 0
BBX 13 26 2 -3
BITMAP
0700
0700
0700
1FC0
3FF0
7FE0
F020
E000
E000
F000
7C00
7F80
1FE0
07F0
00F0
0078
0038
0038
C070
FFF0
FFE0
3F80
0700
0700
0700
0700
ENDCHAR
STARTCHAR 0025
ENCODING 37
SWIDTH 510 0
DWIDTH 17 0
BBX 15 20 1 0
BITMAP
780C
FC1C
CC18
C630
C630
C660
C6E0
CCC0
FD80
7B80
0338
067C
06CE
0CC6
1CC6
18C6
30C6
70CE
607C
C038
ENDCHAR
STARTCHAR 0026
ENCODING 38
SWIDTH 510 0
DWIDTH 17 0
BBX 14 20 1 0
BITMAP
0F80
1FC0
3FE0
38E0
70E0
30E0
30C0
3B80
1F00
1E18
3F18
7398
E1F8
E0F0
E070
E070
F1F8
7FDC
7F9C
1F0C
ENDCHAR
STARTCHAR 0027
ENCODING 39
SWIDTH 510 0
DWIDTH 17 0
BBX 3 9 7 13
BITMAP
E0
E0
E0
E0
E0
C0
C0
C0
C0
ENDCHAR
STARTCHAR 0028
ENCODING 40
SWIDTH 510 0
DWIDTH 17 0
BBX 9 29 4 -6
BITMAP
0100
0780
0F00
0E00
1C00
3800
3800
7000
7000
E000
E000
E000
C000
C000
C000
C000
C000
E000
E000
E000
7000
7000
3800
3800
1C00
0E00
0F00
0700
0100
ENDCHAR
STARTCHAR 0029
ENCODING 41
SWIDTH 510 0
DWIDTH 17 0
BBX 9 29 4 -6
BITMAP
4000
E000
F000
7800
3C00
1C00
0E00
0E00
0700
0700
0300
0300
0380
0380
0380
0380
0380
0300
0300
0700
0700
0E00
0E00
1C00
3C00
7800
F000
E000
4000
ENDCHAR
STARTCHAR 002A
ENCODING 42
SWIDTH 510 0
DWIDTH 17 0
BBX 12 12 2 8
BITMAP
0700
0700
0700
4610
F6F0
FFF0
3FE0
0F00
1D80
39C0
78E0
10C0
ENDCHAR
STARTCHAR 002B
ENCODING 43
SWIDTH 510 0
DWIDTH 17 0
BBX 13 14 2 2
BITMAP
0600
0600
0600
0600
0600
0600
FFF8
FFF8
0600
0600
0600
0600
0600
0600
ENDCHAR
STARTCHAR 002C
ENCODING 44
SWIDTH 510 0
DWIDTH 17 0
BBX 7 8 5 -4
BITMAP
1C
3C
3E
3C
1C
38
F0
E0
ENDCHAR
STARTCHAR 002D
ENCODING 45
SWIDTH 510 0
DWIDTH 17 0
BBX 7 3 5 7
BITMAP
FE
FE
FE
ENDCHAR
STARTCHAR 002E
ENCODING 46
SWIDTH 510 0
DWIDTH 17 0
BBX 5 4 6 0
BITMAP
70
F8
F8
70
ENDCHAR
STARTCHAR 002F
ENCODING 47
SWIDTH 510 0
DWIDTH 17 0
BBX 12 28 2 -5
BITMAP
0070
0070
0060
00E0
00E0
00C0
01C0
01C0
0180
0380
0380
0300
0700
0700
0700
0E00
0E00
0E00
1C00
1C00
1C00
3800
3800
3800
7000
7000
7000
E000
ENDCHAR
STARTCHAR 0030
ENCODING 48
SWIDTH 510 0
DWIDTH 17 0
BBX 13 20 2 0
BITMAP
0F80
3FC0
7FE0
70F0
F070
E030
E038
C638
CF38
CF38
C738
C038
C038
E038
E030
E070
70F0
7FE0
3FC0
0F80
ENDCHAR
STARTCHAR 0031
ENCODING 49
SWIDTH 510 0
DWIDTH 17 0
BBX 11 20 3 0
BITMAP
0700
0F00
1F00
7F00
F700
C700
0700
0700
0700
0700
0700
0700
0700
0700
0700
0700
0700
FFE0
FFE0
FFE0
ENDCHAR
STARTCHAR 0032
ENCODING 50
SWIDTH 510 0
DWIDTH 17 0
BBX 13 20 2 0
BITMAP
1F80
7FC0
FFE0
E0F0
4070
0070
0070
0060
00E0
01C0
0380
0700
0E00
1C00
3800
3000
6000
7FF8
FFF8
FFF8
ENDCHAR
STARTCHAR 0033
ENCODING 51
SWIDTH 510 0
DWIDTH 17 0
BBX 13 20 2 0
BITMAP
1F80
7FC0
7FE0
60E0
0070
0070
0060
01E0
0FC0
0FC0
0FE0
00F0
0070
0038
0038
0070
C0F0
FFF0
FFE0
3F80
ENDCHAR
STARTCHAR 0034
ENCODING 52
SWIDTH 510 0
DWIDTH 17 0
BBX 14 20 1 0
BITMAP
0070
00F0
01F0
03F0
0770
0E70
0C70
1C70
3870
3070
7070
6070
FFFC
FFFC
FFFC
0070
0070
0070
0070
0070
ENDCHAR
STARTCHAR 0035
ENCODING 53
SWIDTH 510 0
DWIDTH 17 0
BBX 13 20 2 0
BITMAP
3FF0
3FF0
3FF0
3800
3000
3000
3000
3F00
3FC0
7FE0
01F0
0070
0030
0038
0038
0070
40F0
FFF0
FFE0
3F80
ENDCHAR
STARTCHAR 0036
ENCODING 54
SWIDTH 510 0
DWIDTH 17 0
BBX 13 20 2 0
BITMAP
00E0
07F0
0FF0
3F00
3800
7000
6000
EF80
FFE0
FFF0
E070
E038
E038
E038
E038
E078
70F0
7FF0
3FE0
0F80
ENDCHAR
STARTCHAR 0037
ENCODING 55
SWIDTH 510 0
DWIDTH 17 0
BBX 13 20 2 0
BITMAP
FFF8
FFF8
FFF8
0038
0070
00E0
00C0
01C0
0380
0380
0300
0700
0700
0E00
0E00
0E00
0C00
1C00
1C00
1C00
ENDCHAR
STARTCHAR 0038
ENCODING 56
SWIDTH 510 0
DWIDTH 17 0
BBX 13 20 2 0
BITMAP
0F80
3FE0
7FF0
F0F0
E070
E030
E070
F060
7FE0
3FC0
3FE0
71F0
E078
E038
C038
E038
F070
FFF0
7FE0
1FC0
ENDCHAR
STARTCHAR 0039
ENCODING 57
SWIDTH 510 0
DWIDTH 17 0
BBX 13 20 2 0
BITMAP
1F80
3FC0
7FE0
F0F0
E070
E030
C038
E038
E038
F078
7FF8
7FF0
1FB0
0070
0070
01E0
07C0
7F80
7F00
7800
ENDCHAR
STARTCHAR 003A
ENCODING 58
SWIDTH 510 0
DWIDTH 17 0
BBX 5 15 6 0
BITMAP
70
F8
F8
70
00
00
00
00
00
00
00
70
F8
F8
70
ENDCHAR
STARTCHAR 003B
ENCODING 59
SWIDTH 510 0
DWIDTH 17 0
BBX 7 19 4 -4
BITMAP
1C
3E
3E
1C
00
00
00
00
00
00
00
1C
3E
3E
3E
0C
3C
F8
E0
ENDCHAR
STARTCHAR 003C
ENCODING 60
SWIDTH 510 0
DWIDTH 17 0
BBX 13 13 2 2
BITMAP
0018
0078
03F0
0FC0
3E00
F800
E000
F800
3E00
0FC0
03F0
0078
0018
ENDCHAR
STARTCHAR 003D
ENCODING 61
SWIDTH 510 0
DWIDTH 17 0
BBX 13 8 2 5
BITMAP
FFF8
FFF8
0000
0000
0000
0000
FFF8
FFF8
ENDCHAR
STARTCHAR 003E
ENCODING 62
SWIDTH 510 0
DWIDTH 17 0
BBX 13 13 2 2
BITMAP
C000
F000
7C00
1F80
07E0
00F8
0038
00F8
07E0
1F80
7C00
F000
C000
ENDCHAR
STARTCHAR 003F
ENCODING 63
SWIDTH 510 0
DWIDTH 17 0
BBX 11 20 3 0
BITMAP
3F00
FF80
FFC0
41C0
00E0
00C0
01C0
0180
0300
0600
0C00
1C00
1800
0000
0000
0000
1C00
3E00
3E00
1C00
ENDCHAR
STARTCHAR 0040
ENCODING 64
SWIDTH 510 0
DWIDTH 17 0
BBX 14 24 1 -4
BITMAP
03E0
0FF8
1FF8
3C3C
381C
700C
700C
60FC
63FC
E3FC
E78C
E70C
E70C
E78C
E3FC
63FC
70FC
7000
3800
3C00
1E00
0FF8
07F8
01F0
ENDCHAR
STARTCHAR 0041
ENCODING 65
SWIDTH 510 0
DWIDTH 17 0
BBX 16 20 0 0
BITMAP
03C0
03E0
03E0
0760
0670
0670
0E30
0C38
0C38
1C18
1C1C
181C
381C
3FFC
3FFE
7FFE
700E
7007
7007
E007
ENDCHAR
STARTCHAR 0042
ENCODING 66
SWIDTH 510 0
DWIDTH 17 0
BBX 13 20 2 0
BITMAP
FF80
FFC0
FFE0
C0F0
C070
C070
C070
C0E0
FFC0
FFC0
FFE0
C0F0
C038
C038
C038
C038
C0F0
FFF0
FFE0
FF80
ENDCHAR
STARTCHAR 0043
ENCODING 67
SWIDTH 510 0
DWIDTH 17 0
BBX 13 20 2 0
BITMAP
07E0
1FF8
3FF8
7C10
7000
E000
E000
E000
C000
C000
C000
C000
E000
E000
E000
7000
7C18
3FF8
1FF8
07E0
ENDCHAR
STARTCHAR 0044
ENCODING 68
SWIDTH 510 0
DWIDTH 17 0
BBX 13 20 2 0
BITMAP
FE00
FFC0
FFE0
C1F0
C070
C078
C038
C038
C038
C038
C038
C038
C038
C038
C078
C070
C1F0
FFE0
FFC0
FF00
ENDCHAR
STARTCHAR 0045
ENCODING 69
SWIDTH 510 0
DWIDTH 17 0
BBX 12 20 3 0
BITMAP
FFE0
FFE0
FFE0
E000
E000
E000
E000
E000
FFC0
FFC0
FFC0
E000
E000
E000
E000
E000
E000
FFF0
FFF0
FFF0
ENDCHAR
STARTCHAR 0046
ENCODING 70
SWIDTH 510 0
DWIDTH 17 0
BBX 12 20 3 0
BITMAP
FFF0
FFF0
FFF0
E000
E000
E000
E000
E000
FFE0
FFE0
FFE0
E000
E000
E000
E000
E000
E000
E000
E000
E000
ENDCHAR
STARTCHAR 0047
ENCODING 71
SWIDTH 510 0
DWIDTH 17 0
BBX 13 20 2 0
BITMAP
07E0
1FF8
3FF8
7C10
7000
E000
E000
E000
C000
C000
C038
C038
E038
E038
E038
7038
7C38
3FF8
1FF8
07F0
ENDCHAR
STARTCHAR 0048
ENCODING 72
SWIDTH 510 0
DWIDTH 17 0
BBX 14 20 1 0
BITMAP
E01C
E01C
E01C
E01C
E01C
E01C
E01C
E01C
FFFC
FFFC
FFFC
E01C
E01C
E01C
E01C
E01C
E01C
E01C
E01C
E01C
ENDCHAR
STARTCHAR 0049
ENCODING 73
SWIDTH 510 0
DWIDTH 17 0
BBX 11 20 3 0
BITMAP
FFE0
FFE0
FFE0
0E00
0E00
0E00
0E00
0E00
0E00
0E00
0E00
0E00
0E00
0E00
0E00
0E00
0E00
FFE0
FFE0
FFE0
ENDCHAR
STARTCHAR 004A
ENCODING 74
SWIDTH 510 0
DWIDTH 17 0
BBX 12 20 2 0
BITMAP
3FF0
3FF0
3FF0
0070
0070
0070
0070
0070
0070
0070
0070
0070
0070
0070
0070
4070
E1E0
FFE0
FFC0
3F00
ENDCHAR
STARTCHAR 004B
ENCODING 75
SWIDTH 510 0
DWIDTH 17 0
BBX 14 20 2 0
BITMAP
E038
E070
E0F0
E0E0
E1C0
E380
E700
EF00
FE00
FC00
FE00
EF00
E780
E3C0
E1E0
E0F0
E070
E038
E038
E01C
ENDCHAR
STARTCHAR 004C
ENCODING 76
SWIDTH 510 0
DWIDTH 17 0
BBX 12 20 3 0
BITMAP
E000
E000
E000
E000
E000
E000
E000
E000
E000
E000
E000
E000
E000
E000
E000
E000
E000
FFF0
FFF0
FFF0
ENDCHAR
STARTCHAR 004D
ENCODING 77
SWIDTH 510 0
DWIDTH 17 0
BBX 14 20 1 0
BITMAP
7038
7838
7838
7878
7C7C
6C7C
6CCC
66CC
66CC
678C
638C
E38C
E00C
E00C
E00C
E00C
E00C
E00C
E00C
E00C
ENDCHAR
STARTCHAR 004E
ENCODING 78
SWIDTH 510 0
DWIDTH 17 0
BBX 13 20 2 0
BITMAP
E038
E038
F038
F838
F838
DC38
CC38
CE38
C638
C738
C338
C3B8
C1B8
C1B8
C1F8
C0F8
C0F8
C078
C078
C038
ENDCHAR
STARTCHAR 004F
ENCODING 79
SWIDTH 510 0
DWIDTH 17 0
BBX 15 20 1 0
BITMAP
07C0
1FF0
3FF8
7878
703C
F01C
E01C
E00C
E00E
E00E
E00E
E00E
E00C
E01C
E01C
703C
7878
3FF8
1FF0
07C0
ENDCHAR
STARTCHAR 0050
ENCODING 80
SWIDTH 510 0
DWIDTH 17 0
BBX 13 20 2 0
BITMAP
FF80
FFE0
FFF0
E070
E038
E038
E038
E038
E038
E0F0
FFF0
FFE0
FF80
E000
E000
E000
E000
E000
E000
E000
ENDCHAR
STARTCHAR 0051
ENCODING 81
SWIDTH 510 0
DWIDTH 17 0
BBX 15 25 1 -5
BITMAP
07C0
1FF0
3FF8
7878
703C
F01C
E01C
E00C
E00E
E00E
E00E
E00E
E00C
E01C
E01C
703C
7878
3FF8
1FF0
0FC0
0380
03E0
01FC
00F8
0018
ENDCHAR
STARTCHAR 0052
ENCODING 82
SWIDTH 510 0
DWIDTH 17 0
BBX 13 20 2 0
BITMAP
FF00
FFC0
FFE0
E0F0
E070
E070
E070
E070
E070
E0F0
FFE0
FFC0
FF80
E380
E1C0
E0E0
E0E0
E070
E030
E038
ENDCHAR
STARTCHAR 0053
ENCODING 83
SWIDTH 510 0
DWIDTH 17 0
BBX 13 20 2 0
BITMAP
0FC0
3FF0
7FF0
7020
E000
E000
E000
7800
7E00
3FC0
0FE0
01F0
0070
0038
0038
0038
C070
FFF0
FFE0
3F80
ENDCHAR
STARTCHAR 0054
ENCODING 84
SWIDTH 510 0
DWIDTH 17 0
BBX 14 20 1 0
BITMAP
FFFC
FFFC
FFFC
0380
0380
0380
0380
0380
0380
0380
0380
0380
0380
0380
0380
0380
0380
0380
0380
0380
ENDCHAR
STARTCHAR 0055
ENCODING 85
SWIDTH 510 0
DWIDTH 17 0
BBX 13 20 2 0
BITMAP
C038
C038
C038
C038
C038
C038
C038
C038
C038
C038
C038
C038
C038
C038
E038
E078
F0F0
7FF0
3FE0
1F80
ENDCHAR
STARTCHAR 0056
ENCODING 86
SWIDTH 510 0
DWIDTH 17 0
BBX 15 20 1 0
BITMAP
C00E
E00E
E00E
E01C
601C
701C
7018
7038
3838
3830
3870
1870
1C70
1CE0
0CE0
0EE0
0FC0
07C0
0780
0780
ENDCHAR
STARTCHAR 0057
ENCODING 87
SWIDTH 510 0
DWIDTH 17 0
BBX 14 20 1 0
BITMAP
E00C
E00C
E00C
E00C
E00C
E00C
E00C
E00C
E38C
678C
678C
66CC
6ECC
6CDC
6C7C
7C78
7878
7838
7838
7038
ENDCHAR
STARTCHAR 0058
ENCODING 88
SWIDTH 510 0
DWIDTH 17 0
BBX 14 20 1 0
BITMAP
E01C
701C
3838
3870
1C70
1CE0
0EE0
0FC0
0780
0380
0780
07C0
0FE0
1CE0
1C70
3870
3838
7038
701C
E01C
ENDCHAR
STARTCHAR 0059
ENCODING 89
SWIDTH 510 0
DWIDTH 17 0
BBX 15 20 1 0
BITMAP
E00E
E00C
E01C
701C
7038
3838
3870
1C70
1EE0
0FC0
07C0
0780
0380
0380
0380
0380
0380
0380
0380
0380
ENDCHAR
STARTCHAR 005A
ENCODING 90
SWIDTH 510 0
DWIDTH 17 0
BBX 13 20 2 0
BITMAP
FFF8
FFF8
FFF8
0070
00E0
00E0
01C0
0380
0300
0700
0E00
1C00
1C00
3800
3000
7000
E000
FFF8
FFF8
FFF8
ENDCHAR
STARTCHAR 005B
ENCODING 91
SWIDTH 510 0
DWIDTH 17 0
BBX 8 28 5 -5
BITMAP
FF
FF
C0
C0
C0
C0
C0
C0
C0
C0
C0
C0
C0
C0
C0
C0
C0
C0
C0
C0
C0
C0
C0
C0
C0
C0
FF
FF
ENDCHAR
STARTCHAR 005C
ENCODING 92
SWIDTH 510 0
DWIDTH 17 0
BBX 12 28 2 -5
BITMAP
E000
7000
7000
7000
3800
3800
3800
1800
1C00
1C00
0C00
0E00
0E00
0600
0700
0700
0300
0380
0380
0180
01C0
01C0
00C0
00E0
00E0
0060
0070
0070
ENDCHAR
STARTCHAR 005D
ENCODING 93
SWIDTH 510 0
DWIDTH 17 0
BBX 8 28 4 -5
BITMAP
FF
FF
07
07
07
07
07
07
07
07
07
07
07
07
07
07
07
07
07
07
07
07
07
07
07
07
FF
FF
ENDCHAR
STARTCHAR 005E
ENCODING 94
SWIDTH 510 0
DWIDTH 17 0
BBX 13 11 2 9
BITMAP
0700
0F00
0F80
1DC0
39C0
38E0
70E0
7070
E030
C038
C010
ENDCHAR
STARTCHAR 005F
ENCODING 95
SWIDTH 510 0
DWIDTH 17 0
BBX 16 2 0 -5
BITMAP
FFFF
FFFF
ENDCHAR
STARTCHAR 0060
ENCODING 96
SWIDTH 510 0
DWIDTH 17 0
BBX 5 6 6 17
BITMAP
40
C0
E0
70
38
10
ENDCHAR
STARTCHAR 0061
ENCODING 97
SWIDTH 510 0
DWIDTH 17 0
BBX 12 15 2 0
BITMAP
1F80
3FE0
3FF0
20F0
0070
0030
1FF0
7FF0
F030
E030
E030
F030
FFF0
7FF0
1FF0
ENDCHAR
STARTCHAR 0062
ENCODING 98
SWIDTH 510 0
DWIDTH 17 0
BBX 13 23 2 0
BITMAP
E000
E000
E000
E000
E000
E000
E000
E000
EF80
FFE0
FFF0
F0F0
E038
E038
E038
E038
E038
E038
E078
E0F0
FFF0
FFE0
7F80
ENDCHAR
STARTCHAR 0063
ENCODING 99
SWIDTH 510 0
DWIDTH 17 0
BBX 13 15 2 0
BITMAP
07F0
1FF8
7FF0
7810
F000
E000
E000
C000
C000
E000
F000
7818
7FF8
3FF8
0FF0
ENDCHAR
STARTCHAR 0064
ENCODING 100
SWIDTH 510 0
DWIDTH 17 0
BBX 13 23 1 0
BITMAP
0038
0038
0038
0038
0038
0038
0038
0038
0FF8
1FF8
3FF8
7878
7038
E038
E038
E038
E038
E038
7038
7838
3FF8
1FF8
07F0
ENDCHAR
STARTCHAR 0065
ENCODING 101
SWIDTH 510 0
DWIDTH 17 0
BBX 14 15 1 0
BITMAP
07C0
1FF0
3FF8
7838
701C
601C
FFFC
FFFC
E000
E000
7000
7C08
3FF8
1FF8
07F0
ENDCHAR
STARTCHAR 0066
ENCODING 102
SWIDTH 510 0
DWIDTH 17 0
BBX 14 23 2 0
BITMAP
03F0
07FC
0FFC
0E0C
1C00
1C00
1C00
1C00
FFF0
FFF0
FFF0
1C00
1C00
1C00
1C00
1C00
1C00
1C00
1C00
1C00
1C00
1C00
1C00
ENDCHAR
STARTCHAR 0067
ENCODING 103
SWIDTH 510 0
DWIDTH 17 0
BBX 13 20 1 -5
BITMAP
0FF0
1FF8
3FF8
7838
7038
E038
E038
E038
E038
7038
7838
7FF8
3FF8
0FF8
0038
0038
2078
7FF0
7FE0
3F80
ENDCHAR
STARTCHAR 0068
ENCODING 104
SWIDTH 510 0
DWIDTH 17 0
BBX 12 23 2 0
BITMAP
E000
E000
E000
E000
E000
E000
E000
E000
FF80
FFE0
FFE0
E0F0
E070
E070
E070
E030
E030
E030
E030
E030
E030
E030
E030
ENDCHAR
STARTCHAR 0069
ENCODING 105
SWIDTH 510 0
DWIDTH 17 0
BBX 13 21 2 0
BITMAP
1C00
1E00
1E00
1C00
0000
0000
FE00
FE00
FE00
0E00
0E00
0E00
0E00
0E00
0E00
0E00
0E00
0F08
07F8
07F8
03F0
ENDCHAR
STARTCHAR 006A
ENCODING 106
SWIDTH 510 0
DWIDTH 17 0
BBX 11 26 2 -5
BITMAP
01C0
03C0
03C0
01C0
0000
0000
3FE0
3FE0
3FE0
00E0
00E0
00E0
00E0
00E0
00E0
00E0
00E0
00E0
00E0
00E0
00E0
00E0
41C0
7FC0
FF80
3F00
ENDCHAR
STARTCHAR 006B
ENCODING 107
SWIDTH 510 0
DWIDTH 17 0
BBX 13 23 2 0
BITMAP
E000
E000
E000
E000
E000
E000
E000
E000
E038
E070
E1E0
E3C0
E780
EF00
FC00
FC00
EF00
E780
E1C0
E0E0
E070
E078
E038
ENDCHAR
STARTCHAR 006C
ENCODING 108
SWIDTH 510 0
DWIDTH 17 0
BBX 13 23 2 0
BITMAP
FE00
FE00
FE00
0E00
0E00
0E00
0E00
0E00
0E00
0E00
0E00
0E00
0E00
0E00
0E00
0E00
0E00
0E00
0E00
0F08
07F8
07F8
01F0
ENDCHAR
STARTCHAR 006D
ENCODING 109
SWIDTH 510 0
DWIDTH 17 0
BBX 14 15 1 0
BITMAP
7CF0
FFF8
FFFC
E39C
E38C
E38C
E38C
E38C
E38C
E00C
E00C
E00C
E00C
E00C
E00C
ENDCHAR
STARTCHAR 006E
ENCODING 110
SWIDTH 510 0
DWIDTH 17 0
BBX 12 15 2 0
BITMAP
7F80
FFE0
FFE0
E0F0
E070
E070
E070
E030
E030
E030
E030
E030
E030
E030
E030
ENDCHAR
STARTCHAR 006F
ENCODING 111
SWIDTH 510 0
DWIDTH 17 0
BBX 14 15 1 0
BITMAP
07C0
1FF0
3FF8
7878
703C
E01C
E01C
E01C
E01C
E01C
703C
7878
3FF8
1FF0
0FC0
ENDCHAR
STARTCHAR 0070
ENCODING 112
SWIDTH 510 0
DWIDTH 17 0
BBX 13 20 2 -5
BITMAP
7F80
FFE0
FFF0
E0F0
E078
E038
E038
E038
E038
E038
E038
F0F0
FFF0
FFE0
EF80
E000
E000
E000
E000
E000
ENDCHAR
STARTCHAR 0071
ENCODING 113
SWIDTH 510 0
DWIDTH 17 0
BBX 13 20 1 -5
BITMAP
07F0
1FF8
3FF8
7838
7038
E038
E038
E038
E038
E038
7038
7838
3FF8
1FF8
0FF8
0038
0038
0038
0038
0038
ENDCHAR
STARTCHAR 0072
ENCODING 114
SWIDTH 510 0
DWIDTH 17 0
BBX 10 15 4 0
BITMAP
3FC0
FFC0
FFC0
C000
C000
C000
C000
C000
C000
C000
C000
C000
C000
C000
C000
ENDCHAR
STARTCHAR 0073
ENCODING 115
SWIDTH 510 0
DWIDTH 17 0
BBX 12 15 2 0
BITMAP
1FE0
3FE0
7FE0
7020
E000
7800
7F00
3FC0
07F0
00F0
0070
4070
FFF0
FFE0
3FC0
ENDCHAR
STARTCHAR 0074
ENCODING 116
SWIDTH 510 0
DWIDTH 17 0
BBX 13 20 2 0
BITMAP
1C00
1C00
1C00
1C00
1C00
FFF0
FFF0
FFF0
1C00
1C00
1C00
1C00
1C00
1C00
1C00
1C00
1E08
0FF8
0FF8
03F0
ENDCHAR
STARTCHAR 0075
ENCODING 117
SWIDTH 510 0
DWIDTH 17 0
BBX 12 15 2 0
BITMAP
E070
E070
E070
E070
E070
E070
E070
E070
E070
E070
F070
7870
7FF0
3FF0
1FE0
ENDCHAR
STARTCHAR 0076
ENCODING 118
SWIDTH 510 0
DWIDTH 17 0
BBX 14 15 1 0
BITMAP
E00C
E01C
701C
7018
7038
3838
3870
1870
1C60
1CE0
0EE0
0FC0
07C0
0780
0380
ENDCHAR
STARTCHAR 0077
ENCODING 119
SWIDTH 510 0
DWIDTH 17 0
BBX 15 15 1 0
BITMAP
C00E
C00E
C00E
E00C
E38C
E38C
E78C
67DC
67DC
6EDC
6CF8
7C78
7878
3838
3030
ENDCHAR
STARTCHAR 0078
ENCODING 120
SWIDTH 510 0
DWIDTH 17 0
BBX 14 15 1 0
BITMAP
701C
7038
3870
1C60
0EE0
0FC0
0780
0380
07C0
0EE0
1C60
3870
3038
701C
E01C
ENDCHAR
STARTCHAR 0079
ENCODING 121
SWIDTH 510 0
DWIDTH 17 0
BBX 14 20 1 -5
BITMAP
701C
701C
701C
3838
3838
3838
1C30
1C70
0C70
0E60
0EE0
07E0
07C0
03C0
0180
0380
0700
7F00
FE00
F800
ENDCHAR
STARTCHAR 007A
ENCODING 122
SWIDTH 510 0
DWIDTH 17 0
BBX 12 15 2 0
BITMAP
7FF0
7FF0
7FF0
00E0
01C0
0380
0700
0E00
1C00
1C00
3800
7000
FFF0
FFF0
FFF0
ENDCHAR
STARTCHAR 007B
ENCODING 123
SWIDTH 510 0
DWIDTH 17 0
BBX 11 28 3 -5
BITMAP
07E0
0FE0
0E00
1C00
1C00
1C00
1C00
1C00
1C00
1C00
1C00
1C00
3800
F000
F000
3800
1800
1C00
1C00
1C00
1C00
1C00
1C00
1C00
1C00
0E00
0FE0
07E0
ENDCHAR
STARTCHAR 007C
ENCODING 124
SWIDTH 510 0
DWIDTH 17 0
BBX 3 28 7 -5
BITMAP
E0
E0
E0
E0
E0
E0
E0
E0
E0
E0
E0
E0
E0
E0
E0
E0
E0
E0
E0
E0
E0
E0
E0
E0
E0
E0
E0
E0
ENDCHAR
STARTCHAR 007D
ENCODING 125
SWIDTH 510 0
DWIDTH 17 0
BBX 12 28 2 -5
BITMAP
FC00
FE00
0700
0300
0300
0300
0300
0300
0300
0300
0300
0380
0380
01F0
01F0
0380
0380
0300
0300
0300
0300
0300
0300
0300
0300
0700
FE00
FC00
ENDCHAR
STARTCHAR 007E
ENCODING 126
SWIDTH 510 0
DWIDTH 17 0
BBX 14 6 1 6
BITMAP
1C0C
3F0C
7F9C
63FC
E1F8
40F0
ENDCHAR
STARTCHAR 00A0
ENCODING 160
SWIDTH 510 0
DWIDTH 17 0
BBX 0 0 0 0
BITMAP
ENDCHAR
STARTCHAR 00A1
ENCODING 161
SWIDTH 510 0
DWIDTH 17 0
BBX 4 20 6 -5
BITMAP
70
F0
F0
70
00
00
00
60
60
60
70
70
70
70
70
70
70
70
70
70
ENDCHAR
STARTCHAR 00A2
ENCODING 162
SWIDTH 510 0
DWIDTH 17 0
BBX 13 23 2 -3
BITMAP
0380
0380
0380
0380
07E0
3FF0
7FF0
7810
F000
E000
E000
C000
C000
E000
E000
7000
7818
3FF8
0FF0
0380
0380
0380
0380
ENDCHAR
STARTCHAR 00A3
ENCODING 163
SWIDTH 510 0
DWIDTH 17 0
BBX 14 20 1 0
BITMAP
03F0
07F8
0FF8
0E08
1C00
1C00
1C00
1C00
1C00
FFF0
FFF0
FFF0
1C00
1C00
1C00
1C00
1C00
1FFC
1FFC
3FFC
ENDCHAR
STARTCHAR 00A4
ENCODING 164
SWIDTH 510 0
DWIDTH 17 0
BBX 14 13 1 4
BITMAP
6008
F7DC
7FF8
3870
3038
3018
3018
3018
3038
3870
7FF8
F7DC
6008
ENDCHAR
STARTCHAR 00A5
ENCODING 165
SWIDTH 510 0
DWIDTH 17 0
BBX 15 20 1 0
BITMAP
E00E
E01C
701C
7038
3838
3870
1C60
0CE0
0EC0
07C0
7FF8
7FF8
7FF8
0380
0380
7FF8
7FF8
7FF8
0380
0380
ENDCHAR
STARTCHAR 00A6
ENCODING 166
SWIDTH 510 0
DWIDTH 17 0
BBX 3 28 7 -5
BITMAP
E0
E0
E0
E0
E0
E0
E0
E0
E0
E0
E0
00
00
00
00
00
00
E0
E0
E0
E0
E0
E0
E0
E0
E0
E0
E0
ENDCHAR
STARTCHAR 00A7
ENCODING 167
SWIDTH 510 0
DWIDTH 17 0
BBX 12 24 2 -3
BITMAP
0FC0
3FF0
3FE0
7820
7000
7000
3E00
3F80
3FE0
73F0
6070
E030
E030
F070
7EE0
3FC0
0FE0
01E0
0070
0070
40E0
7FE0
FFC0
3F80
ENDCHAR
STARTCHAR 00A8
ENCODING 168
SWIDTH 510 0
DWIDTH 17 0
BBX 9 3 4 18
BITMAP
E300
E780
E300
ENDCHAR
STARTCHAR 00A9
ENCODING 169
SWIDTH 510 0
DWIDTH 17 0
BBX 14 16 1 0
BITMAP
07C0
1FF0
3878
7018
63CC
CF8C
CC0C
CC0C
CC0C
CC0C
CF8C
67CC
7018
3878
1FF0
07C0
ENDCHAR
STARTCHAR 00AA
ENCODING 170
SWIDTH 510 0
DWIDTH 17 0
BBX 9 10 4 10
BITMAP
7E00
7F00
0380
0180
3F80
FF80
C180
C180
FF80
7F80
ENDCHAR
STARTCHAR 00AB
ENCODING 171
SWIDTH 510 0
DWIDTH 17 0
BBX 11 11 2 3
BITMAP
0820
1860
38E0
71C0
7180
E380
7180
71C0
38E0
1860
0820
ENDCHAR
STARTCHAR 00AC
ENCODING 172
SWIDTH 510 0
DWIDTH 17 0
BBX 14 10 1 1
BITMAP
FFFC
FFFC
001C
001C
001C
001C
001C
001C
001C
001C
ENDCHAR
STARTCHAR 00AD
ENCODING 173
SWIDTH 510 0
DWIDTH 17 0
BBX 7 3 5 7
BITMAP
FE
FE
FE
ENDCHAR
STARTCHAR 00AE
ENCODING 174
SWIDTH 510 0
DWIDTH 17 0
BBX 14 16 1 0
BITMAP
07C0
1FF0
3878
7018
6F8C
CFCC
CCCC
CCCC
CFCC
CF8C
CCCC
6C4C
7018
3878
1FF0
07C0
ENDCHAR
STARTCHAR 00AF
ENCODING 175
SWIDTH 510 0
DWIDTH 17 0
BBX 8 2 4 19
BITMAP
FF
FF
ENDCHAR
STARTCHAR 00B0
ENCODING 176
SWIDTH 510 0
DWIDTH 17 0
BBX 8 8 4 15
BITMAP
3C
7F
E3
C3
C3
E3
7F
3C
ENDCHAR
STARTCHAR 00B1
ENCODING 177
SWIDTH 510 0
DWIDTH 17 0
BBX 13 18 2 0
BITMAP
0600
0600
0600
0600
0600
0600
FFF8
FFF8
0600
0600
0600
0600
0600
0600
0000
0000
FFF8
FFF8
ENDCHAR
STARTCHAR 00B2
ENCODING 178
SWIDTH 510 0
DWIDTH 17 0
BBX 8 11 4 9
BITMAP
3E
FF
47
03
06
0E
1C
30
60
7F
7F
ENDCHAR
STARTCHAR 00B3
ENCODING 179
SWIDTH 510 0
DWIDTH 17 0
BBX 8 11 4 9
BITMAP
3C
FE
43
07
3E
3E
07
03
83
FF
7C
ENDCHAR
STARTCHAR 00B4
ENCODING 180
SWIDTH 510 0
DWIDTH 17 0
BBX 5 6 6 17
BITMAP
10
38
70
60
C0
C0
ENDCHAR
STARTCHAR 00B5
ENCODING 181
SWIDTH 510 0
DWIDTH 17 0
BBX 12 20 2 -5
BITMAP
E070
E070
E070
E070
E070
E070
E070
E070
E070
E070
F070
F070
FFF0
FFF0
EFE0
E000
E000
E000
E000
E000
ENDCHAR
STARTCHAR 00B6
ENCODING 182
SWIDTH 510 0
DWIDTH 17 0
BBX 14 26 1 -5
BITMAP
07FC
1FFC
7F9C
7F9C
FF9C
FF9C
FF9C
FF9C
FF9C
FF9C
7F9C
3F9C
0F9C
039C
039C
039C
039C
039C
039C
039C
039C
039C
039C
039C
039C
039C
ENDCHAR
STARTCHAR 00B7
ENCODING 183
SWIDTH 510 0
DWIDTH 17 0
BBX 5 4 6 6
BITMAP
70
F8
F8
70
ENDCHAR
STARTCHAR 00B8
ENCODING 184
SWIDTH 510 0
DWIDTH 17 0
BBX 6 7 5 -6
BITMAP
18
30
38
18
1C
F8
F8
ENDCHAR
STARTCHAR 00B9
ENCODING 185
SWIDTH 510 0
DWIDTH 17 0
BBX 9 11 4 9
BITMAP
0C00
3C00
FC00
4C00
0C00
0C00
0C00
0C00
0C00
FF80
FF80
ENDCHAR
STARTCHAR 00BA
ENCODING 186
SWIDTH 510 0
DWIDTH 17 0
BBX 11 10 3 10
BITMAP
1F00
7F80
61C0
C0C0
C0E0
C0E0
C0C0
61C0
7F80
1F00
ENDCHAR
STARTCHAR 00BB
ENCODING 187
SWIDTH 510 0
DWIDTH 17 0
BBX 11 11 3 3
BITMAP
4100
E380
6180
71C0
38E0
1860
38E0
71C0
6180
E380
C300
ENDCHAR
STARTCHAR 00BC
ENCODING 188
SWIDTH 510 0
DWIDTH 17 0
BBX 15 21 1 0
BITMAP
3000
700C
F01C
B018
3030
3030
3060
30E0
30C0
0180
0380
0300
0600
063C
0C3C
1C6C
18CC
30CC
71FE
61FE
C00C
ENDCHAR
STARTCHAR 00BD
ENCODING 189
SWIDTH 510 0
DWIDTH 17 0
BBX 15 21 1 0
BITMAP
1800
780C
F818
9838
1830
1870
1860
18C0
19C0
0180
0300
0700
0600
0E3C
0CFC
1846
380C
3018
6030
E07E
C0FE
ENDCHAR
STARTCHAR 00BE
ENCODING 190
SWIDTH 510 0
DWIDTH 17 0
BBX 15 21 1 0
BITMAP
F800
FC0E
0C0C
7818
7C38
0C30
0C60
FCE0
F8C0
01C0
0180
0300
0700
063C
0C3C
1C6C
18CC
38CC
31FE
61FE
E00C
ENDCHAR
STARTCHAR 00BF
ENCODING 191
SWIDTH 510 0
DWIDTH 17 0
BBX 10 21 3 -6
BITMAP
0700
0F00
0F00
0700
0000
0000
0000
0700
0600
0E00
0C00
1800
3000
6000
E000
E000
E000
F040
7FC0
7FC0
1F80
ENDCHAR
STARTCHAR 00C0
ENCODING 192
SWIDTH 510 0
DWIDTH 17 0
BBX 16 28 0 0
BITMAP
0100
0300
0380
01C0
00E0
0040
0000
0000
03C0
03E0
03E0
0760
0670
0670
0E30
0C38
0C38
1C18
1C1C
181C
381C
3FFC
3FFE
7FFE
700E
7007
7007
E007
ENDCHAR
STARTCHAR 00C1
ENCODING 193
SWIDTH 510 0
DWIDTH 17 0
BBX 16 28 0 0
BITMAP
0040
00E0
01C0
0180
0300
0200
0000
0000
03C0
03E0
03E0
0760
0670
0670
0E30
0C38
0C38
1C18
1C1C
181C
381C
3FFC
3FFE
7FFE
700E
7007
7007
E007
ENDCHAR
STARTCHAR 00C2
ENCODING 194
SWIDTH 510 0
DWIDTH 17 0
BBX 16 28 0 0
BITMAP
0080
01C0
03C0
0760
0E30
0410
0000
0000
03C0
03E0
03E0
0760
0670
0670
0E30
0C38
0C38
1C18
1C1C
181C
381C
3FFC
3FFE
7FFE
700E
7007
7007
E007
ENDCHAR
STARTCHAR 00C3
ENCODING 195
SWIDTH 510 0
DWIDTH 17 0
BBX 16 26 0 0
BITMAP
0718
0FF0
0CE0
0000
0000
0000
03C0
03E0
03E0
0760
0670
0670
0E30
0C38
0C38
1C18
1C1C
181C
381C
3FFC
3FFE
7FFE
700E
7007
7007
E007
ENDCHAR
STARTCHAR 00C4
ENCODING 196
SWIDTH 510 0
DWIDTH 17 0
BBX 16 26 0 0
BITMAP
0E30
0E78
0E30
0000
0000
0000
03C0
03E0
03E0
0760
0670
0670
0E30
0C38
0C38
1C18
1C1C
181C
381C
3FFC
3FFE
7FFE
700E
7007
7007
E007
ENDCHAR
STARTCHAR 00C5
ENCODING 197
SWIDTH 510 0
DWIDTH 17 0
BBX 16 24 0 0
BITMAP
03C0
0660
0620
0660
03C0
03E0
03E0
0760
0670
0670
0E30
0C38
0C38
1C18
181C
181C
3FFC
3FFC
3FFE
700E
700E
7007
6007
E007
ENDCHAR
STARTCHAR 00C6
ENCODING 198
SWIDTH 510 0
DWIDTH 17 0
BBX 15 20 1 0
BITMAP
03FC
03FC
07FC
06C0
06C0
0CC0
0CC0
1CC0
18FC
18FC
18FC
38C0
3FC0
3FC0
7FC0
70C0
60C0
60FE
E0FE
E0FE
ENDCHAR
STARTCHAR 00C7
ENCODING 199
SWIDTH 510 0
DWIDTH 17 0
BBX 13 26 2 -6
BITMAP
07E0
1FF8
3FF8
7C10
7000
E000
E000
E000
C000
C000
C000
C000
E000
E000
E000
7000
7C18
3FF8
1FF8
07E0
0180
0380
01C0
00C0
07C0
0780
ENDCHAR
STARTCHAR 00C8
ENCODING 200
SWIDTH 510 0
DWIDTH 17 0
BBX 12 28 3 0
BITMAP
0800
1C00
0E00
0600
0700
0300
0000
0000
FFE0
FFE0
FFE0
E000
E000
E000
E000
E000
FFC0
FFC0
FFC0
E000
E000
E000
E000
E000
E000
FFF0
FFF0
FFF0
ENDCHAR
STARTCHAR 00C9
ENCODING 201
SWIDTH 510 0
DWIDTH 17 0
BBX 12 28 3 0
BITMAP
0100
0380
0700
0E00
0C00
0800
0000
0000
FFE0
FFE0
FFE0
E000
E000
E000
E000
E000
FFC0
FFC0
FFC0
E000
E000
E000
E000
E000
E000
FFF0
FFF0
FFF0
ENDCHAR
STARTCHAR 00CA
ENCODING 202
SWIDTH 510 0
DWIDTH 17 0
BBX 12 28 3 0
BITMAP
0400
0600
0F00
1B80
31C0
2080
0000
0000
FFE0
FFE0
FFE0
E000
E000
E000
E000
E000
FFC0
FFC0
FFC0
E000
E000
E000
E000
E000
E000
FFF0
FFF0
FFF0
ENDCHAR
STARTCHAR 00CB
ENCODING 203
SWIDTH 510 0
DWIDTH 17 0
BBX 12 26 3 0
BITMAP
31C0
79C0
31C0
0000
0000
0000
FFE0
FFE0
FFE0
E000
E000
E000
E000
E000
FFC0
FFC0
FFC0
E000
E000
E000
E000
E000
E000
FFF0
FFF0
FFF0
ENDCHAR
STARTCHAR 00CC
ENCODING 204
SWIDTH 510 0
DWIDTH 17 0
BBX 11 28 3 0
BITMAP
0800
1800
1C00
0E00
0700
0200
0000
0000
FFE0
FFE0
FFE0
0E00
0E00
0E00
0E00
0E00
0E00
0E00
0E00
0E00
0E00
0E00
0E00
0E00
0E00
FFE0
FFE0
FFE0
ENDCHAR
STARTCHAR 00CD
ENCODING 205
SWIDTH 510 0
DWIDTH 17 0
BBX 11 28 3 0
BITMAP
0200
0300
0700
0E00
1C00
0800
0000
0000
FFE0
FFE0
FFE0
0E00
0E00
0E00
0E00
0E00
0E00
0E00
0E00
0E00
0E00
0E00
0E00
0E00
0E00
FFE0
FFE0
FFE0
ENDCHAR
STARTCHAR 00CE
ENCODING 206
SWIDTH 510 0
DWIDTH 17 0
BBX 11 28 3 0
BITMAP
0400
0E00
1E00
3B00
7180
2080
0000
0000
FFE0
FFE0
FFE0
0E00
0E00
0E00
0E00
0E00
0E00
0E00
0E00
0E00
0E00
0E00
0E00
0E00
0E00
FFE0
FFE0
FFE0
ENDCHAR
STARTCHAR 00CF
ENCODING 207
SWIDTH 510 0
DWIDTH 17 0
BBX 11 26 3 0
BITMAP
7180
73C0
7180
0000
0000
0000
FFE0
FFE0
FFE0
0E00
0E00
0E00
0E00
0E00
0E00
0E00
0E00
0E00
0E00
0E00
0E00
0E00
0E00
FFE0
FFE0
FFE0
ENDCHAR
STARTCHAR 00D0
ENCODING 208
SWIDTH 510 0
DWIDTH 17 0
BBX 14 20 1 0
BITMAP
7F80
7FE0
7FF0
70F8
7038
703C
701C
701C
FE1C
FE1C
FE1C
701C
701C
701C
703C
7038
70F8
7FF0
7FE0
7F80
ENDCHAR
STARTCHAR 00D1
ENCODING 209
SWIDTH 510 0
DWIDTH 17 0
BBX 13 26 2 0
BITMAP
1C60
3FC0
3380
0000
0000
0000
E038
E038
F038
F838
F838
DC38
CC38
CE38
C638
C738
C338
C3B8
C1B8
C1B8
C1F8
C0F8
C0F8
C078
C078
C038
ENDCHAR
STARTCHAR 00D2
ENCODING 210
SWIDTH 510 0
DWIDTH 17 0
BBX 15 28 1 0
BITMAP
0200
0600
0700
0380
01C0
0080
0000
0000
07C0
1FF0
3FF8
7878
703C
F01C
E01C
E00C
E00E
E00E
E00E
E00E
E00C
E01C
E01C
703C
7878
3FF8
1FF0
07C0
ENDCHAR
STARTCHAR 00D3
ENCODING 211
SWIDTH 510 0
DWIDTH 17 0
BBX 15 28 1 0
BITMAP
0080
01C0
01C0
0380
0700
0200
0000
0000
07C0
1FF0
3FF8
7878
703C
F01C
E01C
E00C
E00E
E00E
E00E
E00E
E00C
E01C
E01C
703C
7878
3FF8
1FF0
07C0
ENDCHAR
STARTCHAR 00D4
ENCODING 212
SWIDTH 510 0
DWIDTH 17 0
BBX 15 28 1 0
BITMAP
0100
0380
0780
0EC0
1C60
0820
0000
0000
07C0
1FF0
3FF8
7878
703C
F01C
E01C
E00C
E00E
E00E
E00E
E00E
E00C
E01C
E01C
703C
7878
3FF8
1FF0
07C0
ENDCHAR
STARTCHAR 00D5
ENCODING 213
SWIDTH 510 0
DWIDTH 17 0
BBX 15 26 1 0
BITMAP
0E30
1FE0
19C0
0000
0000
0000
07C0
1FF0
3FF8
7878
703C
F01C
E01C
E00C
E00E
E00E
E00E
E00E
E00C
E01C
E01C
703C
7878
3FF8
1FF0
07C0
ENDCHAR
STARTCHAR 00D6
ENCODING 214
SWIDTH 510 0
DWIDTH 17 0
BBX 15 26 1 0
BITMAP
1C60
1CF0
1C60
0000
0000
0000
07C0
1FF0
3FF8
7878
703C
F01C
E01C
E00C
E00E
E00E
E00E
E00E
E00C
E01C
E01C
703C
7878
3FF8
1FF0
07C0
ENDCHAR
STARTCHAR 00D7
ENCODING 215
SWIDTH 510 0
DWIDTH 17 0
BBX 12 12 2 3
BITMAP
4020
E070
70E0
39C0
1F80
0F00
0F00
1F80
39C0
70E0
E070
4020
ENDCHAR
STARTCHAR 00D8
ENCODING 216
SWIDTH 510 0
DWIDTH 17 0
BBX 15 22 1 -1
BITMAP
0010
07F8
1FF0
3FF8
7878
70FC
70FC
E1CC
E1CC
E18E
E38E
E30E
E70E
E60C
EE1C
EC1C
7C3C
7878
3FF8
3FF0
7FC0
2000
ENDCHAR
STARTCHAR 00D9
ENCODING 217
SWIDTH 510 0
DWIDTH 17 0
BBX 13 28 2 0
BITMAP
0400
0C00
0E00
0700
0380
0100
0000
0000
C038
C038
C038
C038
C038
C038
C038
C038
C038
C038
C038
C038
C038
C038
E038
E078
F0F0
7FF0
3FE0
1F80
ENDCHAR
STARTCHAR 00DA
ENCODING 218
SWIDTH 510 0
DWIDTH 17 0
BBX 13 28 2 0
BITMAP
0100
0380
0380
0700
0E00
0400
0000
0000
C038
C038
C038
C038
C038
C038
C038
C038
C038
C038
C038
C038
C038
C038
E038
E078
F0F0
7FF0
3FE0
1F80
ENDCHAR
STARTCHAR 00DB
ENCODING 219
SWIDTH 510 0
DWIDTH 17 0
BBX 13 28 2 0
BITMAP
0200
0700
0F00
1D80
38C0
1040
0000
0000
C038
C038
C038
C038
C038
C038
C038
C038
C038
C038
C038
C038
C038
C038
E038
E078
F0F0
7FF0
3FE0
1F80
ENDCHAR
STARTCHAR 00DC
ENCODING 220
SWIDTH 510 0
DWIDTH 17 0
BBX 13 26 2 0
BITMAP
38C0
39E0
38C0
0000
0000
0000
C038
C038
C038
C038
C038
C038
C038
C038
C038
C038
C038
C038
C038
C038
E038
E078
F0F0
7FF0
3FE0
1F80
ENDCHAR
STARTCHAR 00DD
ENCODING 221
SWIDTH 510 0
DWIDTH 17 0
BBX 15 28 1 0
BITMAP
0080
01C0
01C0
0380
0700
0200
0000
0000
E00E
E00C
E01C
701C
7038
3838
3870
1C70
1EE0
0FC0
07C0
0780
0380
0380
0380
0380
0380
0380
0380
0380
ENDCHAR
STARTCHAR 00DE
ENCODING 222
SWIDTH 510 0
DWIDTH 17 0
BBX 13 20 2 0
BITMAP
E000
E000
E000
FF80
FFE0
FFF0
E0F8
E038
E038
E038
E038
E038
E0F0
FFF0
FFE0
FF80
E000
E000
E000
E000
ENDCHAR
STARTCHAR 00DF
ENCODING 223
SWIDTH 510 0
DWIDTH 17 0
BBX 14 23 2 0
BITMAP
1F80
3FC0
7FE0
70E0
70E0
E0E0
E0E0
E1C0
E380
E700
E700
E700
E780
E3E0
E0F0
E038
E01C
E01C
E01C
E438
E7F8
E7F0
E3E0
ENDCHAR
STARTCHAR 00E0
ENCODING 224
SWIDTH 510 0
DWIDTH 17 0
BBX 12 23 2 0
BITMAP
0400
0C00
0E00
0700
0380
0100
0000
0000
1F80
3FE0
3FF0
20F0
0070
0030
1FF0
7FF0
F030
E030
E030
F030
FFF0
7FF0
1FF0
ENDCHAR
STARTCHAR 00E1
ENCODING 225
SWIDTH 510 0
DWIDTH 17 0
BBX 12 23 2 0
BITMAP
0080
01C0
0380
0700
0E00
0400
0000
0000
1F80
3FE0
3FF0
20F0
0070
0030
1FF0
7FF0
F030
E030
E030
F030
FFF0
7FF0
1FF0
ENDCHAR
STARTCHAR 00E2
ENCODING 226
SWIDTH 510 0
DWIDTH 17 0
BBX 12 23 2 0
BITMAP
0200
0700
0F80
0DC0
18C0
1040
0000
0000
1F80
3FE0
3FF0
20F0
0070
0030
1FF0
7FF0
F030
E030
E030
F030
FFF0
7FF0
1FF0
ENDCHAR
STARTCHAR 00E3
ENCODING 227
SWIDTH 510 0
DWIDTH 17 0
BBX 12 21 2 0
BITMAP
1C60
3FC0
3380
0000
0000
0000
1F80
3FE0
3FF0
20F0
0070
0030
1FF0
7FF0
F030
E030
E030
F030
FFF0
7FF0
1FF0
ENDCHAR
STARTCHAR 00E4
ENCODING 228
SWIDTH 510 0
DWIDTH 17 0
BBX 12 21 2 0
BITMAP
38C0
39E0
38C0
0000
0000
0000
1F80
3FE0
3FF0
20F0
0070
0030
1FF0
7FF0
F030
E030
E030
F030
FFF0
7FF0
1FF0
ENDCHAR
STARTCHAR 00E5
ENCODING 229
SWIDTH 510 0
DWIDTH 17 0
BBX 12 22 2 0
BITMAP
0F00
1980
1880
1980
0F00
0000
0000
1F80
3FE0
3FF0
20F0
0070
0030
1FF0
7FF0
F030
E030
E030
F030
FFF0
7FF0
1FF0
ENDCHAR
STARTCHAR 00E6
ENCODING 230
SWIDTH 510 0
DWIDTH 17 0
BBX 15 15 1 0
BITMAP
3C70
7EFC
7FFC
478C
038E
038E
3FFE
7FFE
E380
E380
E180
E3C4
FFFC
7FFC
3E78
ENDCHAR
STARTCHAR 00E7
ENCODING 231
SWIDTH 510 0
DWIDTH 17 0
BBX 13 21 2 -6
BITMAP
07F0
1FF8
7FF0
7810
F000
E000
E000
C000
C000
E000
F000
7818
7FF8
3FF8
0FF0
0300
0300
0380
0180
0F80
0F00
ENDCHAR
STARTCHAR 00E8
ENCODING 232
SWIDTH 510 0
DWIDTH 17 0
BBX 14 23 1 0
BITMAP
0200
0600
0700
0380
01C0
0080
0000
0000
07C0
1FF0
3FF8
7838
701C
601C
FFFC
FFFC
E000
E000
7000
7C08
3FF8
1FF8
07F0
ENDCHAR
STARTCHAR 00E9
ENCODING 233
SWIDTH 510 0
DWIDTH 17 0
BBX 14 23 1 0
BITMAP
0040
00E0
01C0
0380
0700
0200
0000
0000
07C0
1FF0
3FF8
7838
701C
601C
FFFC
FFFC
E000
E000
7000
7C08
3FF8
1FF8
07F0
ENDCHAR
STARTCHAR 00EA
ENCODING 234
SWIDTH 510 0
DWIDTH 17 0
BBX 14 23 1 0
BITMAP
0100
0380
03C0
06E0
0C60
0820
0000
0000
07C0
1FF0
3FF8
7838
701C
601C
FFFC
FFFC
E000
E000
7000
7C08
3FF8
1FF8
07F0
ENDCHAR
STARTCHAR 00EB
ENCODING 235
SWIDTH 510 0
DWIDTH 17 0
BBX 14 21 1 0
BITMAP
0C70
1E70
0C70
0000
0000
0000
07C0
1FF0
3FF8
7838
701C
601C
FFFC
FFFC
E000
E000
7000
7C08
3FF8
1FF8
07F0
ENDCHAR
STARTCHAR 00EC
ENCODING 236
SWIDTH 510 0
DWIDTH 17 0
BBX 13 23 2 0
BITMAP
1000
3800
1C00
0E00
0700
0200
0000
0000
FE00
FE00
FE00
0E00
0E00
0E00
0E00
0E00
0E00
0E00
0E00
0F00
07F8
07F8
03F0
ENDCHAR
STARTCHAR 00ED
ENCODING 237
SWIDTH 510 0
DWIDTH 17 0
BBX 13 23 2 0
BITMAP
0200
0700
0700
0E00
1C00
0800
0000
0000
FE00
FE00
FE00
0E00
0E00
0E00
0E00
0E00
0E00
0E00
0E00
0F00
07F8
07F8
03F0
ENDCHAR
STARTCHAR 00EE
ENCODING 238
SWIDTH 510 0
DWIDTH 17 0
BBX 13 23 2 0
BITMAP
0400
0C00
1E00
3B00
7180
2100
0000
0000
FE00
FE00
FE00
0E00
0E00
0E00
0E00
0E00
0E00
0E00
0E00
0F00
07F8
07F8
03F0
ENDCHAR
STARTCHAR 00EF
ENCODING 239
SWIDTH 510 0
DWIDTH 17 0
BBX 13 21 2 0
BITMAP
7180
73C0
7180
0000
0000
0000
FE00
FE00
FE00
0E00
0E00
0E00
0E00
0E00
0E00
0E00
0E00
0F00
07F8
07F8
03F0
ENDCHAR
STARTCHAR 00F0
ENCODING 240
SWIDTH 510 0
DWIDTH 17 0
BBX 13 23 2 0
BITMAP
0400
0F00
07B8
03F8
0FE0
0CC0
00E0
0060
1F70
3FF0
7FF0
70F0
E030
E030
E030
E070
E070
E070
E070
70E0
7FE0
3FC0
1F00
ENDCHAR
STARTCHAR 00F1
ENCODING 241
SWIDTH 510 0
DWIDTH 17 0
BBX 12 21 2 0
BITMAP
1C60
3FC0
3380
0000
0000
0000
7F80
FFE0
FFE0
E0F0
E070
E070
E070
E030
E030
E030
E030
E030
E030
E030
E030
ENDCHAR
STARTCHAR 00F2
ENCODING 242
SWIDTH 510 0
DWIDTH 17 0
BBX 14 23 1 0
BITMAP
0200
0700
0700
0380
01C0
0080
0000
0000
07C0
1FF0
3FF8
7878
703C
E01C
E01C
E01C
E01C
E01C
703C
7878
3FF8
1FF0
0FC0
ENDCHAR
STARTCHAR 00F3
ENCODING 243
SWIDTH 510 0
DWIDTH 17 0
BBX 14 23 1 0
BITMAP
0080
01C0
01C0
0380
0700
0200
0000
0000
07C0
1FF0
3FF8
7878
703C
E01C
E01C
E01C
E01C
E01C
703C
7878
3FF8
1FF0
0FC0
ENDCHAR
STARTCHAR 00F4
ENCODING 244
SWIDTH 510 0
DWIDTH 17 0
BBX 14 23 1 0
BITMAP
0100
0380
0780
0EC0
1C60
0820
0000
0000
07C0
1FF0
3FF8
7878
703C
E01C
E01C
E01C
E01C
E01C
703C
7878
3FF8
1FF0
0FC0
ENDCHAR
STARTCHAR 00F5
ENCODING 245
SWIDTH 510 0
DWIDTH 17 0
BBX 14 21 1 0
BITMAP
0E30
1FE0
19C0
0000
0000
0000
07C0
1FF0
3FF8
7878
703C
E01C
E01C
E01C
E01C
E01C
703C
7878
3FF8
1FF0
0FC0
ENDCHAR
STARTCHAR 00F6
ENCODING 246
SWIDTH 510 0
DWIDTH 17 0
BBX 14 21 1 0
BITMAP
1C60
1CF0
1C60
0000
0000
0000
07C0
1FF0
3FF8
7878
703C
E01C
E01C
E01C
E01C
E01C
703C
7878
3FF8
1FF0
0FC0
ENDCHAR
STARTCHAR 00F7
ENCODING 247
SWIDTH 510 0
DWIDTH 17 0
BBX 13 14 2 2
BITMAP
0600
0F00
0F00
0600
0000
0000
FFF8
FFF8
0000
0000
0700
0F00
0F00
0700
ENDCHAR
STARTCHAR 00F8
ENCODING 248
SWIDTH 510 0
DWIDTH 17 0
BBX 14 17 1 -1
BITMAP
0008
07DC
1FF8
3FF8
7878
707C
E0DC
E19C
E31C
E71C
EE1C
7C3C
7878
3FF8
7FF0
67C0
4000
ENDCHAR
STARTCHAR 00F9
ENCODING 249
SWIDTH 510 0
DWIDTH 17 0
BBX 12 23 2 0
BITMAP
0400
0C00
0E00
0700
0380
0100
0000
0000
E070
E070
E070
E070
E070
E070
E070
E070
E070
E070
F070
7870
7FF0
3FF0
1FE0
ENDCHAR
STARTCHAR 00FA
ENCODING 250
SWIDTH 510 0
DWIDTH 17 0
BBX 12 23 2 0
BITMAP
0100
0380
0380
0700
0E00
0400
0000
0000
E070
E070
E070
E070
E070
E070
E070
E070
E070
E070
F070
7870
7FF0
3FF0
1FE0
ENDCHAR
STARTCHAR 00FB
ENCODING 251
SWIDTH 510 0
DWIDTH 17 0
BBX 12 23 2 0
BITMAP
0200
0700
0F00
1D80
38C0
1040
0000
0000
E070
E070
E070
E070
E070
E070
E070
E070
E070
E070
F070
7870
7FF0
3FF0
1FE0
ENDCHAR
STARTCHAR 00FC
ENCODING 252
SWIDTH 510 0
DWIDTH 17 0
BBX 12 21 2 0
BITMAP
38C0
39E0
38C0
0000
0000
0000
E070
E070
E070
E070
E070
E070
E070
E070
E070
E070
F070
7870
7FF0
3FF0
1FE0
ENDCHAR
STARTCHAR 00FD
ENCODING 253
SWIDTH 510 0
DWIDTH 17 0
BBX 14 28 1 -5
BITMAP
0080
00C0
01C0
0380
0700
0200
0000
0000
701C
701C
701C
3838
3838
3838
1C30
1C70
0C70
0E60
0EE0
07E0
07C0
03C0
0180
0380
0700
7F00
FE00
F800
ENDCHAR
STARTCHAR 00FE
ENCODING 254
SWIDTH 510 0
DWIDTH 17 0
BBX 13 28 2 -5
BITMAP
E000
E000
E000
E000
E000
E000
E000
E000
EF80
FFE0
FFF0
F0F0
E038
E038
E038
E038
E038
E038
E038
F0F0
FFF0
FFE0
EF80
E000
E000
E000
E000
E000
ENDCHAR
STARTCHAR 00FF
ENCODING 255
SWIDTH 510 0
DWIDTH 17 0
BBX 14 26 1 -5
BITMAP
0C70
1E70
0C70
0000
0000
0000
701C
701C
701C
3838
3838
3838
1C30
1C70
0C70
0E60
0EE0
07E0
07C0
03C0
0180
0380
0700
7F00
FE00
F800
ENDCHAR
STARTCHAR 0100
ENCODING 256
SWIDTH 510 0
DWIDTH 17 0
BBX 16 26 0 0
BITMAP
0FF0
0FF0
0000
0000
0000
0000
03C0
03E0
03E0
0760
0670
0670
0E30
0C38
0C38
1C18
1C1C
181C
381C
3FFC
3FFE
7FFE
700E
7007
7007
E007
ENDCHAR
STARTCHAR 0101
ENCODING 257
SWIDTH 510 0
DWIDTH 17 0
BBX 12 21 2 0
BITMAP
3FE0
3FE0
0000
0000
0000
0000
1F80
3FE0
3FF0
20F0
0070
0030
1FF0
7FF0
F030
E030
E030
F030
FFF0
7FF0
1FF0
ENDCHAR
STARTCHAR 0102
ENCODING 258
SWIDTH 510 0
DWIDTH 17 0
BBX 16 27 0 0
BITMAP
0C30
0630
07E0
03C0
0000
0000
0000
03C0
03E0
03E0
0760
0670
0670
0E30
0C38
0C38
1C18
1C1C
181C
381C
3FFC
3FFE
7FFE
700E
7007
7007
E007
ENDCHAR
STARTCHAR 0103
ENCODING 259
SWIDTH 510 0
DWIDTH 17 0
BBX 12 22 2 0
BITMAP
30C0
18C0
1F80
0F00
0000
0000
0000
1F80
3FE0
3FF0
20F0
0070
0030
1FF0
7FF0
F030
E030
E030
F030
FFF0
7FF0
1FF0
ENDCHAR
STARTCHAR 0104
ENCODING 260
SWIDTH 510 0
DWIDTH 17 0
BBX 16 26 0 -6
BITMAP
03C0
03E0
03E0
0760
0670
0670
0E30
0C38
0C38
1C18
1C1C
181C
381C
3FFC
3FFE
7FFE
700E
7007
7007
E007
0006
000E
001C
001C
001F
000F
ENDCHAR
STARTCHAR 0105
ENCODING 261
SWIDTH 510 0
DWIDTH 17 0
BBX 12 21 2 -6
BITMAP
1F80
3FE0
3FF0
20F0
0070
0030
1FF0
7FF0
F030
E030
E030
F030
FFF0
7FF0
1FF0
00F0
00E0
01C0
01C0
01F0
00F0
ENDCHAR
STARTCHAR 0106
ENCODING 262
SWIDTH 510 0
DWIDTH 17 0
BBX 13 28 2 0
BITMAP
0040
00E0
01C0
0380
0300
0200
0000
0000
07E0
1FF8
3FF8
7C10
7000
E000
E000
E000
C000
C000
C000
C000
E000
E000
E000
7000
7C18
3FF8
1FF8
07E0
ENDCHAR
STARTCHAR 0107
ENCODING 263
SWIDTH 510 0
DWIDTH 17 0
BBX 13 23 2 0
BITMAP
0080
00C0
01C0
0380
0700
0200
0000
0000
07F0
1FF8
7FF0
7810
F000
E000
E000
C000
C000
E000
F000
7818
7FF8
3FF8
0FF0
ENDCHAR
STARTCHAR 0108
ENCODING 264
SWIDTH 510 0
DWIDTH 17 0
BBX 13 28 2 0
BITMAP
0080
0180
03C0
0760
0E70
0420
0000
0000
07E0
1FF8
3FF8
7C10
7000
E000
E000
E000
C000
C000
C000
C000
E000
E000
E000
7000
7C18
3FF8
1FF8
07E0
ENDCHAR
STARTCHAR 0109
ENCODING 265
SWIDTH 510 0
DWIDTH 17 0
BBX 13 23 2 0
BITMAP
0100
0180
03C0
06E0
0C70
0420
0000
0000
07F0
1FF8
7FF0
7810
F000
E000
E000
C000
C000
E000
F000
7818
7FF8
3FF8
0FF0
ENDCHAR
STARTCHAR 010A
ENCODING 266
SWIDTH 510 0
DWIDTH 17 0
BBX 13 27 2 0
BITMAP
0180
03C0
03C0
0180
0000
0000
0000
07E0
1FF8
3FF8
7C10
7000
E000
E000
E000
C000
C000
C000
C000
E000
E000
E000
7000
7C18
3FF8
1FF8
07E0
ENDCHAR
STARTCHAR 010B
ENCODING 267
SWIDTH 510 0
DWIDTH 17 0
BBX 13 22 2 0
BITMAP
0180
03C0
03C0
0180
0000
0000
0000
07F0
1FF8
7FF0
7810
F000
E000
E000
C000
C000
E000
F000
7818
7FF8
3FF8
0FF0
ENDCHAR
STARTCHAR 010C
ENCODING 268
SWIDTH 510 0
DWIDTH 17 0
BBX 13 28 2 0
BITMAP
0420
0E70
0760
03C0
0180
0080
0000
0000
07E0
1FF8
3FF8
7C10
7000
E000
E000
E000
C000
C000
C000
C000
E000
E000
E000
7000
7C18
3FF8
1FF8
07E0
ENDCHAR
STARTCHAR 010D
ENCODING 269
SWIDTH 510 0
DWIDTH 17 0
BBX 13 23 2 0
BITMAP
0420
0C70
06E0
03C0
0180
0100
0000
0000
07F0
1FF8
7FF0
7810
F000
E000
E000
C000
C000
E000
F000
7818
7FF8
3FF8
0FF0
ENDCHAR
STARTCHAR 010E
ENCODING 270
SWIDTH 510 0
DWIDTH 17 0
BBX 13 28 2 0
BITMAP
2100
7180
3B00
1E00
0C00
0400
0000
0000
FE00
FFC0
FFE0
C1F0
C070
C078
C038
C038
C038
C038
C038
C038
C038
C038
C078
C070
C1F0
FFE0
FFC0
FF00
ENDCHAR
STARTCHAR 010F
ENCODING 271
SWIDTH 510 0
DWIDTH 17 0
BBX 15 23 1 0
BITMAP
00E6
00E6
00E6
00E6
00E6
00E6
00E6
00E0
1FE0
3FE0
7FE0
F1E0
E0E0
E0E0
E0E0
C0E0
E0E0
E0E0
E0E0
F0E0
7FE0
3FE0
1FC0
ENDCHAR
STARTCHAR 0110
ENCODING 272
SWIDTH 510 0
DWIDTH 17 0
BBX 14 20 1 0
BITMAP
7F80
7FE0
7FF0
70F8
7038
703C
701C
701C
FE1C
FE1C
FE1C
701C
701C
701C
703C
7038
70F8
7FF0
7FE0
7F80
ENDCHAR
STARTCHAR 0111
ENCODING 273
SWIDTH 510 0
DWIDTH 17 0
BBX 15 23 1 0
BITMAP
0038
0038
0038
0FFE
0FFE
0038
0038
0038
0FB8
1FF8
3FF8
7878
7038
E038
E038
E038
E038
E038
7038
7838
3FF8
1FF8
0FF0
ENDCHAR
STARTCHAR 0112
ENCODING 274
SWIDTH 510 0
DWIDTH 17 0
BBX 12 26 3 0
BITMAP
3FC0
3FC0
0000
0000
0000
0000
FFE0
FFE0
FFE0
E000
E000
E000
E000
E000
FFC0
FFC0
FFC0
E000
E000
E000
E000
E000
E000
FFF0
FFF0
FFF0
ENDCHAR
STARTCHAR 0113
ENCODING 275
SWIDTH 510 0
DWIDTH 17 0
BBX 14 21 1 0
BITMAP
1FF0
1FF0
0000
0000
0000
0000
07C0
1FF0
3FF8
7838
701C
601C
FFFC
FFFC
E000
E000
7000
7C08
3FF8
1FF8
07F0
ENDCHAR
STARTCHAR 0114
ENCODING 276
SWIDTH 510 0
DWIDTH 17 0
BBX 12 27 3 0
BITMAP
30C0
31C0
1F80
0F00
0000
0000
0000
FFE0
FFE0
FFE0
E000
E000
E000
E000
E000
FFC0
FFC0
FFC0
E000
E000
E000
E000
E000
E000
FFF0
FFF0
FFF0
ENDCHAR
STARTCHAR 0115
ENCODING 277
SWIDTH 510 0
DWIDTH 17 0
BBX 14 22 1 0
BITMAP
0C20
0C60
0FE0
07C0
0000
0000
0000
07C0
1FF0
3FF8
7838
701C
601C
FFFC
FFFC
E000
E000
7000
7C08
3FF8
1FF8
07F0
ENDCHAR
STARTCHAR 0116
ENCODING 278
SWIDTH 510 0
DWIDTH 17 0
BBX 12 27 3 0
BITMAP
0600
0F00
0F00
0600
0000
0000
0000
FFE0
FFE0
FFE0
E000
E000
E000
E000
E000
FFC0
FFC0
FFC0
E000
E000
E000
E000
E000
E000
FFF0
FFF0
FFF0
ENDCHAR
STARTCHAR 0117
ENCODING 279
SWIDTH 510 0
DWIDTH 17 0
BBX 14 22 1 0
BITMAP
0380
0380
0380
0380
0000
0000
0000
07C0
1FF0
3FF8
7838
701C
601C
FFFC
FFFC
E000
E000
7000
7C08
3FF8
1FF8
07F0
ENDCHAR
STARTCHAR 0118
ENCODING 280
SWIDTH 510 0
DWIDTH 17 0
BBX 12 26 3 -6
BITMAP
FFE0
FFE0
FFE0
E000
E000
E000
E000
E000
FFC0
FFC0
FFC0
E000
E000
E000
E000
E000
E000
FFF0
FFF0
FFF0
0060
00C0
01C0
01C0
01F0
00F0
ENDCHAR
STARTCHAR 0119
ENCODING 281
SWIDTH 510 0
DWIDTH 17 0
BBX 14 21 1 -6
BITMAP
07C0
1FF0
3FF8
7838
701C
601C
FFFC
FFFC
E000
E000
7000
7C08
3FF8
1FF8
07F0
0060
00E0
00C0
01C0
00F8
00F8
ENDCHAR
STARTCHAR 011A
ENCODING 282
SWIDTH 510 0
DWIDTH 17 0
BBX 12 28 3 0
BITMAP
1080
38C0
1D80
0F00
0600
0200
0000
0000
FFE0
FFE0
FFE0
E000
E000
E000
E000
E000
FFC0
FFC0
FFC0
E000
E000
E000
E000
E000
E000
FFF0
FFF0
FFF0
ENDCHAR
STARTCHAR 011B
ENCODING 283
SWIDTH 510 0
DWIDTH 17 0
BBX 14 23 1 0
BITMAP
0820
0C60
0EE0
07C0
0380
0100
0000
0000
07C0
1FF0
3FF8
7838
701C
601C
FFFC
FFFC
E000
E000
7000
7C08
3FF8
1FF8
07F0
ENDCHAR
STARTCHAR 011C
ENCODING 284
SWIDTH 510 0
DWIDTH 17 0
BBX 13 28 2 0
BITMAP
0100
0380
03C0
06E0
0C70
0820
0000
0000
07E0
1FF8
3FF8
7C10
7000
E000
E000
E000
C000
C000
C038
C038
E038
E038
E038
7038
7C38
3FF8
1FF8
07F0
ENDCHAR
STARTCHAR 011D
ENCODING 285
SWIDTH 510 0
DWIDTH 17 0
BBX 13 28 1 -5
BITMAP
0100
0380
0780
0EC0
1C60
0820
0000
0000
0FF0
1FF8
3FF8
7838
7038
E038
E038
E038
E038
7038
7838
7FF8
3FF8
0FF8
0038
0038
2078
7FF0
7FE0
3F80
ENDCHAR
STARTCHAR 011E
ENCODING 286
SWIDTH 510 0
DWIDTH 17 0
BBX 13 27 2 0
BITMAP
0C30
0E70
07E0
03C0
0000
0000
0000
07E0
1FF8
3FF8
7C10
7000
E000
E000
E000
C000
C000
C038
C038
E038
E038
E038
7038
7C38
3FF8
1FF8
07F0
ENDCHAR
STARTCHAR 011F
ENCODING 287
SWIDTH 510 0
DWIDTH 17 0
BBX 13 27 1 -5
BITMAP
1860
0C60
0FC0
0780
0000
0000
0000
0FF0
1FF8
3FF8
7838
7038
E038
E038
E038
E038
7038
7838
7FF8
3FF8
0FF8
0038
0038
2078
7FF0
7FE0
3F80
ENDCHAR
STARTCHAR 0120
ENCODING 288
SWIDTH 510 0
DWIDTH 17 0
BBX 13 27 2 0
BITMAP
0380
03C0
03C0
0380
0000
0000
0000
07E0
1FF8
3FF8
7C10
7000
E000
E000
E000
C000
C000
C038
C038
E038
E038
E038
7038
7C38
3FF8
1FF8
07F0
ENDCHAR
STARTCHAR 0121
ENCODING 289
SWIDTH 510 0
DWIDTH 17 0
BBX 13 27 1 -5
BITMAP
0380
0780
0780
0380
0000
0000
0000
0FF0
1FF8
3FF8
7838
7038
E038
E038
E038
E038
7038
7838
7FF8
3FF8
0FF8
0038
0038
2078
7FF0
7FE0
3F80
ENDCHAR
STARTCHAR 0122
ENCODING 290
SWIDTH 510 0
DWIDTH 17 0
BBX 13 25 2 -5
BITMAP
07E0
1FF8
3FF8
7C10
7000
E000
E000
E000
C000
C000
C038
C038
E038
E038
E038
7038
7C38
3FF8
1FF8
07F0
0000
0380
0380
0F80
0F00
ENDCHAR
STARTCHAR 0123
ENCODING 291
SWIDTH 510 0
DWIDTH 17 0
BBX 13 28 1 -5
BITMAP
00C0
01C0
0380
0380
0300
0000
0000
0000
0FF0
1FF8
3FF8
7838
7038
E038
E038
E038
E038
7038
7838
7FF8
3FF8
0FF8
0038
0038
2078
7FF0
7FE0
3F80
ENDCHAR
STARTCHAR 0124
ENCODING 292
SWIDTH 510 0
DWIDTH 17 0
BBX 14 28 1 0
BITMAP
0100
0380
0780
0EC0
1C60
0820
0000
0000
E01C
E01C
E01C
E01C
E01C
E01C
E01C
E01C
FFFC
FFFC
FFFC
E01C
E01C
E01C
E01C
E01C
E01C
E01C
E01C
E01C
ENDCHAR
STARTCHAR 0125
ENCODING 293
SWIDTH 510 0
DWIDTH 17 0
BBX 12 28 2 0
BITMAP
3000
7800
FC00
8400
0000
E000
E000
E000
E000
E000
E000
E000
E000
FF80
FFE0
FFE0
E0F0
E070
E070
E070
E030
E030
E030
E030
E030
E030
E030
E030
ENDCHAR
STARTCHAR 0126
ENCODING 294
SWIDTH 510 0
DWIDTH 17 0
BBX 15 20 1 0
BITMAP
7038
7038
7038
FFFE
FFFE
7038
7038
7038
7FF8
7FF8
7FF8
7038
7038
7038
7038
7038
7038
7038
7038
7038
ENDCHAR
STARTCHAR 0127
ENCODING 295
SWIDTH 510 0
DWIDTH 17 0
BBX 13 23 1 0
BITMAP
3800
3800
3800
FFC0
FFC0
3800
3800
3800
3FC0
3FF0
3FF0
3878
3838
3838
3838
3818
3818
3818
3818
3818
3818
3818
3818
ENDCHAR
STARTCHAR 0128
ENCODING 296
SWIDTH 510 0
DWIDTH 17 0
BBX 11 26 3 0
BITMAP
38C0
7F80
6700
0000
0000
0000
FFE0
FFE0
FFE0
0E00
0E00
0E00
0E00
0E00
0E00
0E00
0E00
0E00
0E00
0E00
0E00
0E00
0E00
FFE0
FFE0
FFE0
ENDCHAR
STARTCHAR 0129
ENCODING 297
SWIDTH 510 0
DWIDTH 17 0
BBX 13 21 2 0
BITMAP
3880
7F80
4700
0000
0000
0000
FE00
FE00
FE00
0E00
0E00
0E00
0E00
0E00
0E00
0E00
0E00
0F00
07F8
07F8
03F0
ENDCHAR
STARTCHAR 012A
ENCODING 298
SWIDTH 510 0
DWIDTH 17 0
BBX 11 26 3 0
BITMAP
7F80
7F80
0000
0000
0000
0000
FFE0
FFE0
FFE0
0E00
0E00
0E00
0E00
0E00
0E00
0E00
0E00
0E00
0E00
0E00
0E00
0E00
0E00
FFE0
FFE0
FFE0
ENDCHAR
STARTCHAR 012B
ENCODING 299
SWIDTH 510 0
DWIDTH 17 0
BBX 13 21 2 0
BITMAP
7F80
7F80
0000
0000
0000
0000
FE00
FE00
FE00
0E00
0E00
0E00
0E00
0E00
0E00
0E00
0E00
0F00
07F8
07F8
03F0
ENDCHAR
STARTCHAR 012C
ENCODING 300
SWIDTH 510 0
DWIDTH 17 0
BBX 11 27 3 0
BITMAP
6180
3180
3F00
1E00
0000
0000
0000
FFE0
FFE0
FFE0
0E00
0E00
0E00
0E00
0E00
0E00
0E00
0E00
0E00
0E00
0E00
0E00
0E00
0E00
FFE0
FFE0
FFE0
ENDCHAR
STARTCHAR 012D
ENCODING 301
SWIDTH 510 0
DWIDTH 17 0
BBX 13 22 2 0
BITMAP
6180
7180
3F00
1E00
0000
0000
0000
FE00
FE00
FE00
0E00
0E00
0E00
0E00
0E00
0E00
0E00
0E00
0F00
07F8
07F8
03F0
ENDCHAR
STARTCHAR 012E
ENCODING 302
SWIDTH 510 0
DWIDTH 17 0
BBX 11 26 3 -6
BITMAP
FFE0
FFE0
FFE0
0E00
0E00
0E00
0E00
0E00
0E00
0E00
0E00
0E00
0E00
0E00
0E00
0E00
0E00
FFE0
FFE0
FFE0
1C00
1800
3800
3000
3E00
1E00
ENDCHAR
STARTCHAR 012F
ENCODING 303
SWIDTH 510 0
DWIDTH 17 0
BBX 13 27 2 -6
BITMAP
1C00
1E00
1E00
1C00
0000
0000
FE00
FE00
FE00
0E00
0E00
0E00
0E00
0E00
0E00
0E00
0E00
0F00
07F8
07F8
03F0
0060
00E0
01C0
01C0
00F0
00F8
ENDCHAR
STARTCHAR 0130
ENCODING 304
SWIDTH 510 0
DWIDTH 17 0
BBX 11 27 3 0
BITMAP
0E00
1E00
1E00
0E00
0000
0000
0000
FFE0
FFE0
FFE0
0E00
0E00
0E00
0E00
0E00
0E00
0E00
0E00
0E00
0E00
0E00
0E00
0E00
0E00
FFE0
FFE0
FFE0
ENDCHAR
STARTCHAR 0131
ENCODING 305
SWIDTH 510 0
DWIDTH 17 0
BBX 13 15 2 0
BITMAP
FE00
FE00
FE00
0E00
0E00
0E00
0E00
0E00
0E00
0E00
0E00
0F00
07F8
07F8
03F0
ENDCHAR
STARTCHAR 0132
ENCODING 306
SWIDTH 510 0
DWIDTH 17 0
BBX 15 20 1 0
BITMAP
E00E
E00E
E00E
E00E
E00E
E00E
E00E
E00E
E00E
E00E
E00E
E00E
E00E
E00E
E00E
E00C
E61C
E7FC
E7F8
E1F0
ENDCHAR
STARTCHAR 0133
ENCODING 307
SWIDTH 510 0
DWIDTH 17 0
BBX 11 27 3 -5
BITMAP
61C0
F1E0
F1E0
61C0
0000
0000
0000
61C0
61C0
61C0
61C0
61C0
61C0
61C0
61C0
61C0
61C0
61C0
61C0
61C0
61C0
61C0
01C0
03C0
1F80
1F80
1E00
ENDCHAR
STARTCHAR 0134
ENCODING 308
SWIDTH 510 0
DWIDTH 17 0
BBX 12 28 2 0
BITMAP
0100
0180
03C0
06E0
0C70
0420
0000
0000
3FF0
3FF0
3FF0
0070
0070
0070
0070
0070
0070
0070
0070
0070
0070
0070
0070
4070
E1E0
FFE0
FFC0
3F00
ENDCHAR
STARTCHAR 0135
ENCODING 309
SWIDTH 510 0
DWIDTH 17 0
BBX 11 28 2 -5
BITMAP
0200
0300
0780
0DC0
18E0
0840
0000
0000
3FE0
3FE0
3FE0
00E0
00E0
00E0
00E0
00E0
00E0
00E0
00E0
00E0
00E0
00E0
00E0
00E0
41C0
7FC0
FF80
3F00
ENDCHAR
STARTCHAR 0136
ENCODING 310
SWIDTH 510 0
DWIDTH 17 0
BBX 14 25 2 -5
BITMAP
E038
E070
E0F0
E0E0
E1C0
E380
E700
EF00
FE00
FC00
FE00
EF00
E780
E3C0
E1E0
E0F0
E070
E038
E038
E01C
0000
0700
0700
1F00
1E00
ENDCHAR
STARTCHAR 0137
ENCODING 311
SWIDTH 510 0
DWIDTH 17 0
BBX 13 28 2 -5
BITMAP
E000
E000
E000
E000
E000
E000
E000
E000
E038
E070
E1E0
E3C0
E780
EF00
FC00
FC00
EF00
E780
E1C0
E0E0
E070
E078
E038
0000
0700
0700
1F00
1E00
ENDCHAR
STARTCHAR 0138
ENCODING 312
SWIDTH 510 0
DWIDTH 17 0
BBX 13 15 2 0
BITMAP
E038
E070
E1E0
E3C0
E780
EF00
FC00
FC00
EF00
E780
E1C0
E0E0
E070
E078
E038
ENDCHAR
STARTCHAR 0139
ENCODING 313
SWIDTH 510 0
DWIDTH 17 0
BBX 12 28 3 0
BITMAP
0800
1C00
3800
3000
6000
4000
0000
0000
E000
E000
E000
E000
E000
E000
E000
E000
E000
E000
E000
E000
E000
E000
E000
E000
E000
FFF0
FFF0
FFF0
ENDCHAR
STARTCHAR 013A
ENCODING 314
SWIDTH 510 0
DWIDTH 17 0
BBX 13 28 2 0
BITMAP
0100
0F80
1E00
0800
0000
FE00
FE00
FE00
0E00
0E00
0E00
0E00
0E00
0E00
0E00
0E00
0E00
0E00
0E00
0E00
0E00
0E00
0E00
0E00
0F08
07F8
07F8
01F0
ENDCHAR
STARTCHAR 013B
ENCODING 315
SWIDTH 510 0
DWIDTH 17 0
BBX 12 25 3 -5
BITMAP
E000
E000
E000
E000
E000
E000
E000
E000
E000
E000
E000
E000
E000
E000
E000
E000
E000
FFF0
FFF0
FFF0
0000
0700
0600
1E00
1C00
ENDCHAR
STARTCHAR 013C
ENCODING 316
SWIDTH 510 0
DWIDTH 17 0
BBX 13 28 2 -5
BITMAP
FE00
FE00
FE00
0E00
0E00
0E00
0E00
0E00
0E00
0E00
0E00
0E00
0E00
0E00
0E00
0E00
0E00
0E00
0E00
0F08
07F8
07F8
01F0
0000
00C0
01C0
07C0
0780
ENDCHAR
STARTCHAR 013D
ENCODING 317
SWIDTH 510 0
DWIDTH 17 0
BBX 12 21 3 0
BITMAP
0700
E700
E700
E700
E600
E600
E600
E000
E000
E000
E000
E000
E000
E000
E000
E000
E000
E000
FFF0
FFF0
FFF0
ENDCHAR
STARTCHAR 013E
ENCODING 318
SWIDTH 510 0
DWIDTH 17 0
BBX 13 23 2 0
BITMAP
FE70
FE70
FE70
0E60
0E60
0E60
0E60
0E00
0E00
0E00
0E00
0E00
0E00
0E00
0E00
0E00
0E00
0E00
0E00
0F08
07F8
07F8
01F0
ENDCHAR
STARTCHAR 013F
ENCODING 319
SWIDTH 510 0
DWIDTH 17 0
BBX 12 20 3 0
BITMAP
E000
E000
E000
E000
E000
E000
E000
E0C0
E1E0
E1E0
E0C0
E000
E000
E000
E000
E000
E000
FFF0
FFF0
FFF0
ENDCHAR
STARTCHAR 0140
ENCODING 320
SWIDTH 510 0
DWIDTH 17 0
BBX 16 23 2 0
BITMAP
FE00
FE00
FE00
0E00
0E00
0E00
0E00
0E00
0E00
0E00
0E0E
0E0F
0E0F
0E0E
0E00
0E00
0E00
0E00
0E00
0F08
07F8
07F8
01F0
ENDCHAR
STARTCHAR 0141
ENCODING 321
SWIDTH 510 0
DWIDTH 17 0
BBX 14 20 1 0
BITMAP
1800
1800
1800
1800
1800
1800
1880
1FC0
1F80
7C00
F800
D800
1800
1800
1800
1800
1800
1FFC
1FFC
1FFC
ENDCHAR
STARTCHAR 0142
ENCODING 322
SWIDTH 510 0
DWIDTH 17 0
BBX 13 23 2 0
BITMAP
FE00
FE00
FE00
0E00
0E00
0E00
0E00
0EC0
0FC0
0F80
3E00
7E00
2E00
0E00
0E00
0E00
0E00
0E00
0E00
0F00
07F8
07F8
01F0
ENDCHAR
STARTCHAR 0143
ENCODING 323
SWIDTH 510 0
DWIDTH 17 0
BBX 13 28 2 0
BITMAP
0100
0380
0380
0700
0E00
0400
0000
0000
E038
E038
F038
F838
F838
DC38
CC38
CE38
C638
C738
C338
C3B8
C1B8
C1B8
C1F8
C0F8
C0F8
C078
C078
C038
ENDCHAR
STARTCHAR 0144
ENCODING 324
SWIDTH 510 0
DWIDTH 17 0
BBX 12 23 2 0
BITMAP
0100
0380
0380
0700
0E00
0400
0000
0000
7F80
FFE0
FFE0
E0F0
E070
E070
E070
E030
E030
E030
E030
E030
E030
E030
E030
ENDCHAR
STARTCHAR 0145
ENCODING 325
SWIDTH 510 0
DWIDTH 17 0
BBX 13 25 2 -5
BITMAP
E038
E038
F038
F838
F838
DC38
CC38
CE38
C638
C738
C338
C3B8
C1B8
C1B8
C1F8
C0F8
C0F8
C078
C078
C038
0000
0300
0700
1F00
1E00
ENDCHAR
STARTCHAR 0146
ENCODING 326
SWIDTH 510 0
DWIDTH 17 0
BBX 12 20 2 -5
BITMAP
7F80
FFE0
FFE0
E0F0
E070
E070
E070
E030
E030
E030
E030
E030
E030
E030
E030
0000
0700
0700
1F00
1E00
ENDCHAR
STARTCHAR 0147
ENCODING 327
SWIDTH 510 0
DWIDTH 17 0
BBX 13 28 2 0
BITMAP
1040
38C0
1D80
0F00
0700
0200
0000
0000
E038
E038
F038
F838
F838
DC38
CC38
CE38
C638
C738
C338
C3B8
C1B8
C1B8
C1F8
C0F8
C0F8
C078
C078
C038
ENDCHAR
STARTCHAR 0148
ENCODING 328
SWIDTH 510 0
DWIDTH 17 0
BBX 12 23 2 0
BITMAP
1040
38C0
1D80
0F00
0700
0200
0000
0000
7F80
FFE0
FFE0
E0F0
E070
E070
E070
E030
E030
E030
E030
E030
E030
E030
E030
ENDCHAR
STARTCHAR 0149
ENCODING 329
SWIDTH 510 0
DWIDTH 17 0
BBX 13 23 1 0
BITMAP
E000
E000
E000
C000
C000
8000
0000
0000
3FC0
7FF0
7FF0
7078
7038
7038
7038
7018
7018
7018
7018
7018
7018
7018
7018
ENDCHAR
STARTCHAR 014A
ENCODING 330
SWIDTH 510 0
DWIDTH 17 0
BBX 13 26 2 -6
BITMAP
E038
E038
F038
F838
F838
DC38
CC38
CE38
C638
C738
C338
C1B8
C1B8
C0F8
C0F8
C078
C078
C038
C038
C038
0038
0038
0038
01F0
01F0
01E0
ENDCHAR
STARTCHAR 014B
ENCODING 331
SWIDTH 510 0
DWIDTH 17 0
BBX 12 20 2 -5
BITMAP
7F80
FFE0
FFE0
E0F0
E070
E070
E070
E030
E030
E030
E030
E030
E030
E030
E030
0030
0070
0070
03F0
03C0
ENDCHAR
STARTCHAR 014C
ENCODING 332
SWIDTH 510 0
DWIDTH 17 0
BBX 15 26 1 0
BITMAP
1FE0
1FE0
0000
0000
0000
0000
07C0
1FF0
3FF8
7878
703C
F01C
E01C
E00C
E00E
E00E
E00E
E00E
E00C
E01C
E01C
703C
7878
3FF8
1FF0
07C0
ENDCHAR
STARTCHAR 014D
ENCODING 333
SWIDTH 510 0
DWIDTH 17 0
BBX 14 21 1 0
BITMAP
1FE0
1FE0
0000
0000
0000
0000
07C0
1FF0
3FF8
7878
703C
E01C
E01C
E01C
E01C
E01C
703C
7878
3FF8
1FF0
0FC0
ENDCHAR
STARTCHAR 014E
ENCODING 334
SWIDTH 510 0
DWIDTH 17 0
BBX 15 27 1 0
BITMAP
1860
0C60
0FC0
0780
0000
0000
0000
07C0
1FF0
3FF8
7878
703C
F01C
E01C
E00C
E00E
E00E
E00E
E00E
E00C
E01C
E01C
703C
7878
3FF8
1FF0
07C0
ENDCHAR
STARTCHAR 014F
ENCODING 335
SWIDTH 510 0
DWIDTH 17 0
BBX 14 22 1 0
BITMAP
1860
0C60
0FC0
0780
0000
0000
0000
07C0
1FF0
3FF8
7878
703C
E01C
E01C
E01C
E01C
E01C
703C
7878
3FF8
1FF0
0FC0
ENDCHAR
STARTCHAR 0150
ENCODING 336
SWIDTH 510 0
DWIDTH 17 0
BBX 15 28 1 0
BITMAP
0210
0318
0738
0E70
0C60
0840
0000
0000
07C0
1FF0
3FF8
7878
703C
F01C
E01C
E00C
E00E
E00E
E00E
E00E
E00C
E01C
E01C
703C
7878
3FF8
1FF0
07C0
ENDCHAR
STARTCHAR 0151
ENCODING 337
SWIDTH 510 0
DWIDTH 17 0
BBX 14 23 1 0
BITMAP
0210
0318
0738
0E70
0C60
0840
0000
0000
07C0
1FF0
3FF8
7878
703C
E01C
E01C
E01C
E01C
E01C
703C
7878
3FF8
1FF0
0FC0
ENDCHAR
STARTCHAR 0152
ENCODING 338
SWIDTH 510 0
DWIDTH 17 0
BBX 15 20 1 0
BITMAP
0FFC
1FFC
3FFC
78C0
70C0
E0C0
E0C0
E0C0
E0FC
E0FC
E0FC
E0C0
E0C0
E0C0
E0C0
70C0
78C0
7FFE
3FFE
0FFE
ENDCHAR
STARTCHAR 0153
ENCODING 339
SWIDTH 510 0
DWIDTH 17 0
BBX 15 15 1 0
BITMAP
3C78
7E7C
7EFC
67CC
E38E
E38E
E3FE
E3FE
E380
E380
E380
77C4
7EFC
3E7C
1C3C
ENDCHAR
STARTCHAR 0154
ENCODING 340
SWIDTH 510 0
DWIDTH 17 0
BBX 13 28 2 0
BITMAP
0100
0380
0700
0600
0C00
0C00
0000
0000
FF00
FFC0
FFE0
E0F0
E070
E070
E070
E070
E070
E0F0
FFE0
FFC0
FF80
E380
E1C0
E0E0
E0E0
E070
E030
E038
ENDCHAR
STARTCHAR 0155
ENCODING 341
SWIDTH 510 0
DWIDTH 17 0
BBX 10 23 4 0
BITMAP
0200
0300
0700
0E00
1C00
0800
0000
0000
3FC0
FFC0
FFC0
C000
C000
C000
C000
C000
C000
C000
C000
C000
C000
C000
C000
ENDCHAR
STARTCHAR 0156
ENCODING 342
SWIDTH 510 0
DWIDTH 17 0
BBX 13 25 2 -5
BITMAP
FF00
FFC0
FFE0
E0F0
E070
E070
E070
E070
E070
E0F0
FFE0
FFC0
FF80
E380
E1C0
E0E0
E0E0
E070
E030
E038
0000
0600
0E00
3E00
3C00
ENDCHAR
STARTCHAR 0157
ENCODING 343
SWIDTH 510 0
DWIDTH 17 0
BBX 13 20 1 -5
BITMAP
07F8
1FF8
1FF8
1800
1800
1800
1800
1800
1800
1800
1800
1800
1800
1800
1800
0000
1800
3800
F800
F000
ENDCHAR
STARTCHAR 0158
ENCODING 344
SWIDTH 510 0
DWIDTH 17 0
BBX 13 28 2 0
BITMAP
2080
7180
3B00
1F00
0E00
0400
0000
0000
FF00
FFC0
FFE0
E0F0
E070
E070
E070
E070
E070
E0F0
FFE0
FFC0
FF80
E380
E1C0
E0E0
E0E0
E070
E030
E038
ENDCHAR
STARTCHAR 0159
ENCODING 345
SWIDTH 510 0
DWIDTH 17 0
BBX 10 23 4 0
BITMAP
2080
3180
3B80
1F00
0E00
0400
0000
0000
3FC0
FFC0
FFC0
C000
C000
C000
C000
C000
C000
C000
C000
C000
C000
C000
C000
ENDCHAR
STARTCHAR 015A
ENCODING 346
SWIDTH 510 0
DWIDTH 17 0
BBX 13 28 2 0
BITMAP
0080
01C0
0380
0700
0E00
0400
0000
0000
0FC0
3FF0
7FF0
7020
E000
E000
E000
7800
7E00
3FC0
0FE0
01F0
0070
0038
0038
0038
C070
FFF0
FFE0
3F80
ENDCHAR
STARTCHAR 015B
ENCODING 347
SWIDTH 510 0
DWIDTH 17 0
BBX 12 23 2 0
BITMAP
0100
0380
0380
0700
0E00
0400
0000
0000
1FE0
3FE0
7FE0
7020
E000
7800
7F00
3FC0
07F0
00F0
0070
4070
FFF0
FFE0
3FC0
ENDCHAR
STARTCHAR 015C
ENCODING 348
SWIDTH 510 0
DWIDTH 17 0
BBX 13 28 2 0
BITMAP
0200
0700
0F80
0DC0
18C0
1040
0000
0000
0FC0
3FF0
7FF0
7020
E000
E000
E000
7800
7E00
3FC0
0FE0
01F0
0070
0038
0038
0038
C070
FFF0
FFE0
3F80
ENDCHAR
STARTCHAR 015D
ENCODING 349
SWIDTH 510 0
DWIDTH 17 0
BBX 12 23 2 0
BITMAP
0200
0700
0F80
0DC0
18C0
1040
0000
0000
1FE0
3FE0
7FE0
7020
E000
7800
7F00
3FC0
07F0
00F0
0070
4070
FFF0
FFE0
3FC0
ENDCHAR
STARTCHAR 015E
ENCODING 350
SWIDTH 510 0
DWIDTH 17 0
BBX 13 26 2 -6
BITMAP
0FC0
3FF0
7FF0
7020
E000
E000
E000
7800
7E00
3F80
0FE0
01F0
0070
0038
0038
0038
C070
FFF0
FFE0
3FC0
0600
0600
0700
0300
1F00
1E00
ENDCHAR
STARTCHAR 015F
ENCODING 351
SWIDTH 510 0
DWIDTH 17 0
BBX 12 21 2 -6
BITMAP
1FE0
3FE0
7FE0
7020
E000
7800
7F00
3FC0
07F0
00F0
0070
6070
FFF0
FFE0
3F80
0700
0F00
0700
0300
1F00
1E00
ENDCHAR
STARTCHAR 0160
ENCODING 352
SWIDTH 510 0
DWIDTH 17 0
BBX 13 28 2 0
BITMAP
1040
18E0
0DC0
0780
0300
0200
0000
0000
0FC0
3FF0
7FF0
7020
E000
E000
E000
7800
7E00
3FC0
0FE0
01F0
0070
0038
0038
0038
C070
FFF0
FFE0
3F80
ENDCHAR
STARTCHAR 0161
ENCODING 353
SWIDTH 510 0
DWIDTH 17 0
BBX 12 23 2 0
BITMAP
1040
18E0
0DC0
0F80
0700
0200
0000
0000
1FE0
3FE0
7FE0
7020
E000
7800
7F00
3FC0
07F0
00F0
0070
4070
FFF0
FFE0
3FC0
ENDCHAR
STARTCHAR 0162
ENCODING 354
SWIDTH 510 0
DWIDTH 17 0
BBX 14 26 1 -6
BITMAP
FFFC
FFFC
FFFC
0380
0380
0380
0380
0380
0380
0380
0380
0380
0380
0380
0380
0380
0380
0380
0380
0380
0300
0300
0380
0180
0F80
0F00
ENDCHAR
STARTCHAR 0163
ENCODING 355
SWIDTH 510 0
DWIDTH 17 0
BBX 13 26 2 -6
BITMAP
1C00
1C00
1C00
1C00
1C00
FFF0
FFF0
FFF0
1C00
1C00
1C00
1C00
1C00
1C00
1C00
1C00
1E00
0FF8
0FF8
03F0
0180
01C0
00C0
00C0
07C0
0780
ENDCHAR
STARTCHAR 0164
ENCODING 356
SWIDTH 510 0
DWIDTH 17 0
BBX 14 28 1 0
BITMAP
0820
1C60
0EC0
0780
0380
0100
0000
0000
FFFC
FFFC
FFFC
0380
0380
0380
0380
0380
0380
0380
0380
0380
0380
0380
0380
0380
0380
0380
0380
0380
ENDCHAR
STARTCHAR 0165
ENCODING 357
SWIDTH 510 0
DWIDTH 17 0
BBX 13 23 2 0
BITMAP
00E0
00E0
00E0
1CE0
1CC0
1CC0
1C00
1C00
FFF0
FFF0
FFF0
1C00
1C00
1C00
1C00
1C00
1C00
1C00
1C00
1E08
0FF8
0FF8
03F0
ENDCHAR
STARTCHAR 0166
ENCODING 358
SWIDTH 510 0
DWIDTH 17 0
BBX 14 20 1 0
BITMAP
FFFC
FFFC
FFFC
0380
0380
0380
0380
0380
0380
3FF8
3FF8
3FF8
0380
0380
0380
0380
0380
0380
0380
0380
ENDCHAR
STARTCHAR 0167
ENCODING 359
SWIDTH 510 0
DWIDTH 17 0
BBX 13 20 2 0
BITMAP
1C00
1C00
1C00
1C00
1C00
FFF0
FFF0
FFF0
1C00
1C00
1C00
FFF0
FFF0
1C00
1C00
1C00
0E08
0FF8
0FF8
03F0
ENDCHAR
STARTCHAR 0168
ENCODING 360
SWIDTH 510 0
DWIDTH 17 0
BBX 13 26 2 0
BITMAP
1C60
3FC0
3380
0000
0000
0000
C038
C038
C038
C038
C038
C038
C038
C038
C038
C038
C038
C038
C038
C038
E038
E078
F0F0
7FF0
3FE0
1F80
ENDCHAR
STARTCHAR 0169
ENCODING 361
SWIDTH 510 0
DWIDTH 17 0
BBX 12 21 2 0
BITMAP
1C60
3FC0
3380
0000
0000
0000
E070
E070
E070
E070
E070
E070
E070
E070
E070
E070
F070
7870
7FF0
3FF0
1FE0
ENDCHAR
STARTCHAR 016A
ENCODING 362
SWIDTH 510 0
DWIDTH 17 0
BBX 13 26 2 0
BITMAP
3FC0
3FC0
0000
0000
0000
0000
C038
C038
C038
C038
C038
C038
C038
C038
C038
C038
C038
C038
C038
C038
E038
E078
F0F0
7FF0
3FE0
1F80
ENDCHAR
STARTCHAR 016B
ENCODING 363
SWIDTH 510 0
DWIDTH 17 0
BBX 12 21 2 0
BITMAP
3FC0
3FC0
0000
0000
0000
0000
E070
E070
E070
E070
E070
E070
E070
E070
E070
E070
F070
7870
7FF0
3FF0
1FE0
ENDCHAR
STARTCHAR 016C
ENCODING 364
SWIDTH 510 0
DWIDTH 17 0
BBX 13 27 2 0
BITMAP
30C0
18C0
1F80
0F00
0000
0000
0000
C038
C038
C038
C038
C038
C038
C038
C038
C038
C038
C038
C038
C038
C038
E038
E078
F0F0
7FF0
3FE0
1F80
ENDCHAR
STARTCHAR 016D
ENCODING 365
SWIDTH 510 0
DWIDTH 17 0
BBX 12 22 2 0
BITMAP
30C0
18C0
1F80
0F00
0000
0000
0000
E070
E070
E070
E070
E070
E070
E070
E070
E070
E070
F070
7870
7FF0
3FF0
1FE0
ENDCHAR
STARTCHAR 016E
ENCODING 366
SWIDTH 510 0
DWIDTH 17 0
BBX 13 26 2 0
BITMAP
0F00
1980
1880
1980
0F00
0000
C038
C038
C038
C038
C038
C038
C038
C038
C038
C038
C038
C038
C038
C038
E038
E078
F0F0
7FF0
3FE0
1F80
ENDCHAR
STARTCHAR 016F
ENCODING 367
SWIDTH 510 0
DWIDTH 17 0
BBX 12 22 2 0
BITMAP
0F00
1980
1880
1980
0F00
0000
0000
E070
E070
E070
E070
E070
E070
E070
E070
E070
E070
F070
7870
7FF0
3FF0
1FE0
ENDCHAR
STARTCHAR 0170
ENCODING 368
SWIDTH 510 0
DWIDTH 17 0
BBX 13 28 2 0
BITMAP
0420
0670
0E60
1CE0
39C0
1080
0000
0000
C038
C038
C038
C038
C038
C038
C038
C038
C038
C038
C038
C038
C038
C038
E038
E078
F0F0
7FF0
3FE0
1F80
ENDCHAR
STARTCHAR 0171
ENCODING 369
SWIDTH 510 0
DWIDTH 17 0
BBX 12 23 2 0
BITMAP
0420
0670
0E60
1CE0
39C0
1080
0000
0000
E070
E070
E070
E070
E070
E070
E070
E070
E070
E070
F070
7870
7FF0
3FF0
1FE0
ENDCHAR
STARTCHAR 0172
ENCODING 370
SWIDTH 510 0
DWIDTH 17 0
BBX 13 26 2 -6
BITMAP
C038
C038
C038
C038
C038
C038
C038
C038
C038
C038
C038
C038
C038
C038
E038
E078
F0F0
7FF0
7FE0
1F80
0300
0700
0600
0600
07C0
03C0
ENDCHAR
STARTCHAR 0173
ENCODING 371
SWIDTH 510 0
DWIDTH 17 0
BBX 12 21 2 -6
BITMAP
E070
E070
E070
E070
E070
E070
E070
E070
E070
E070
F070
7870
7FF0
3FF0
1FF0
00E0
00C0
01C0
01C0
01F0
00F0
ENDCHAR
STARTCHAR 0174
ENCODING 372
SWIDTH 510 0
DWIDTH 17 0
BBX 14 28 1 0
BITMAP
0100
0380
0780
0EC0
1C60
0820
0000
0000
E00C
E00C
E00C
E00C
E00C
E00C
E00C
E00C
E38C
678C
678C
66CC
6ECC
6CDC
6C7C
7C78
7878
7838
7838
7038
ENDCHAR
STARTCHAR 0175
ENCODING 373
SWIDTH 510 0
DWIDTH 17 0
BBX 15 23 1 0
BITMAP
0100
0300
0780
0EC0
1C60
0820
0000
0000
C00E
C00E
C00E
E00C
E38C
E38C
E78C
67DC
67DC
6EDC
6CF8
7C78
7878
3838
3030
ENDCHAR
STARTCHAR 0176
ENCODING 374
SWIDTH 510 0
DWIDTH 17 0
BBX 15 28 1 0
BITMAP
0100
0380
0780
0EC0
1C60
0820
0000
0000
E00E
E00C
E01C
701C
7038
3838
3870
1C70
1EE0
0FC0
07C0
0780
0380
0380
0380
0380
0380
0380
0380
0380
ENDCHAR
STARTCHAR 0177
ENCODING 375
SWIDTH 510 0
DWIDTH 17 0
BBX 14 28 1 -5
BITMAP
0100
0380
0780
0EC0
1C60
0820
0000
0000
701C
701C
701C
3838
3838
3838
1C30
1C70
0C70
0E60
0EE0
07E0
07C0
03C0
0180
0380
0700
7F00
FE00
F800
ENDCHAR
STARTCHAR 0178
ENCODING 376
SWIDTH 510 0
DWIDTH 17 0
BBX 15 26 1 0
BITMAP
1C60
1CF0
1C60
0000
0000
0000
E00E
E00C
E01C
701C
7038
3838
3870
1C70
1EE0
0FC0
07C0
0780
0380
0380
0380
0380
0380
0380
0380
0380
ENDCHAR
STARTCHAR 0179
ENCODING 377
SWIDTH 510 0
DWIDTH 17 0
BBX 13 28 2 0
BITMAP
0100
0380
0380
0700
0E00
0400
0000
0000
FFF8
FFF8
FFF8
0070
00E0
00E0
01C0
0380
0300
0700
0E00
1C00
1C00
3800
3000
7000
E000
FFF8
FFF8
FFF8
ENDCHAR
STARTCHAR 017A
ENCODING 378
SWIDTH 510 0
DWIDTH 17 0
BBX 12 23 2 0
BITMAP
0100
0380
0380
0700
0E00
0400
0000
0000
7FF0
7FF0
7FF0
00E0
01C0
0380
0700
0E00
1C00
1C00
3800
7000
FFF0
FFF0
FFF0
ENDCHAR
STARTCHAR 017B
ENCODING 379
SWIDTH 510 0
DWIDTH 17 0
BBX 13 27 2 0
BITMAP
0700
0F00
0F00
0700
0000
0000
0000
FFF8
FFF8
FFF8
0070
00E0
00E0
01C0
0380
0300
0700
0E00
1C00
1C00
3800
3000
7000
E000
FFF8
FFF8
FFF8
ENDCHAR
STARTCHAR 017C
ENCODING 380
SWIDTH 510 0
DWIDTH 17 0
BBX 12 22 2 0
BITMAP
0700
0F00
0F00
0700
0000
0000
0000
7FF0
7FF0
7FF0
00E0
01C0
0380
0700
0E00
1C00
1C00
3800
7000
FFF0
FFF0
FFF0
ENDCHAR
STARTCHAR 017D
ENCODING 381
SWIDTH 510 0
DWIDTH 17 0
BBX 13 28 2 0
BITMAP
1040
38C0
1D80
0F00
0700
0200
0000
0000
FFF8
FFF8
FFF8
0070
00E0
00E0
01C0
0380
0300
0700
0E00
1C00
1C00
3800
3000
7000
E000
FFF8
FFF8
FFF8
ENDCHAR
STARTCHAR 017E
ENCODING 382
SWIDTH 510 0
DWIDTH 17 0
BBX 12 23 2 0
BITMAP
1040
38C0
1D80
0F00
0700
0200
0000
0000
7FF0
7FF0
7FF0
00E0
01C0
0380
0700
0E00
1C00
1C00
3800
7000
FFF0
FFF0
FFF0
ENDCHAR
STARTCHAR 017F
ENCODING 383
SWIDTH 510 0
DWIDTH 17 0
BBX 11 23 5 0
BITMAP
1F80
3FE0
7FE0
7060
E000
E000
E000
E000
E000
E000
E000
E000
E000
E000
E000
E000
E000
E000
E000
E000
E000
E000
E000
ENDCHAR
STARTCHAR 0180
ENCODING 384
SWIDTH 510 0
DWIDTH 17 0
BBX 14 23 1 0
BITMAP
3800
3800
3800
FFC0
FFC0
3800
3800
3800
3FC0
3FF0
3FF8
3C38
381C
381C
381C
381C
381C
381C
383C
3878
3FF8
3FF0
1FC0
ENDCHAR
STARTCHAR 0181
ENCODING 385
SWIDTH 510 0
DWIDTH 17 0
BBX 15 20 1 0
BITMAP
1FE0
7FF8
FFF8
EE3C
CE1C
CE1C
CE1C
0E38
0FF0
0FF0
0FFC
0E1C
0E0E
0E0E
0E0E
0E0E
0E1E
0FFC
0FF8
0FF0
ENDCHAR
STARTCHAR 0182
ENCODING 386
SWIDTH 510 0
DWIDTH 17 0
BBX 13 20 2 0
BITMAP
FFE0
FFE0
FFE0
C000
C000
C000
C000
FF80
FFE0
FFF0
C0F0
C038
C038
C038
C038
C078
C0F0
FFF0
FFE0
FF80
ENDCHAR
STARTCHAR 0183
ENCODING 387
SWIDTH 510 0
DWIDTH 17 0
BBX 13 23 2 0
BITMAP
FFF0
FFF0
FFF0
E000
E000
E000
E000
E000
EF80
FFE0
FFF0
F0F0
E038
E038
E038
E038
E038
E038
E078
E0F0
FFF0
FFE0
7F80
ENDCHAR
STARTCHAR 0184
ENCODING 388
SWIDTH 510 0
DWIDTH 17 0
BBX 15 23 0 0
BITMAP
1800
F800
7800
3800
3800
3800
3800
3800
3BE0
3FF8
3FFC
3C3C
380E
380E
380E
380E
380E
380E
381E
383C
3FFC
3FF8
1FE0
ENDCHAR
STARTCHAR 0185
ENCODING 389
SWIDTH 510 0
DWIDTH 17 0
BBX 15 20 0 0
BITMAP
1800
F800
7800
3800
3800
3800
3800
3FE0
3FF8
3FFC
383C
380E
380E
380E
380E
380E
383C
3FFC
3FF8
3FE0
ENDCHAR
STARTCHAR 0186
ENCODING 390
SWIDTH 510 0
DWIDTH 17 0
BBX 14 20 1 0
BITMAP
1F80
7FE0
7FF0
40F0
0078
0038
001C
001C
001C
001C
001C
001C
001C
001C
0038
0078
40F0
7FF0
FFC0
3F80
ENDCHAR
STARTCHAR 0187
ENCODING 391
SWIDTH 510 0
DWIDTH 17 0
BBX 14 22 2 0
BITMAP
003C
003C
07F0
1FE0
3FE0
7820
7000
E000
E000
E000
C000
C000
C000
C000
E000
E000
E000
F000
7820
3FF0
1FF0
0FC0
ENDCHAR
STARTCHAR 0188
ENCODING 392
SWIDTH 510 0
DWIDTH 17 0
BBX 14 18 2 0
BITMAP
003C
003C
0070
0FE0
3FE0
7FE0
7800
E000
E000
E000
C000
C000
E000
E000
7820
7FE0
3FE0
0FC0
ENDCHAR
STARTCHAR 0189
ENCODING 393
SWIDTH 510 0
DWIDTH 17 0
BBX 14 20 1 0
BITMAP
7F80
7FE0
7FF0
70F8
7038
703C
701C
701C
FE1C
FE1C
FE1C
701C
701C
701C
703C
7038
70F8
7FF0
7FE0
7F80
ENDCHAR
STARTCHAR 018A
ENCODING 394
SWIDTH 510 0
DWIDTH 17 0
BBX 15 20 1 0
BITMAP
1FC0
7FF0
FFF8
EE3C
CE1C
CE0C
CE0E
0E0E
0E0E
0E0E
0E0E
0E0E
0E0E
0E0E
0E0C
0E1C
0E3C
0FF8
0FF0
0FE0
ENDCHAR
STARTCHAR 018B
ENCODING 395
SWIDTH 510 0
DWIDTH 17 0
BBX 13 20 2 0
BITMAP
7FF8
7FF8
7FF8
0038
0038
0038
0038
0FF8
3FF8
7FF8
F038
E038
C038
C038
C038
E038
F038
7FF8
3FF8
0FF8
ENDCHAR
STARTCHAR 018C
ENCODING 396
SWIDTH 510 0
DWIDTH 17 0
BBX 13 23 1 0
BITMAP
3FF8
3FF8
3FF8
0038
0038
0038
0038
0038
0FF8
1FF8
3FF8
7878
7038
E038
E038
E038
E038
E038
7038
7838
3FF8
1FF8
07F0
ENDCHAR
STARTCHAR 018D
ENCODING 397
SWIDTH 510 0
DWIDTH 17 0
BBX 14 20 1 -5
BITMAP
0FC0
3FF0
7FF8
787C
701C
E01C
E01C
E01C
601C
701C
7838
3C70
0FE0
0780
01E0
00E0
0070
2070
3FE0
3FC0
ENDCHAR
STARTCHAR 018E
ENCODING 398
SWIDTH 510 0
DWIDTH 17 0
BBX 13 20 1 0
BITMAP
7FF8
7FF8
7FF8
0038
0038
0038
0038
0038
3FF8
3FF8
3FF8
0038
0038
0038
0038
0038
0038
FFF8
FFF8
FFF8
ENDCHAR
STARTCHAR 018F
ENCODING 399
SWIDTH 510 0
DWIDTH 17 0
BBX 15 20 1 0
BITMAP
1F80
7FE0
7FF0
2078
003C
001C
001C
000C
000C
FFFE
FFFE
FFFE
E00C
E01C
E01C
703C
7878
3FF0
1FE0
0FC0
ENDCHAR
STARTCHAR 0190
ENCODING 400
SWIDTH 510 0
DWIDTH 17 0
BBX 14 20 1 0
BITMAP
07F0
1FFC
3FF8
7818
7000
7000
3000
3C00
1FE0
0FE0
3FE0
7800
7000
E000
E000
E000
780C
7FFC
3FFC
0FF0
ENDCHAR
STARTCHAR 0191
ENCODING 401
SWIDTH 510 0
DWIDTH 17 0
BBX 15 26 0 -6
BITMAP
1FFE
1FFE
1FFE
1C00
1C00
1C00
1C00
1C00
1FFC
1FFC
1FFC
1C00
1C00
1C00
1C00
1C00
1C00
1C00
1C00
1C00
1C00
1C00
1C00
FC00
F800
F000
ENDCHAR
STARTCHAR 0192
ENCODING 402
SWIDTH 510 0
DWIDTH 17 0
BBX 16 28 0 -5
BITMAP
00FC
01FF
03FF
0382
0700
0700
0700
0700
3FFC
3FFC
3FFC
0700
0700
0700
0700
0700
0700
0700
0700
0700
0700
0700
0700
0700
0F00
7E00
FE00
F800
ENDCHAR
STARTCHAR 0193
ENCODING 403
SWIDTH 510 0
DWIDTH 17 0
BBX 14 22 2 0
BITMAP
001C
003C
07F0
1FE0
3FE0
7C20
7000
E000
E000
E000
C000
C000
C038
C038
E038
E038
E038
F038
7838
3FF8
1FF8
07F0
ENDCHAR
STARTCHAR 0194
ENCODING 404
SWIDTH 510 0
DWIDTH 17 0
BBX 15 25 1 -5
BITMAP
C00E
E00C
E01C
701C
7038
3038
3830
1870
1C60
1CE0
0EE0
0EC0
07C0
0780
0380
0780
07C0
0EC0
0CE0
1C60
1C60
1C60
1FE0
0FE0
0780
ENDCHAR
STARTCHAR 0195
ENCODING 405
SWIDTH 510 0
DWIDTH 17 0
BBX 14 23 1 0
BITMAP
E000
E000
E000
E000
E000
E000
E000
E000
FE0C
FF0C
FF0C
E70C
E30C
E30C
E30C
E30C
E30C
E30C
E31C
E39C
E3FC
E1F8
E0F0
ENDCHAR
STARTCHAR 0196
ENCODING 406
SWIDTH 510 0
DWIDTH 17 0
BBX 13 20 2 0
BITMAP
FFE0
FFE0
FFE0
0E00
0E00
0E00
0E00
0E00
0E00
0E00
0E00
0E00
0E00
0E00
0E00
0E00
0F08
07F8
07F8
03F0
ENDCHAR
STARTCHAR 0197
ENCODING 407
SWIDTH 510 0
DWIDTH 17 0
BBX 11 20 3 0
BITMAP
FFE0
FFE0
FFE0
0E00
0E00
0E00
0E00
0E00
7FC0
7FC0
7FC0
0E00
0E00
0E00
0E00
0E00
0E00
FFE0
FFE0
FFE0
ENDCHAR
STARTCHAR 0198
ENCODING 408
SWIDTH 510 0
DWIDTH 17 0
BBX 15 20 2 0
BITMAP
E038
E07E
E0FC
E0E4
E1C0
E380
E700
EE00
FE00
FC00
FE00
EF00
E780
E3C0
E1E0
E0E0
E070
E038
E038
E01C
ENDCHAR
STARTCHAR 0199
ENCODING 409
SWIDTH 510 0
DWIDTH 17 0
BBX 13 23 2 0
BITMAP
3E00
7C00
7000
E000
E000
E000
E000
E000
E038
E070
E0E0
E3C0
E700
EE00
FC00
FE00
EF00
E780
E1C0
E0E0
E070
E078
E038
ENDCHAR
STARTCHAR 019A
ENCODING 410
SWIDTH 510 0
DWIDTH 17 0
BBX 13 23 2 0
BITMAP
FE00
FE00
FE00
0E00
0E00
0E00
0E00
0E00
0E00
0E00
FFE0
FFE0
0E00
0E00
0E00
0E00
0E00
0E00
0E00
0F08
07F8
07F8
01F0
ENDCHAR
STARTCHAR 019B
ENCODING 411
SWIDTH 510 0
DWIDTH 17 0
BBX 14 23 1 0
BITMAP
7800
7C00
0E60
07F0
1FC0
3F00
3380
0380
03C0
07C0
06C0
0EE0
0CE0
1C60
1C70
1870
3830
3038
7038
7038
601C
E01C
E01C
ENDCHAR
STARTCHAR 019C
ENCODING 412
SWIDTH 510 0
DWIDTH 17 0
BBX 14 20 1 0
BITMAP
E00C
E00C
E00C
E00C
E00C
E00C
E00C
E00C
E38C
E38C
E38C
E38C
E38C
E38C
E38C
638C
718C
7FFC
3FFC
1E78
ENDCHAR
STARTCHAR 019D
ENCODING 413
SWIDTH 510 0
DWIDTH 17 0
BBX 17 26 -2 -6
BITMAP
0E0380
0E0380
0F0380
0F8380
0F8380
0DC380
0CC380
0CE380
0C6380
0C7380
0C3380
0C3B80
0C1B80
0C1F80
0C0F80
0C0F80
0C0780
0C0780
0C0380
0C0380
0C0000
0C0000
1C0000
7C0000
780000
F00000
ENDCHAR
STARTCHAR 019E
ENCODING 414
SWIDTH 510 0
DWIDTH 17 0
BBX 12 20 2 -5
BITMAP
7F80
FFE0
FFE0
E0F0
E070
E070
E070
E030
E030
E030
E030
E030
E030
E030
E030
0030
0030
0030
0030
0030
ENDCHAR
STARTCHAR 019F
ENCODING 415
SWIDTH 510 0
DWIDTH 17 0
BBX 15 20 1 0
BITMAP
07C0
1FF0
3FF8
7878
703C
E01C
E01C
E00C
E00E
FFFE
FFFE
FFFE
E00C
E00C
E01C
701C
7878
3FF8
1FF0
07C0
ENDCHAR
STARTCHAR 01A0
ENCODING 416
SWIDTH 510 0
DWIDTH 17 0
BBX 15 23 1 0
BITMAP
0006
0006
0006
07CE
1FFC
3FFC
7878
703C
F01C
E01C
E00C
E00C
E00E
E00E
E00E
E00C
E01C
E01C
703C
7878
3FF8
1FF0
07C0
ENDCHAR
STARTCHAR 01A1
ENCODING 417
SWIDTH 510 0
DWIDTH 17 0
BBX 15 18 1 0
BITMAP
000E
000E
000E
07CC
1FFC
3FF8
7878
703C
E01C
E01C
E01C
E01C
E01C
703C
7878
3FF8
1FF0
0FC0
ENDCHAR
STARTCHAR 01A2
ENCODING 418
SWIDTH 510 0
DWIDTH 17 0
BBX 15 20 1 0
BITMAP
1E78
3FFC
3FFC
739C
718E
61CE
61CE
61CE
E1CE
E1CE
E1CE
E1CE
61CE
61CE
71CE
71CE
738E
3F8E
3F0E
1E0E
ENDCHAR
STARTCHAR 01A3
ENCODING 419
SWIDTH 510 0
DWIDTH 17 0
BBX 14 20 1 -5
BITMAP
3CF0
7FF8
7FF8
E31C
E39C
E39C
C39C
C39C
C39C
E39C
E39C
E39C
7F1C
7F1C
1E1C
001C
001C
001C
001C
001C
ENDCHAR
STARTCHAR 01A4
ENCODING 420
SWIDTH 510 0
DWIDTH 17 0
BBX 14 20 1 0
BITMAP
1FE0
7FF8
FFFC
EE1C
CE1C
CE0C
CE0C
0E0C
0E1C
0E3C
0FFC
0FF8
0FE0
0E00
0E00
0E00
0E00
0E00
0E00
0E00
ENDCHAR
STARTCHAR 01A5
ENCODING 421
SWIDTH 510 0
DWIDTH 17 0
BBX 13 28 2 -5
BITMAP
3E00
7C00
7000
E000
E000
E000
E000
E000
FF80
FFE0
FFF0
E0F0
E078
E038
E038
E038
E038
E038
E038
F0F0
FFF0
FFE0
EF80
E000
E000
E000
E000
E000
ENDCHAR
STARTCHAR 01A6
ENCODING 422
SWIDTH 510 0
DWIDTH 17 0
BBX 14 25 2 -3
BITMAP
E000
E000
FF00
FFC0
FFE0
E0F0
E070
E070
E070
E070
E070
E0F0
FFE0
FFC0
FF80
E380
E1C0
E1C0
E0E0
E070
E070
E038
0038
001C
001C
ENDCHAR
STARTCHAR 01A7
ENCODING 423
SWIDTH 510 0
DWIDTH 17 0
BBX 13 20 2 0
BITMAP
1F80
7FE0
7FE0
60F0
0070
0070
0070
00F0
07E0
1FC0
3F80
7C00
F000
E000
E000
E000
F030
7FF0
7FF8
1FC0
ENDCHAR
STARTCHAR 01A8
ENCODING 424
SWIDTH 510 0
DWIDTH 17 0
BBX 12 15 2 0
BITMAP
3F80
7FE0
7FF0
6070
0070
01F0
0FE0
3FC0
7F00
F000
E000
E030
7FF0
7FF0
1FC0
ENDCHAR
STARTCHAR 01A9
ENCODING 425
SWIDTH 510 0
DWIDTH 17 0
BBX 14 20 1 0
BITMAP
7FFC
7FFC
7FFC
3000
3800
1C00
0E00
0700
0380
01C0
0380
0700
0E00
1C00
3800
3000
7000
FFFC
FFFC
FFFC
ENDCHAR
STARTCHAR 01AA
ENCODING 426
SWIDTH 510 0
DWIDTH 17 0
BBX 14 28 1 -5
BITMAP
3E00
7F00
6380
E380
E380
6380
7F80
3F80
0380
0380
0380
0380
0380
0380
0380
0380
0380
0380
0380
0380
0380
0380
0380
01C0
01C0
01FC
00FC
007C
ENDCHAR
STARTCHAR 01AB
ENCODING 427
SWIDTH 510 0
DWIDTH 17 0
BBX 13 25 2 -5
BITMAP
1C00
1C00
1C00
1C00
1C00
FFF0
FFF0
FFF0
1C00
1C00
1C00
1C00
1C00
1C00
1C00
1C00
1E00
0FF8
0FF8
03F8
0018
0038
0038
01F8
01F0
ENDCHAR
STARTCHAR 01AC
ENCODING 428
SWIDTH 510 0
DWIDTH 17 0
BBX 14 20 1 0
BITMAP
3FFC
7FFC
FFFC
E380
C380
C380
C380
0380
0380
0380
0380
0380
0380
0380
0380
0380
0380
0380
0380
0380
ENDCHAR
STARTCHAR 01AD
ENCODING 429
SWIDTH 510 0
DWIDTH 17 0
BBX 13 23 2 0
BITMAP
03F8
07F8
0FF8
0E08
1C00
1C00
1C00
1C00
FFF0
FFF0
FFF0
1C00
1C00
1C00
1C00
1C00
1C00
1C00
1C00
1E08
0FF8
0FF8
03F0
ENDCHAR
STARTCHAR 01AE
ENCODING 430
SWIDTH 510 0
DWIDTH 17 0
BBX 14 26 1 -6
BITMAP
FFFC
FFFC
FFFC
0380
0380
0380
0380
0380
0380
0380
0380
0380
0380
0380
0380
0380
0380
0380
0380
0380
0380
0380
0380
03F0
01F0
00F0
ENDCHAR
STARTCHAR 01AF
ENCODING 431
SWIDTH 510 0
DWIDTH 17 0
BBX 14 23 2 0
BITMAP
000C
000C
001C
C0FC
C0F8
C0E0
C0E0
C0E0
C0E0
C0E0
C0E0
C0E0
C0E0
C0E0
C0E0
C0E0
C0E0
C0E0
E0E0
F1E0
FFC0
7FC0
1F00
ENDCHAR
STARTCHAR 01B0
ENCODING 432
SWIDTH 510 0
DWIDTH 17 0
BBX 14 18 2 0
BITMAP
001C
001C
001C
E0F8
E0F0
E0E0
E0E0
E0E0
E0E0
E0E0
E0E0
E0E0
E0E0
E0E0
70E0
7FE0
3FE0
1FC0
ENDCHAR
STARTCHAR 01B1
ENCODING 433
SWIDTH 510 0
DWIDTH 17 0
BBX 15 20 1 0
BITMAP
FCFE
FCFE
FCFE
1870
3830
7038
7018
601C
E01C
E00C
E00C
E00C
E00C
E01C
E01C
703C
7878
3FF8
1FF0
0FC0
ENDCHAR
STARTCHAR 01B2
ENCODING 434
SWIDTH 510 0
DWIDTH 17 0
BBX 14 20 1 0
BITMAP
E3C0
E3F0
E3F8
E078
E038
E01C
E01C
E01C
E01C
E01C
E01C
E01C
E01C
E01C
6018
7038
7878
7FF0
3FE0
0FC0
ENDCHAR
STARTCHAR 01B3
ENCODING 435
SWIDTH 510 0
DWIDTH 17 0
BBX 16 20 1 0
BITMAP
E00E
E01F
E01F
7039
7030
3870
3860
1CE0
0EC0
0FC0
07C0
0780
0380
0380
0380
0380
0380
0380
0380
0380
ENDCHAR
STARTCHAR 01B4
ENCODING 436
SWIDTH 510 0
DWIDTH 17 0
BBX 15 20 1 -5
BITMAP
E01E
E03E
703E
7070
7070
3870
3860
38E0
1CE0
1CC0
0DC0
0FC0
0780
0780
0300
0700
0E00
FE00
FC00
F800
ENDCHAR
STARTCHAR 01B5
ENCODING 437
SWIDTH 510 0
DWIDTH 17 0
BBX 13 20 2 0
BITMAP
FFF8
FFF8
FFF8
0070
00E0
01C0
0380
0380
7FF0
7FF0
7FF0
0E00
1C00
3800
3800
7000
6000
FFF8
FFF8
FFF8
ENDCHAR
STARTCHAR 01B6
ENCODING 438
SWIDTH 510 0
DWIDTH 17 0
BBX 12 15 2 0
BITMAP
7FF0
7FF0
7FF0
01E0
01C0
0380
7FF0
7FF0
1C00
1C00
3800
7000
FFF0
FFF0
FFF0
ENDCHAR
STARTCHAR 01B7
ENCODING 439
SWIDTH 510 0
DWIDTH 17 0
BBX 14 20 1 0
BITMAP
7FFC
7FFC
7FFC
0038
0070
00E0
0380
0700
0FC0
0FF0
0FF8
007C
001C
000C
001C
001C
C07C
FFF8
FFF0
1FC0
ENDCHAR
STARTCHAR 01B8
ENCODING 440
SWIDTH 510 0
DWIDTH 17 0
BBX 13 20 2 0
BITMAP
7FF8
7FF8
7FF8
3800
3800
1C00
0E00
0700
0F80
3F80
7F80
7800
E000
E000
E000
E000
7818
7FF8
3FF8
0FE0
ENDCHAR
STARTCHAR 01B9
ENCODING 441
SWIDTH 510 0
DWIDTH 17 0
BBX 13 20 2 -5
BITMAP
7FF0
7FF0
7FF0
3800
1800
0C00
0600
0300
0F80
3F80
7800
F000
E000
E000
E000
E000
7000
7810
3FF8
0FF0
ENDCHAR
STARTCHAR 01BA
ENCODING 442
SWIDTH 510 0
DWIDTH 17 0
BBX 12 20 2 -5
BITMAP
FFE0
FFE0
FFE0
00C0
0380
0700
0E00
1F80
1FE0
01F0
0070
0070
0070
00F0
0FE0
7F80
F800
C000
C000
C000
ENDCHAR
STARTCHAR 01BB
ENCODING 443
SWIDTH 510 0
DWIDTH 17 0
BBX 13 20 2 0
BITMAP
1F80
7FE0
FFE0
E0F0
4070
0070
0070
00E0
01C0
7FF8
7FF8
0F00
1E00
3C00
3800
7000
6000
FFF8
FFF8
FFF8
ENDCHAR
STARTCHAR 01BC
ENCODING 444
SWIDTH 510 0
DWIDTH 17 0
BBX 14 20 1 0
BITMAP
FFF8
FFF8
FFF8
1C00
1800
1800
1800
1F80
1FE0
1FF0
01F8
0038
0018
001C
001C
0038
2078
7FF0
7FE0
1F80
ENDCHAR
STARTCHAR 01BD
ENCODING 445
SWIDTH 510 0
DWIDTH 17 0
BBX 12 15 2 0
BITMAP
FFF0
FFF0
3800
3800
3000
3F80
3FE0
00F0
0070
0030
0070
40F0
7FF0
7FE0
3F80
ENDCHAR
STARTCHAR 01BE
ENCODING 446
SWIDTH 510 0
DWIDTH 17 0
BBX 13 20 2 0
BITMAP
1C00
1C00
1C00
1C00
1C00
FFF0
FFF0
FFF0
1C00
1C00
0C00
0F00
07C0
00F0
0038
0018
2038
7FF8
7FF0
1FE0
ENDCHAR
STARTCHAR 01BF
ENCODING 447
SWIDTH 510 0
DWIDTH 17 0
BBX 13 20 2 -5
BITMAP
3F80
FFE0
FFF0
E078
E038
E038
E038
E038
E038
E038
E070
E1E0
E7C0
FF80
FE00
F800
E000
E000
E000
E000
ENDCHAR
STARTCHAR 01C0
ENCODING 448
SWIDTH 510 0
DWIDTH 17 0
BBX 3 28 7 -5
BITMAP
E0
E0
E0
E0
E0
E0
E0
E0
E0
E0
E0
E0
E0
E0
E0
E0
E0
E0
E0
E0
E0
E0
E0
E0
E0
E0
E0
E0
ENDCHAR
STARTCHAR 01C1
ENCODING 449
SWIDTH 510 0
DWIDTH 17 0
BBX 9 28 4 -5
BITMAP
E380
E380
E380
E380
E380
E380
E380
E380
E380
E380
E380
E380
E380
E380
E380
E380
E380
E380
E380
E380
E380
E380
E380
E380
E380
E380
E380
E380
ENDCHAR
STARTCHAR 01C2
ENCODING 450
SWIDTH 510 0
DWIDTH 17 0
BBX 14 28 1 -5
BITMAP
0380
0380
0380
0380
0380
0380
0380
0380
0380
0380
FFFC
FFFC
0380
0380
0380
0380
FFFC
FFFC
0380
0380
0380
0380
0380
0380
0380
0380
0380
0380
ENDCHAR
STARTCHAR 01C3
ENCODING 451
SWIDTH 510 0
DWIDTH 17 0
BBX 4 20 6 0
BITMAP
70
70
70
70
70
70
70
70
70
70
60
60
60
00
00
00
70
F0
F0
70
ENDCHAR
STARTCHAR 01C4
ENCODING 452
SWIDTH 510 0
DWIDTH 17 0
BBX 15 26 1 0
BITMAP
0082
00E6
007C
0038
0010
0000
F87E
FC7E
FE7E
CE0E
C60C
C70C
C71C
C718
C318
C338
C338
C330
C730
C770
C760
C660
CE60
FEFE
FCFE
F8FE
ENDCHAR
STARTCHAR 01C5
ENCODING 453
SWIDTH 510 0
DWIDTH 17 0
BBX 15 21 1 0
BITMAP
0022
F836
FC1C
FE08
CE00
C600
C73E
C73E
C73E
C306
C30C
C30C
C318
C718
C718
C730
C630
CE30
FE7E
FC7E
F87E
ENDCHAR
STARTCHAR 01C6
ENCODING 454
SWIDTH 510 0
DWIDTH 17 0
BBX 16 23 0 0
BITMAP
0380
0380
0391
039B
038E
0384
0380
0380
3F9F
7F9F
739E
6382
E382
E384
E384
E384
E38C
E388
E388
6398
739F
3F9F
1F1F
ENDCHAR
STARTCHAR 01C7
ENCODING 455
SWIDTH 510 0
DWIDTH 17 0
BBX 15 20 1 0
BITMAP
E00E
E00E
E00E
E00E
E00E
E00E
E00E
E00E
E00E
E00E
E00E
E00E
E00E
E00E
E00E
E00E
E01C
FE7C
FE7C
FE70
ENDCHAR
STARTCHAR 01C8
ENCODING 456
SWIDTH 510 0
DWIDTH 17 0
BBX 14 27 2 -5
BITMAP
0038
003C
C03C
C038
C000
C000
C000
C038
C038
C038
C038
C038
C038
C038
C038
C038
C038
C038
C038
FF38
FF38
FF38
0038
0078
03F0
03F0
03C0
ENDCHAR
STARTCHAR 01C9
ENCODING 457
SWIDTH 510 0
DWIDTH 17 0
BBX 11 28 3 -5
BITMAP
E000
E0C0
E1E0
E1E0
E0C0
E000
E000
E000
E0C0
E0C0
E0C0
E0C0
E0C0
E0C0
E0C0
E0C0
E0C0
E0C0
E0C0
E0C0
F8C0
78C0
30C0
01C0
01C0
1FC0
1F80
1F00
ENDCHAR
STARTCHAR 01CA
ENCODING 458
SWIDTH 510 0
DWIDTH 17 0
BBX 15 20 1 0
BITMAP
E30E
E30E
E30E
E30E
F30E
F30E
F30E
F30E
DB0E
DB0E
DB0E
DF0E
CF0E
CF0E
CF0E
C70E
C71C
C77C
C77C
C370
ENDCHAR
STARTCHAR 01CB
ENCODING 459
SWIDTH 510 0
DWIDTH 17 0
BBX 15 27 1 -5
BITMAP
000C
001E
E31E
E30C
E300
E300
F300
F30C
F30C
F30C
DB0C
DB0C
DB0C
DF0C
CF0C
CF0C
CF0C
C70C
C70C
C70C
C70C
C30C
001C
001C
01FC
01F8
01F0
ENDCHAR
STARTCHAR 01CC
ENCODING 460
SWIDTH 510 0
DWIDTH 17 0
BBX 15 27 1 -5
BITMAP
001C
001E
001E
001C
0000
0000
0000
7E0C
FF0C
FF0C
E70C
E30C
E38C
E38C
E38C
E38C
E38C
E38C
E38C
E38C
E38C
E39C
001C
001C
01F8
01F8
01E0
ENDCHAR
STARTCHAR 01CD
ENCODING 461
SWIDTH 510 0
DWIDTH 17 0
BBX 16 28 0 0
BITMAP
0410
0E30
0760
03C0
01C0
0080
0000
0000
03C0
03E0
03E0
0760
0670
0670
0E30
0C38
0C38
1C18
1C1C
181C
381C
3FFC
3FFE
7FFE
700E
7007
7007
E007
ENDCHAR
STARTCHAR 01CE
ENCODING 462
SWIDTH 510 0
DWIDTH 17 0
BBX 12 23 2 0
BITMAP
1040
38C0
1D80
0F00
0700
0200
0000
0000
1F80
3FE0
3FF0
20F0
0070
0030
1FF0
7FF0
F030
E030
E030
F030
FFF0
7FF0
1FF0
ENDCHAR
STARTCHAR 01CF
ENCODING 463
SWIDTH 510 0
DWIDTH 17 0
BBX 11 28 3 0
BITMAP
2080
7180
3B00
1E00
0E00
0400
0000
0000
FFE0
FFE0
FFE0
0E00
0E00
0E00
0E00
0E00
0E00
0E00
0E00
0E00
0E00
0E00
0E00
0E00
0E00
FFE0
FFE0
FFE0
ENDCHAR
STARTCHAR 01D0
ENCODING 464
SWIDTH 510 0
DWIDTH 17 0
BBX 13 23 2 0
BITMAP
2100
7180
3B00
1E00
0C00
0400
0000
0000
FE00
FE00
FE00
0E00
0E00
0E00
0E00
0E00
0E00
0E00
0E00
0F00
07F8
07F8
03F0
ENDCHAR
STARTCHAR 01D1
ENCODING 465
SWIDTH 510 0
DWIDTH 17 0
BBX 15 28 1 0
BITMAP
0820
1C60
0EC0
0780
0380
0100
0000
0000
07C0
1FF0
3FF8
7878
703C
F01C
E01C
E00C
E00E
E00E
E00E
E00E
E00C
E01C
E01C
703C
7878
3FF8
1FF0
07C0
ENDCHAR
STARTCHAR 01D2
ENCODING 466
SWIDTH 510 0
DWIDTH 17 0
BBX 14 23 1 0
BITMAP
0820
1C60
0EC0
0780
0380
0100
0000
0000
07C0
1FF0
3FF8
7878
703C
E01C
E01C
E01C
E01C
E01C
703C
7878
3FF8
1FF0
0FC0
ENDCHAR
STARTCHAR 01D3
ENCODING 467
SWIDTH 510 0
DWIDTH 17 0
BBX 13 28 2 0
BITMAP
1040
38C0
1D80
0F00
0700
0200
0000
0000
C038
C038
C038
C038
C038
C038
C038
C038
C038
C038
C038
C038
C038
C038
E038
E078
F0F0
7FF0
3FE0
1F80
ENDCHAR
STARTCHAR 01D4
ENCODING 468
SWIDTH 510 0
DWIDTH 17 0
BBX 12 23 2 0
BITMAP
1040
38C0
1D80
0F00
0700
0200
0000
0000
E070
E070
E070
E070
E070
E070
E070
E070
E070
E070
F070
7870
7FF0
3FF0
1FE0
ENDCHAR
STARTCHAR 01D5
ENCODING 469
SWIDTH 510 0
DWIDTH 17 0
BBX 13 28 2 0
BITMAP
1FC0
1FC0
0000
30C0
38E0
30C0
0000
0000
C038
C038
C038
C038
C038
C038
C038
C038
C038
C038
C038
C038
C038
C038
E038
E078
F0F0
7FF0
3FE0
1F80
ENDCHAR
STARTCHAR 01D6
ENCODING 470
SWIDTH 510 0
DWIDTH 17 0
BBX 12 23 2 0
BITMAP
1FC0
1FC0
0000
30C0
38E0
30C0
0000
0000
E070
E070
E070
E070
E070
E070
E070
E070
E070
E070
F070
7870
7FF0
3FF0
1FE0
ENDCHAR
STARTCHAR 01D7
ENCODING 471
SWIDTH 510 0
DWIDTH 17 0
BBX 13 28 2 0
BITMAP
0100
0380
0300
6660
7470
6060
0000
0000
C038
C038
C038
C038
C038
C038
C038
C038
C038
C038
C038
C038
C038
C038
E038
E078
F0F0
7FF0
3FE0
1F80
ENDCHAR
STARTCHAR 01D8
ENCODING 472
SWIDTH 510 0
DWIDTH 17 0
BBX 12 25 2 0
BITMAP
0100
01C0
0380
0700
0200
30E0
38E0
30E0
0000
0000
E070
E070
E070
E070
E070
E070
E070
E070
E070
E070
F070
7870
7FF0
3FF0
1FE0
ENDCHAR
STARTCHAR 01D9
ENCODING 473
SWIDTH 510 0
DWIDTH 17 0
BBX 13 28 2 0
BITMAP
0880
0D80
0700
6260
7070
6060
0000
0000
C038
C038
C038
C038
C038
C038
C038
C038
C038
C038
C038
C038
C038
C038
E038
E078
F0F0
7FF0
3FE0
1F80
ENDCHAR
STARTCHAR 01DA
ENCODING 474
SWIDTH 510 0
DWIDTH 17 0
BBX 12 24 2 0
BITMAP
1080
1D80
0F00
0200
30E0
38E0
30E0
0000
0000
E070
E070
E070
E070
E070
E070
E070
E070
E070
E070
F070
7870
7FF0
3FF0
1FE0
ENDCHAR
STARTCHAR 01DB
ENCODING 475
SWIDTH 510 0
DWIDTH 17 0
BBX 13 28 2 0
BITMAP
0400
0C00
0E00
6760
7270
6060
0000
0000
C038
C038
C038
C038
C038
C038
C038
C038
C038
C038
C038
C038
C038
C038
E038
E078
F0F0
7FF0
3FE0
1F80
ENDCHAR
STARTCHAR 01DC
ENCODING 476
SWIDTH 510 0
DWIDTH 17 0
BBX 12 25 2 0
BITMAP
0800
1C00
0E00
0600
0200
30E0
38E0
30E0
0000
0000
E070
E070
E070
E070
E070
E070
E070
E070
E070
E070
F070
7870
7FF0
3FF0
1FE0
ENDCHAR
STARTCHAR 01DD
ENCODING 477
SWIDTH 510 0
DWIDTH 17 0
BBX 14 15 1 0
BITMAP
1FC0
3FE0
3FF8
2078
003C
001C
001C
FFFC
FFFC
601C
701C
7878
3FF8
3FF0
0FC0
ENDCHAR
STARTCHAR 01DE
ENCODING 478
SWIDTH 510 0
DWIDTH 17 0
BBX 16 28 0 0
BITMAP
07F0
07F0
0000
0C30
0E38
0C30
0000
0000
03C0
03E0
03E0
0760
0770
0670
0E30
0C38
0C38
1C18
181C
181C
3FFC
3FFC
3FFE
700E
700E
7007
6007
E007
ENDCHAR
STARTCHAR 01DF
ENCODING 479
SWIDTH 510 0
DWIDTH 17 0
BBX 12 23 2 0
BITMAP
1FC0
1FC0
0000
30C0
38E0
30C0
0000
0000
1F80
3FE0
3FF0
20F0
0070
0030
1FF0
7FF0
F030
E030
E030
F030
FFF0
7FF0
1FF0
ENDCHAR
STARTCHAR 01E0
ENCODING 480
SWIDTH 510 0
DWIDTH 17 0
BBX 16 28 0 0
BITMAP
07F0
07F0
0000
0180
01C0
0180
0000
0000
03C0
03E0
03E0
0760
0770
0670
0E30
0C38
0C38
1C18
181C
181C
3FFC
3FFC
3FFE
700E
700E
7007
6007
E007
ENDCHAR
STARTCHAR 01E1
ENCODING 481
SWIDTH 510 0
DWIDTH 17 0
BBX 12 23 2 0
BITMAP
1FC0
1FC0
0000
0600
0700
0600
0000
0000
1F80
3FE0
3FF0
20F0
0070
0030
1FF0
7FF0
F030
E030
E030
F030
FFF0
7FF0
1FF0
ENDCHAR
STARTCHAR 01E2
ENCODING 482
SWIDTH 510 0
DWIDTH 17 0
BBX 15 26 1 0
BITMAP
03FC
03FC
0000
0000
0000
0000
03FC
03FC
07FC
06C0
06C0
0CC0
0CC0
1CC0
18FC
18FC
18FC
38C0
3FC0
3FC0
7FC0
70C0
60C0
60FE
E0FE
E0FE
ENDCHAR
STARTCHAR 01E3
ENCODING 483
SWIDTH 510 0
DWIDTH 17 0
BBX 15 21 1 0
BITMAP
1FF0
1FF0
0000
0000
0000
0000
3C70
7EFC
7FFC
478C
038E
038E
3FFE
7FFE
E380
E380
E180
E3C4
FFFC
7FFC
3E78
ENDCHAR
STARTCHAR 01E4
ENCODING 484
SWIDTH 510 0
DWIDTH 17 0
BBX 14 20 2 0
BITMAP
07C0
1FF0
3FF0
7820
7000
E000
E000
E000
C000
C070
C070
C070
E1FC
E1FC
E1FC
F070
7870
3FF0
1FF0
0FE0
ENDCHAR
STARTCHAR 01E5
ENCODING 485
SWIDTH 510 0
DWIDTH 17 0
BBX 15 20 1 -5
BITMAP
0FF0
1FF8
3FF8
7838
7038
E038
E1FE
E1FE
E038
7038
7878
7FF8
3FF8
0FB8
0038
0070
20F0
7FF0
7FE0
3F80
ENDCHAR
STARTCHAR 01E6
ENCODING 486
SWIDTH 510 0
DWIDTH 17 0
BBX 13 28 2 0
BITMAP
0420
0E70
0760
03C0
0180
0080
0000
0000
07E0
1FF8
3FF8
7C10
7000
E000
E000
E000
C000
C000
C038
C038
E038
E038
E038
7038
7C38
3FF8
1FF8
07F0
ENDCHAR
STARTCHAR 01E7
ENCODING 487
SWIDTH 510 0
DWIDTH 17 0
BBX 13 28 1 -5
BITMAP
0820
0C70
06E0
03C0
0180
0100
0000
0000
0FF0
1FF8
3FF8
7838
7038
E038
E038
E038
E038
7038
7838
7FF8
3FF8
0FF8
0038
0038
2078
7FF0
7FE0
3F80
ENDCHAR
STARTCHAR 01E8
ENCODING 488
SWIDTH 510 0
DWIDTH 17 0
BBX 14 28 2 0
BITMAP
1040
38C0
1D80
0F00
0700
0200
0000
0000
E038
E070
E0F0
E0E0
E1C0
E380
E700
EF00
FE00
FC00
FE00
EF00
E780
E3C0
E1E0
E0F0
E070
E038
E038
E01C
ENDCHAR
STARTCHAR 01E9
ENCODING 489
SWIDTH 510 0
DWIDTH 17 0
BBX 13 28 2 0
BITMAP
8400
CC00
7800
3000
0000
E000
E000
E000
E000
E000
E000
E000
E000
E038
E070
E1E0
E3C0
E780
EF00
FC00
FC00
EF00
E780
E1C0
E0E0
E070
E078
E038
ENDCHAR
STARTCHAR 01EA
ENCODING 490
SWIDTH 510 0
DWIDTH 17 0
BBX 15 26 1 -6
BITMAP
07C0
1FF0
3FF8
7878
703C
E01C
E01C
E00C
E00E
E00E
E00E
E00E
E00C
E01C
E01C
703C
7878
3FF8
1FF0
07C0
0180
0380
0300
0700
03C0
03E0
ENDCHAR
STARTCHAR 01EB
ENCODING 491
SWIDTH 510 0
DWIDTH 17 0
BBX 14 21 1 -6
BITMAP
07C0
1FF0
3FF8
7878
703C
E01C
E01C
E01C
E01C
E01C
703C
7878
3FF8
1FF0
0FC0
0380
0700
0700
0700
07C0
03C0
ENDCHAR
STARTCHAR 01EC
ENCODING 492
SWIDTH 510 0
DWIDTH 17 0
BBX 15 32 1 -6
BITMAP
1FE0
1FE0
0000
0000
0000
0000
07C0
1FF0
3FF8
7878
703C
E01C
E01C
E00C
E00E
E00E
E00E
E00E
E00C
E01C
E01C
703C
7878
3FF8
1FF0
07C0
0180
0380
0300
0700
03C0
03E0
ENDCHAR
STARTCHAR 01ED
ENCODING 493
SWIDTH 510 0
DWIDTH 17 0
BBX 14 27 1 -6
BITMAP
1FE0
1FE0
0000
0000
0000
0000
07C0
1FF0
3FF8
7878
703C
E01C
E01C
E01C
E01C
E01C
703C
7878
3FF8
1FF0
0FC0
0380
0700
0700
0700
07C0
03C0
ENDCHAR
STARTCHAR 01EE
ENCODING 494
SWIDTH 510 0
DWIDTH 17 0
BBX 14 28 1 0
BITMAP
0820
1C60
0EC0
0780
0380
0100
0000
0000
7FFC
7FFC
7FFC
0038
0070
00E0
0380
0700
0FC0
0FF0
0FF8
007C
001C
000C
001C
001C
C07C
FFF8
FFF0
1FC0
ENDCHAR
STARTCHAR 01EF
ENCODING 495
SWIDTH 510 0
DWIDTH 17 0
BBX 12 28 2 -5
BITMAP
1040
38C0
1D80
0F00
0700
0200
0000
0000
FFF0
FFF0
FFE0
00E0
01C0
0380
0700
0E00
1F00
1FC0
01E0
0070
0070
0070
0070
0070
81F0
FFE0
FFC0
7F00
ENDCHAR
STARTCHAR 01F0
ENCODING 496
SWIDTH 510 0
DWIDTH 17 0
BBX 11 28 2 -5
BITMAP
0820
0C60
0EE0
07C0
0380
0100
0000
0000
3FE0
3FE0
3FE0
00E0
00E0
00E0
00E0
00E0
00E0
00E0
00E0
00E0
00E0
00E0
00E0
00E0
41C0
7FC0
FF80
3F00
ENDCHAR
STARTCHAR 01F1
ENCODING 497
SWIDTH 510 0
DWIDTH 17 0
BBX 15 20 1 0
BITMAP
F87E
FC7E
FE7E
CE0E
C60C
C70C
C71C
C718
C318
C338
C338
C330
C730
C770
C760
C660
CE60
FEFE
FCFE
F8FE
ENDCHAR
STARTCHAR 01F2
ENCODING 498
SWIDTH 510 0
DWIDTH 17 0
BBX 15 20 1 0
BITMAP
F800
FC00
FE00
CE00
C600
C73E
C73E
C73E
C306
C30C
C30C
C318
C718
C718
C730
C630
CE30
FE7E
FC7E
F87E
ENDCHAR
STARTCHAR 01F3
ENCODING 499
SWIDTH 510 0
DWIDTH 17 0
BBX 16 23 0 0
BITMAP
0380
0380
0380
0380
0380
0380
0380
0380
3F9F
7F9F
739F
6383
E386
E386
E386
E38C
E38C
E39C
E398
6398
739F
3F9F
1F1F
ENDCHAR
STARTCHAR 01F4
ENCODING 500
SWIDTH 510 0
DWIDTH 17 0
BBX 13 28 2 0
BITMAP
0040
00E0
01C0
0380
0300
0200
0000
0000
07E0
1FF8
3FF8
7C10
7000
E000
E000
E000
C000
C000
C038
C038
E038
E038
E038
7038
7C38
3FF8
1FF8
07F0
ENDCHAR
STARTCHAR 01F5
ENCODING 501
SWIDTH 510 0
DWIDTH 17 0
BBX 13 28 1 -5
BITMAP
0040
0060
00E0
01C0
0380
0100
0000
0000
0FF0
1FF8
3FF8
7838
7038
E038
E038
E038
E038
7038
7838
7FF8
3FF8
0FF8
0038
0038
2078
7FF0
7FE0
3F80
ENDCHAR
STARTCHAR 01F6
ENCODING 502
SWIDTH 510 0
DWIDTH 17 0
BBX 14 20 1 0
BITMAP
E380
E380
E380
E380
E380
E38C
E38C
E38C
FF8C
FF8C
FF8C
E38C
E38C
E38C
E38C
E38C
E39C
E1FC
E1F8
E0F0
ENDCHAR
STARTCHAR 01F7
ENCODING 503
SWIDTH 510 0
DWIDTH 17 0
BBX 13 25 2 -5
BITMAP
1F80
FFE0
FFF0
E0F0
E078
E038
E038
E038
E038
E038
E038
E038
E070
E0F0
E1E0
E3C0
EF80
FF00
FC00
F000
E000
E000
E000
E000
E000
ENDCHAR
STARTCHAR 01F8
ENCODING 504
SWIDTH 510 0
DWIDTH 17 0
BBX 13 28 2 0
BITMAP
0400
0C00
0E00
0700
0380
0100
0000
0000
E038
E038
F038
F838
F838
DC38
CC38
CE38
C638
C738
C338
C3B8
C1B8
C1B8
C1F8
C0F8
C0F8
C078
C078
C038
ENDCHAR
STARTCHAR 01F9
ENCODING 505
SWIDTH 510 0
DWIDTH 17 0
BBX 12 23 2 0
BITMAP
0800
1C00
0E00
0600
0300
0100
0000
0000
7F80
FFE0
FFE0
E0F0
E070
E070
E070
E030
E030
E030
E030
E030
E030
E030
E030
ENDCHAR
STARTCHAR 01FA
ENCODING 506
SWIDTH 510 0
DWIDTH 17 0
BBX 16 29 0 0
BITMAP
0040
01E0
03C0
0300
0000
01C0
0260
0220
0260
03E0
03C0
03E0
0760
0670
0630
0E30
0C38
0C38
1C18
181C
181C
3FFC
3FFC
3FFE
700E
700E
7007
6007
E007
ENDCHAR
STARTCHAR 01FB
ENCODING 507
SWIDTH 510 0
DWIDTH 17 0
BBX 12 27 2 0
BITMAP
0100
0780
0F00
0800
0000
0700
0980
0880
0980
0700
0000
0000
1F80
3FE0
3FF0
20F0
0070
0030
1FF0
7FF0
F030
E030
E030
F030
FFF0
7FF0
1FF0
ENDCHAR
STARTCHAR 01FC
ENCODING 508
SWIDTH 510 0
DWIDTH 17 0
BBX 15 28 1 0
BITMAP
0010
0018
0038
0070
00E0
0040
0000
0000
03FC
03FC
07FC
06C0
06C0
0CC0
0CC0
1CC0
18FC
18FC
18FC
38C0
3FC0
3FC0
7FC0
70C0
60C0
60FE
E0FE
E0FE
ENDCHAR
STARTCHAR 01FD
ENCODING 509
SWIDTH 510 0
DWIDTH 17 0
BBX 15 23 1 0
BITMAP
0040
00E0
00E0
01C0
0380
0100
0000
0000
3C70
7EFC
7FFC
478C
038E
038E
3FFE
7FFE
E380
E380
E180
E3C4
FFFC
7FFC
3E78
ENDCHAR
STARTCHAR 01FE
ENCODING 510
SWIDTH 510 0
DWIDTH 17 0
BBX 15 29 1 -1
BITMAP
0040
00E0
01C0
0380
0300
0200
0000
0010
07F8
1FF0
3FF8
7878
70FC
70FC
E1CC
E1CC
E18E
E38E
E30E
E70E
E60C
EE1C
EC1C
7C3C
7878
3FF8
3FF0
7FC0
2000
ENDCHAR
STARTCHAR 01FF
ENCODING 511
SWIDTH 510 0
DWIDTH 17 0
BBX 14 24 1 -1
BITMAP
0040
00E0
01C0
0380
0300
0200
0000
0008
07DC
1FF8
3FF8
7878
707C
E0DC
E19C
E31C
E71C
EE1C
7C3C
7878
3FF8
7FF0
67C0
4000
ENDCHAR
STARTCHAR 0200
ENCODING 512
SWIDTH 510 0
DWIDTH 17 0
BBX 16 28 0 0
BITMAP
0840
1CE0
0E70
0630
0338
0110
0000
0000
03C0
03E0
03E0
0760
0670
0670
0E30
0C38
0C38
1C18
1C1C
181C
381C
3FFC
3FFE
7FFE
700E
7007
7007
E007
ENDCHAR
STARTCHAR 0201
ENCODING 513
SWIDTH 510 0
DWIDTH 17 0
BBX 12 23 2 0
BITMAP
2100
7380
39C0
18C0
0CE0
0440
0000
0000
1F80
3FE0
3FF0
20F0
0070
0030
1FF0
7FF0
F030
E030
E030
F030
FFF0
7FF0
1FF0
ENDCHAR
STARTCHAR 0202
ENCODING 514
SWIDTH 510 0
DWIDTH 17 0
BBX 16 27 0 0
BITMAP
03C0
07E0
0630
0C30
0000
0000
0000
03C0
03E0
03E0
0760
0670
0670
0E30
0C38
0C38
1C18
1C1C
181C
381C
3FFC
3FFE
7FFE
700E
7007
7007
E007
ENDCHAR
STARTCHAR 0203
ENCODING 515
SWIDTH 510 0
DWIDTH 17 0
BBX 12 22 2 0
BITMAP
0F00
1F80
18C0
30C0
0000
0000
0000
1F80
3FE0
3FF0
20F0
0070
0030
1FF0
7FF0
F030
E030
E030
F030
FFF0
7FF0
1FF0
ENDCHAR
STARTCHAR 0204
ENCODING 516
SWIDTH 510 0
DWIDTH 17 0
BBX 12 28 3 0
BITMAP
4200
E700
7380
3180
19C0
0880
0000
0000
FFE0
FFE0
FFE0
E000
E000
E000
E000
E000
FFC0
FFC0
FFC0
E000
E000
E000
E000
E000
E000
FFF0
FFF0
FFF0
ENDCHAR
STARTCHAR 0205
ENCODING 517
SWIDTH 510 0
DWIDTH 17 0
BBX 14 23 1 0
BITMAP
1080
39C0
1CE0
0C60
0670
0220
0000
0000
07C0
1FF0
3FF8
7838
701C
601C
FFFC
FFFC
E000
E000
7000
7C08
3FF8
1FF8
07F0
ENDCHAR
STARTCHAR 0206
ENCODING 518
SWIDTH 510 0
DWIDTH 17 0
BBX 12 27 3 0
BITMAP
0F00
1F80
38C0
30C0
0000
0000
0000
FFE0
FFE0
FFE0
E000
E000
E000
E000
E000
FFC0
FFC0
FFC0
E000
E000
E000
E000
E000
E000
FFF0
FFF0
FFF0
ENDCHAR
STARTCHAR 0207
ENCODING 519
SWIDTH 510 0
DWIDTH 17 0
BBX 14 22 1 0
BITMAP
03C0
07E0
0C70
0C30
0000
0000
0000
07C0
1FF0
3FF8
7838
701C
601C
FFFC
FFFC
E000
E000
7000
7C08
3FF8
1FF8
07F0
ENDCHAR
STARTCHAR 0208
ENCODING 520
SWIDTH 510 0
DWIDTH 17 0
BBX 11 28 3 0
BITMAP
4200
C600
E700
7380
3180
1080
0000
0000
FFE0
FFE0
FFE0
0E00
0E00
0E00
0E00
0E00
0E00
0E00
0E00
0E00
0E00
0E00
0E00
0E00
0E00
FFE0
FFE0
FFE0
ENDCHAR
STARTCHAR 0209
ENCODING 521
SWIDTH 510 0
DWIDTH 17 0
BBX 13 23 2 0
BITMAP
4400
C600
E700
7300
3180
1080
0000
0000
FE00
FE00
FE00
0E00
0E00
0E00
0E00
0E00
0E00
0E00
0E00
0F00
07F8
07F8
03F0
ENDCHAR
STARTCHAR 020A
ENCODING 522
SWIDTH 510 0
DWIDTH 17 0
BBX 11 27 3 0
BITMAP
1E00
3F00
3180
6180
0000
0000
0000
FFE0
FFE0
FFE0
0E00
0E00
0E00
0E00
0E00
0E00
0E00
0E00
0E00
0E00
0E00
0E00
0E00
0E00
FFE0
FFE0
FFE0
ENDCHAR
STARTCHAR 020B
ENCODING 523
SWIDTH 510 0
DWIDTH 17 0
BBX 13 22 2 0
BITMAP
1E00
3F00
7180
6180
0000
0000
0000
FE00
FE00
FE00
0E00
0E00
0E00
0E00
0E00
0E00
0E00
0E00
0F00
07F8
07F8
03F0
ENDCHAR
STARTCHAR 020C
ENCODING 524
SWIDTH 510 0
DWIDTH 17 0
BBX 15 28 1 0
BITMAP
1080
3180
39C0
1CE0
0C60
0420
0000
0000
07C0
1FF0
3FF8
7878
703C
F01C
E01C
E00C
E00E
E00E
E00E
E00E
E00C
E01C
E01C
703C
7878
3FF8
1FF0
07C0
ENDCHAR
STARTCHAR 020D
ENCODING 525
SWIDTH 510 0
DWIDTH 17 0
BBX 14 23 1 0
BITMAP
1080
3180
39C0
1CE0
0C60
0420
0000
0000
07C0
1FF0
3FF8
7878
703C
E01C
E01C
E01C
E01C
E01C
703C
7878
3FF8
1FF0
0FC0
ENDCHAR
STARTCHAR 020E
ENCODING 526
SWIDTH 510 0
DWIDTH 17 0
BBX 15 27 1 0
BITMAP
0780
0FC0
0C60
1860
0000
0000
0000
07C0
1FF0
3FF8
7878
703C
F01C
E01C
E00C
E00E
E00E
E00E
E00E
E00C
E01C
E01C
703C
7878
3FF8
1FF0
07C0
ENDCHAR
STARTCHAR 020F
ENCODING 527
SWIDTH 510 0
DWIDTH 17 0
BBX 14 22 1 0
BITMAP
0780
0FC0
0C60
1860
0000
0000
0000
07C0
1FF0
3FF8
7878
703C
E01C
E01C
E01C
E01C
E01C
703C
7878
3FF8
1FF0
0FC0
ENDCHAR
STARTCHAR 0210
ENCODING 528
SWIDTH 510 0
DWIDTH 17 0
BBX 13 28 2 0
BITMAP
2200
6700
7380
3980
18C0
08C0
0000
0000
FF00
FFC0
FFE0
E0F0
E070
E070
E070
E070
E070
E0F0
FFE0
FFC0
FF80
E380
E1C0
E0E0
E0E0
E070
E030
E038
ENDCHAR
STARTCHAR 0211
ENCODING 529
SWIDTH 510 0
DWIDTH 17 0
BBX 11 23 3 0
BITMAP
4200
C600
E700
7380
3180
1080
0000
0000
1FE0
7FE0
7FE0
6000
6000
6000
6000
6000
6000
6000
6000
6000
6000
6000
6000
ENDCHAR
STARTCHAR 0212
ENCODING 530
SWIDTH 510 0
DWIDTH 17 0
BBX 13 27 2 0
BITMAP
1E00
3F80
3180
6180
0000
0000
0000
FF00
FFC0
FFE0
E0F0
E070
E070
E070
E070
E070
E0F0
FFE0
FFC0
FF80
E380
E1C0
E0E0
E0E0
E070
E030
E038
ENDCHAR
STARTCHAR 0213
ENCODING 531
SWIDTH 510 0
DWIDTH 17 0
BBX 10 22 4 0
BITMAP
1E00
3F00
7180
6180
0000
0000
0000
3FC0
FFC0
FFC0
C000
C000
C000
C000
C000
C000
C000
C000
C000
C000
C000
C000
ENDCHAR
STARTCHAR 0214
ENCODING 532
SWIDTH 510 0
DWIDTH 17 0
BBX 13 28 2 0
BITMAP
2100
7380
3180
19C0
1CE0
0840
0000
0000
C038
C038
C038
C038
C038
C038
C038
C038
C038
C038
C038
C038
C038
C038
E038
E078
F0F0
7FF0
3FE0
1F80
ENDCHAR
STARTCHAR 0215
ENCODING 533
SWIDTH 510 0
DWIDTH 17 0
BBX 12 23 2 0
BITMAP
2100
6300
7380
39C0
18C0
0840
0000
0000
E070
E070
E070
E070
E070
E070
E070
E070
E070
E070
F070
7870
7FF0
3FF0
1FE0
ENDCHAR
STARTCHAR 0216
ENCODING 534
SWIDTH 510 0
DWIDTH 17 0
BBX 13 27 2 0
BITMAP
0F00
1F80
18C0
30C0
0000
0000
0000
C038
C038
C038
C038
C038
C038
C038
C038
C038
C038
C038
C038
C038
C038
E038
E078
F0F0
7FF0
3FE0
1F80
ENDCHAR
STARTCHAR 0217
ENCODING 535
SWIDTH 510 0
DWIDTH 17 0
BBX 12 22 2 0
BITMAP
0F00
1F80
18C0
30C0
0000
0000
0000
E070
E070
E070
E070
E070
E070
E070
E070
E070
E070
F070
7870
7FF0
3FF0
1FE0
ENDCHAR
STARTCHAR 0218
ENCODING 536
SWIDTH 510 0
DWIDTH 17 0
BBX 13 25 2 -5
BITMAP
0FC0
3FF0
7FF0
7020
E000
E000
E000
7800
7E00
3FC0
0FE0
01F0
0070
0038
0038
0038
C070
FFF0
FFE0
3F80
0000
0600
0E00
3E00
3C00
ENDCHAR
STARTCHAR 0219
ENCODING 537
SWIDTH 510 0
DWIDTH 17 0
BBX 12 20 2 -5
BITMAP
1FE0
3FE0
7FE0
7020
E000
7800
7F00
3FC0
07F0
00F0
0070
4070
FFF0
FFE0
3FC0
0000
0600
0E00
3E00
3C00
ENDCHAR
STARTCHAR 021A
ENCODING 538
SWIDTH 510 0
DWIDTH 17 0
BBX 14 25 1 -5
BITMAP
FFFC
FFFC
FFFC
0380
0380
0380
0380
0380
0380
0380
0380
0380
0380
0380
0380
0380
0380
0380
0380
0380
0000
0380
0380
0F00
0E00
ENDCHAR
STARTCHAR 021B
ENCODING 539
SWIDTH 510 0
DWIDTH 17 0
BBX 13 25 2 -5
BITMAP
1C00
1C00
1C00
1C00
1C00
FFF0
FFF0
FFF0
1C00
1C00
1C00
1C00
1C00
1C00
1C00
1C00
1E08
0FF8
0FF8
03F0
0000
01C0
01C0
0780
0700
ENDCHAR
STARTCHAR 021C
ENCODING 540
SWIDTH 510 0
DWIDTH 17 0
BBX 14 25 1 -5
BITMAP
3FC0
FFF0
FFF8
4078
0038
001C
001C
0018
0038
00F0
1FE0
1FE0
1FF0
00F8
003C
001C
000C
000C
001C
001C
003C
01F8
FFF0
FFC0
FE00
ENDCHAR
STARTCHAR 021D
ENCODING 541
SWIDTH 510 0
DWIDTH 17 0
BBX 12 20 2 -5
BITMAP
7F00
FFC0
FFE0
C0E0
0070
0070
00E0
01E0
1FC0
1F80
1FE0
01F0
0070
0070
0070
0070
00E0
07C0
FF80
FC00
ENDCHAR
STARTCHAR 021E
ENCODING 542
SWIDTH 510 0
DWIDTH 17 0
BBX 14 28 1 0
BITMAP
0820
1C60
0EC0
0780
0380
0100
0000
0000
E01C
E01C
E01C
E01C
E01C
E01C
E01C
E01C
FFFC
FFFC
FFFC
E01C
E01C
E01C
E01C
E01C
E01C
E01C
E01C
E01C
ENDCHAR
STARTCHAR 021F
ENCODING 543
SWIDTH 510 0
DWIDTH 17 0
BBX 12 28 2 0
BITMAP
8400
CC00
7800
3000
0000
E000
E000
E000
E000
E000
E000
E000
E000
FF80
FFE0
FFE0
E0F0
E070
E070
E070
E030
E030
E030
E030
E030
E030
E030
E030
ENDCHAR
STARTCHAR 0220
ENCODING 544
SWIDTH 510 0
DWIDTH 17 0
BBX 14 25 1 -5
BITMAP
3FC0
FFF0
FFF8
E078
E03C
E01C
E01C
E01C
E01C
E01C
E01C
E01C
E01C
E01C
E01C
E01C
E01C
E01C
E01C
E01C
001C
001C
001C
001C
001C
ENDCHAR
STARTCHAR 0221
ENCODING 545
SWIDTH 510 0
DWIDTH 17 0
BBX 16 28 1 -5
BITMAP
01C0
01C0
01C0
01C0
01C0
01C0
01C0
01C0
3DC0
7FC0
7FC0
F3C0
E1C0
E1C0
E1C0
E1C0
E1C0
E1C0
E1C0
F1FC
7FFE
3FC6
1FC6
03C7
03C6
06C6
0CFE
0478
ENDCHAR
STARTCHAR 0222
ENCODING 546
SWIDTH 510 0
DWIDTH 17 0
BBX 14 20 1 0
BITMAP
3838
3838
3038
3038
3038
3038
3838
3C70
1FF0
1FE0
3FF8
783C
E01C
E00C
E00C
E01C
783C
7FF8
3FF0
0FE0
ENDCHAR
STARTCHAR 0223
ENCODING 547
SWIDTH 510 0
DWIDTH 17 0
BBX 14 23 1 0
BITMAP
7038
7018
7018
7018
7018
7018
7038
3878
1FF0
1FE0
3FF8
7878
701C
E01C
E00C
E00C
E00C
E01C
701C
787C
3FF8
1FF0
0FC0
ENDCHAR
STARTCHAR 0224
ENCODING 548
SWIDTH 510 0
DWIDTH 17 0
BBX 13 26 2 -6
BITMAP
FFF8
FFF8
FFF8
0070
00E0
00E0
01C0
0380
0300
0700
0E00
1C00
1C00
3800
3000
7000
E000
FFF8
FFF8
FFF8
0038
0038
0038
0038
01F0
01E0
ENDCHAR
STARTCHAR 0225
ENCODING 549
SWIDTH 510 0
DWIDTH 17 0
BBX 12 21 2 -6
BITMAP
7FF0
7FF0
7FF0
00E0
01C0
0380
0700
0E00
1C00
1C00
3800
7000
FFF0
FFF0
FFF0
0030
0030
0070
0070
03E0
03C0
ENDCHAR
STARTCHAR 0226
ENCODING 550
SWIDTH 510 0
DWIDTH 17 0
BBX 16 27 0 0
BITMAP
01C0
03C0
03C0
01C0
0000
0000
0000
03C0
03E0
03E0
0760
0670
0670
0E30
0C38
0C38
1C18
1C1C
181C
381C
3FFC
3FFE
7FFE
700E
7007
7007
E007
ENDCHAR
STARTCHAR 0227
ENCODING 551
SWIDTH 510 0
DWIDTH 17 0
BBX 12 22 2 0
BITMAP
0700
0F00
0F00
0700
0000
0000
0000
1F80
3FE0
3FF0
20F0
0070
0030
1FF0
7FF0
F030
E030
E030
F030
FFF0
7FF0
1FF0
ENDCHAR
STARTCHAR 0228
ENCODING 552
SWIDTH 510 0
DWIDTH 17 0
BBX 12 26 3 -6
BITMAP
FFE0
FFE0
FFE0
E000
E000
E000
E000
E000
FFC0
FFC0
FFC0
E000
E000
E000
E000
E000
E000
FFF0
FFF0
FFF0
0600
0700
0300
0300
1F00
1E00
ENDCHAR
STARTCHAR 0229
ENCODING 553
SWIDTH 510 0
DWIDTH 17 0
BBX 14 21 1 -6
BITMAP
07C0
1FF0
3FF8
7838
701C
601C
FFFC
FFFC
E000
6000
7000
7C08
3FF8
1FF8
07F0
0180
0380
01C0
01C0
07C0
0780
ENDCHAR
STARTCHAR 022A
ENCODING 554
SWIDTH 510 0
DWIDTH 17 0
BBX 15 27 1 0
BITMAP
0FE0
0FE0
0000
1860
1C70
1860
0000
0FC0
1FF0
3FF8
7878
703C
E01C
E01C
E00C
E00E
E00E
E00E
E00E
E00C
E01C
E01C
703C
7878
3FF8
1FF0
0FC0
ENDCHAR
STARTCHAR 022B
ENCODING 555
SWIDTH 510 0
DWIDTH 17 0
BBX 14 23 1 0
BITMAP
0FE0
0FE0
0000
1860
1C70
1860
0000
0000
07C0
1FF0
3FF8
7878
703C
E01C
E01C
E01C
E01C
E01C
703C
7878
3FF8
1FF0
0FC0
ENDCHAR
STARTCHAR 022C
ENCODING 556
SWIDTH 510 0
DWIDTH 17 0
BBX 15 27 1 0
BITMAP
1FE0
1FE0
0000
0E30
1FE0
11C0
0000
0FC0
1FF0
3FF8
7878
703C
E01C
E01C
E00C
E00E
E00E
E00E
E00E
E00C
E01C
E01C
703C
7878
3FF8
1FF0
0FC0
ENDCHAR
STARTCHAR 022D
ENCODING 557
SWIDTH 510 0
DWIDTH 17 0
BBX 14 23 1 0
BITMAP
1FE0
1FE0
0000
0E30
1FE0
11C0
0000
0000
07C0
1FF0
3FF8
7878
703C
E01C
E01C
E01C
E01C
E01C
703C
7878
3FF8
1FF0
0FC0
ENDCHAR
STARTCHAR 022E
ENCODING 558
SWIDTH 510 0
DWIDTH 17 0
BBX 15 27 1 0
BITMAP
0380
0780
0780
0380
0000
0000
0000
07C0
1FF0
3FF8
7878
703C
F01C
E01C
E00C
E00E
E00E
E00E
E00E
E00C
E01C
E01C
703C
7878
3FF8
1FF0
07C0
ENDCHAR
STARTCHAR 022F
ENCODING 559
SWIDTH 510 0
DWIDTH 17 0
BBX 14 22 1 0
BITMAP
0380
0780
0780
0380
0000
0000
0000
07C0
1FF0
3FF8
7878
703C
E01C
E01C
E01C
E01C
E01C
703C
7878
3FF8
1FF0
0FC0
ENDCHAR
STARTCHAR 0230
ENCODING 560
SWIDTH 510 0
DWIDTH 17 0
BBX 15 27 1 0
BITMAP
0FE0
0FE0
0000
0300
0380
0300
0000
0FC0
1FF0
3FF8
7878
703C
E01C
E01C
E00C
E00E
E00E
E00E
E00E
E00C
E01C
E01C
703C
7878
3FF8
1FF0
0FC0
ENDCHAR
STARTCHAR 0231
ENCODING 561
SWIDTH 510 0
DWIDTH 17 0
BBX 14 23 1 0
BITMAP
0FE0
0FE0
0000
0300
0380
0300
0000
0000
07C0
1FF0
3FF8
7878
703C
E01C
E01C
E01C
E01C
E01C
703C
7878
3FF8
1FF0
0FC0
ENDCHAR
STARTCHAR 0232
ENCODING 562
SWIDTH 510 0
DWIDTH 17 0
BBX 15 26 1 0
BITMAP
1FE0
1FE0
0000
0000
0000
0000
E00E
E00C
E01C
701C
7038
3838
3870
1C70
1EE0
0FC0
07C0
0780
0380
0380
0380
0380
0380
0380
0380
0380
ENDCHAR
STARTCHAR 0233
ENCODING 563
SWIDTH 510 0
DWIDTH 17 0
BBX 14 26 1 -5
BITMAP
1FE0
1FE0
0000
0000
0000
0000
701C
701C
701C
3838
3838
3838
1C30
1C70
0C70
0E60
0EE0
07E0
07C0
03C0
0180
0380
0700
7F00
FE00
F800
ENDCHAR
STARTCHAR 0234
ENCODING 564
SWIDTH 510 0
DWIDTH 17 0
BBX 12 28 2 -5
BITMAP
FC00
FC00
FC00
1C00
1C00
1C00
1C00
1C00
1C00
1C00
1C00
1C00
1C00
1C00
1C00
1C00
1C00
1C00
1C00
1C00
1FC0
1FF0
1C70
1C30
3C30
7E70
EFE0
43C0
ENDCHAR
STARTCHAR 0235
ENCODING 565
SWIDTH 510 0
DWIDTH 17 0
BBX 15 20 1 -5
BITMAP
7E00
FF80
FF80
E380
E1C0
E1C0
E1C0
E1C0
E1C0
E1C0
E1C0
E1C0
E1FC
E1FE
E1C6
01C6
03C6
07C6
0EFE
047C
ENDCHAR
STARTCHAR 0236
ENCODING 566
SWIDTH 510 0
DWIDTH 17 0
BBX 12 25 2 -5
BITMAP
1C00
1C00
1C00
1C00
1C00
FFF0
FFF0
FFF0
1C00
1C00
1C00
1C00
1C00
1C00
1C00
1C00
1C00
1FC0
1FF0
1E70
1C30
3C30
7E70
E7E0
43C0
ENDCHAR
STARTCHAR 0237
ENCODING 567
SWIDTH 510 0
DWIDTH 17 0
BBX 11 20 2 -5
BITMAP
3FE0
3FE0
3FE0
00E0
00E0
00E0
00E0
00E0
00E0
00E0
00E0
00E0
00E0
00E0
00E0
00E0
41C0
7FC0
FF80
3F00
ENDCHAR
STARTCHAR 0238
ENCODING 568
SWIDTH 510 0
DWIDTH 17 0
BBX 15 23 1 0
BITMAP
0300
0300
0300
0300
0300
0300
0300
0300
3F70
7FF8
679C
E30C
E30C
E30E
C30E
C30E
C30E
E30E
E30C
E31C
731C
7FF8
1EF0
ENDCHAR
STARTCHAR 0239
ENCODING 569
SWIDTH 510 0
DWIDTH 17 0
BBX 15 20 1 -5
BITMAP
1EF0
7FF8
731C
E30C
E30C
E30C
C30E
C30E
C30E
C30E
E30C
E30C
679C
7FF8
3F70
0300
0300
0300
0300
0300
ENDCHAR
STARTCHAR 023A
ENCODING 570
SWIDTH 510 0
DWIDTH 17 0
BBX 16 25 0 -3
BITMAP
000C
001C
03D8
03D8
03F8
0770
0670
0670
0E70
0C78
0C78
1C78
1CD8
18DC
38DC
3FFC
3FFE
7FFE
718E
7386
7307
E307
0700
0600
0600
ENDCHAR
STARTCHAR 023B
ENCODING 571
SWIDTH 510 0
DWIDTH 17 0
BBX 14 25 2 -3
BITMAP
0030
0030
07F0
1FFC
3FF8
7C78
70E0
E0C0
E0C0
E1C0
C180
C180
C380
C300
E300
E700
F600
7600
7E18
3FF8
1FF8
0FE0
1C00
1800
1800
ENDCHAR
STARTCHAR 023C
ENCODING 572
SWIDTH 510 0
DWIDTH 17 0
BBX 14 19 1 -2
BITMAP
0030
0030
07F8
1FFC
3FF8
7C68
70C0
F0C0
E0C0
E180
E180
F300
7300
7F0C
3FFC
1FFC
07F0
0E00
0400
ENDCHAR
STARTCHAR 023D
ENCODING 573
SWIDTH 510 0
DWIDTH 17 0
BBX 14 20 1 0
BITMAP
1800
1800
1800
1800
1800
1800
1800
1800
FFC0
FFC0
FFC0
1800
1800
1800
1800
1800
1800
1FFC
1FFC
1FFC
ENDCHAR
STARTCHAR 023E
ENCODING 574
SWIDTH 510 0
DWIDTH 17 0
BBX 15 23 1 -1
BITMAP
0006
0006
FFFE
FFFC
FFF8
0718
0730
0760
0760
07C0
0780
0780
0700
0700
0700
0F00
1F00
1F00
3700
7700
6700
C700
4000
ENDCHAR
STARTCHAR 023F
ENCODING 575
SWIDTH 510 0
DWIDTH 17 0
BBX 12 20 2 -5
BITMAP
1FC0
3FE0
7FE0
7020
E000
7000
7C00
3F80
0FE0
01F0
0070
0030
4070
7FE0
FF80
7800
3C00
0F00
07F0
01F0
ENDCHAR
STARTCHAR 0240
ENCODING 576
SWIDTH 510 0
DWIDTH 17 0
BBX 13 20 2 -5
BITMAP
7FF0
7FF0
7FF0
00E0
01C0
0380
0700
0700
0E00
1C00
3800
3800
7000
F800
FE00
1F00
07C0
03F8
01F8
0078
ENDCHAR
STARTCHAR 0241
ENCODING 577
SWIDTH 510 0
DWIDTH 17 0
BBX 12 20 3 0
BITMAP
3F00
FFC0
FFE0
C1F0
0070
0070
0070
00E0
03E0
07C0
0F00
1E00
1C00
1800
1800
1800
1800
1800
1800
1800
ENDCHAR
STARTCHAR 0242
ENCODING 578
SWIDTH 510 0
DWIDTH 17 0
BBX 11 15 3 0
BITMAP
3F00
FFC0
FFE0
C0E0
00E0
00E0
01C0
07C0
0F00
1E00
1C00
1800
1800
1800
1800
ENDCHAR
STARTCHAR 0243
ENCODING 579
SWIDTH 510 0
DWIDTH 17 0
BBX 14 20 1 0
BITMAP
7FC0
7FF0
7FF0
7078
7038
7038
7038
7070
7FE0
7FE0
7FF0
7078
701C
FF1C
FF1C
FF1C
7078
7FF8
7FF0
7FC0
ENDCHAR
STARTCHAR 0244
ENCODING 580
SWIDTH 510 0
DWIDTH 17 0
BBX 15 20 1 0
BITMAP
7038
7038
7038
7038
7038
7038
7038
7038
FFFE
FFFE
FFFE
7038
7038
7038
7038
7038
3878
3FF0
1FF0
0FC0
ENDCHAR
STARTCHAR 0245
ENCODING 581
SWIDTH 510 0
DWIDTH 17 0
BBX 16 20 0 0
BITMAP
03C0
03E0
03E0
0760
0670
0670
0E30
0C38
0C38
1C18
1C1C
181C
381C
380C
300E
300E
700E
7007
6007
E007
ENDCHAR
STARTCHAR 0246
ENCODING 582
SWIDTH 510 0
DWIDTH 17 0
BBX 12 25 3 -3
BITMAP
0030
0030
FFF0
FFE0
FFE0
E060
E0C0
E0C0
E1C0
E180
FFE0
FFE0
FFE0
E300
E700
E600
E600
EE00
EC00
FFF0
FFF0
FFF0
1800
3800
3000
ENDCHAR
STARTCHAR 0247
ENCODING 583
SWIDTH 510 0
DWIDTH 17 0
BBX 14 19 1 -2
BITMAP
0060
0060
07C0
1FF0
38F8
7198
619C
E19C
FFFC
FFFC
E300
E600
7600
7C08
3FF8
1FF8
0FF0
1800
1800
ENDCHAR
STARTCHAR 0248
ENCODING 584
SWIDTH 510 0
DWIDTH 17 0
BBX 14 20 2 0
BITMAP
3FF0
3FF0
3FF0
0070
0070
0070
0070
0070
07FC
07FC
07FC
0070
0070
0070
0070
40E0
E1E0
FFE0
FFC0
3F00
ENDCHAR
STARTCHAR 0249
ENCODING 585
SWIDTH 510 0
DWIDTH 17 0
BBX 13 26 2 -5
BITMAP
01C0
03C0
03C0
01C0
0000
0000
3FE0
3FE0
3FE0
00E0
00E0
00E0
3FF8
3FF8
00E0
00E0
00E0
00E0
00E0
00E0
00E0
00E0
41C0
7FC0
FF80
3F00
ENDCHAR
STARTCHAR 024A
ENCODING 586
SWIDTH 510 0
DWIDTH 17 0
BBX 16 26 1 -6
BITMAP
0F80
1FE0
3FF0
78F0
7078
E038
E038
E038
E018
E018
E018
E018
E018
E038
E038
7038
7878
3FF8
1FD8
0F98
0018
0018
001C
001F
001F
000F
ENDCHAR
STARTCHAR 024B
ENCODING 587
SWIDTH 510 0
DWIDTH 17 0
BBX 15 20 1 -5
BITMAP
07F0
1FF8
3FF8
7838
7038
E038
E038
E038
E038
E038
7038
7878
3FF8
1FF8
0FB8
0038
0038
0038
001E
001E
ENDCHAR
STARTCHAR 024C
ENCODING 588
SWIDTH 510 0
DWIDTH 17 0
BBX 14 20 1 0
BITMAP
3FC0
3FE0
3FF0
3078
3038
3018
301C
3018
3038
3078
FFF0
FFE0
FFC0
30E0
30E0
3070
3038
3038
301C
301C
ENDCHAR
STARTCHAR 024D
ENCODING 589
SWIDTH 510 0
DWIDTH 17 0
BBX 13 15 1 0
BITMAP
0FF8
3FF8
3FF8
3800
3800
3800
3800
FFC0
FFC0
3800
3800
3800
3800
3800
3800
ENDCHAR
STARTCHAR 024E
ENCODING 590
SWIDTH 510 0
DWIDTH 17 0
BBX 15 20 1 0
BITMAP
E00E
E01C
701C
7038
FFFE
FFFE
1C70
1CE0
0EE0
0FC0
07C0
0780
0380
0380
0380
0380
0380
0380
0380
0380
ENDCHAR
STARTCHAR 024F
ENCODING 591
SWIDTH 510 0
DWIDTH 17 0
BBX 14 20 2 -5
BITMAP
E038
E038
6038
7030
7070
3070
FFFC
FFFC
18E0
1CE0
0CC0
0FC0
0780
0780
0380
0700
0F00
FE00
FC00
F000
ENDCHAR
STARTCHAR 0292
ENCODING 658
SWIDTH 510 0
DWIDTH 17 0
BBX 12 20 2 -5
BITMAP
FFF0
FFF0
FFE0
00E0
01C0
0380
0700
0E00
1F00
1FC0
01E0
0070
0070
0070
0070
0070
81F0
FFE0
FFC0
7F00
ENDCHAR
STARTCHAR 02BC
ENCODING 700
SWIDTH 510 0
DWIDTH 17 0
BBX 3 6 7 17
BITMAP
60
60
E0
E0
C0
C0
ENDCHAR
STARTCHAR 02C6
ENCODING 710
SWIDTH 510 0
DWIDTH 17 0
BBX 8 6 4 17
BITMAP
08
1C
3C
76
E3
41
ENDCHAR
STARTCHAR 02C7
ENCODING 711
SWIDTH 510 0
DWIDTH 17 0
BBX 8 6 4 17
BITMAP
41
E3
76
3C
1C
08
ENDCHAR
STARTCHAR 02C9
ENCODING 713
SWIDTH 510 0
DWIDTH 17 0
BBX 8 2 4 19
BITMAP
FF
FF
ENDCHAR
STARTCHAR 02D8
ENCODING 728
SWIDTH 510 0
DWIDTH 17 0
BBX 8 4 4 18
BITMAP
C3
63
7E
3C
ENDCHAR
STARTCHAR 02D9
ENCODING 729
SWIDTH 510 0
DWIDTH 17 0
BBX 4 4 6 18
BITMAP
70
F0
F0
70
ENDCHAR
STARTCHAR 02DA
ENCODING 730
SWIDTH 510 0
DWIDTH 17 0
BBX 6 5 5 17
BITMAP
78
CC
C4
CC
78
ENDCHAR
STARTCHAR 02DB
ENCODING 731
SWIDTH 510 0
DWIDTH 17 0
BBX 5 6 6 -6
BITMAP
70
60
C0
C0
F8
78
ENDCHAR
STARTCHAR 02DC
ENCODING 732
SWIDTH 510 0
DWIDTH 17 0
BBX 9 3 4 18
BITMAP
7180
FF00
CE00
ENDCHAR
STARTCHAR 02DD
ENCODING 733
SWIDTH 510 0
DWIDTH 17 0
BBX 9 6 4 17
BITMAP
2100
3380
7380
E700
CE00
8400
ENDCHAR
STARTCHAR 0311
ENCODING 785
SWIDTH 510 0
DWIDTH 17 0
BBX 8 4 4 18
BITMAP
3C
7E
63
C3
ENDCHAR
STARTCHAR 0384
ENCODING 900
SWIDTH 510 0
DWIDTH 17 0
BBX 5 6 6 17
BITMAP
20
38
70
E0
C0
80
ENDCHAR
STARTCHAR 0385
ENCODING 901
SWIDTH 510 0
DWIDTH 17 0
BBX 12 6 2 17
BITMAP
0200
0700
6660
EE70
EC60
0C00
ENDCHAR
STARTCHAR 0386
ENCODING 902
SWIDTH 510 0
DWIDTH 17 0
BBX 16 20 0 0
BITMAP
33C0
73E0
73E0
6760
6670
E670
0E30
0C38
0C38
1C18
1C1C
181C
381C
3FFC
3FFE
7FFE
700E
7007
7007
E007
ENDCHAR
STARTCHAR 0388
ENCODING 904
SWIDTH 510 0
DWIDTH 17 0
BBX 17 20 -2 0
BITMAP
67FF00
67FF00
E7FF00
E70000
C70000
C70000
070000
070000
07FE00
07FE00
07FE00
070000
070000
070000
070000
070000
070000
07FF80
07FF80
07FF80
ENDCHAR
STARTCHAR 0389
ENCODING 905
SWIDTH 510 0
DWIDTH 17 0
BBX 19 20 -4 0
BITMAP
7700E0
7700E0
6700E0
6700E0
E700E0
C700E0
0700E0
0700E0
07FFE0
07FFE0
07FFE0
0700E0
0700E0
0700E0
0700E0
0700E0
0700E0
0700E0
0700E0
0700E0
ENDCHAR
STARTCHAR 038A
ENCODING 906
SWIDTH 510 0
DWIDTH 17 0
BBX 16 20 -2 0
BITMAP
67FF
67FF
E7FF
E070
C070
C070
0070
0070
0070
0070
0070
0070
0070
0070
0070
0070
0070
07FF
07FF
07FF
ENDCHAR
STARTCHAR 038C
ENCODING 908
SWIDTH 510 0
DWIDTH 17 0
BBX 18 20 -2 0
BITMAP
60F800
63FE00
E7FF00
EF0F00
CE0780
DE0380
1C0380
1C0180
1C01C0
1C01C0
1C01C0
1C01C0
1C0180
1C0380
1C0380
0E0780
0F0F00
07FF00
03FE00
00F800
ENDCHAR
STARTCHAR 038E
ENCODING 910
SWIDTH 510 0
DWIDTH 17 0
BBX 20 20 -4 0
BITMAP
670070
670060
E700E0
E380E0
C381C0
C1C1C0
01C380
00E380
00F700
007E00
003E00
003C00
001C00
001C00
001C00
001C00
001C00
001C00
001C00
001C00
ENDCHAR
STARTCHAR 038F
ENCODING 911
SWIDTH 510 0
DWIDTH 17 0
BBX 18 20 -2 0
BITMAP
60F800
63FE00
E7FF00
EF0F00
CE0780
DE0380
1C0380
1C0180
1C0180
1C0180
1C0180
1C0380
0C0380
0E0300
0E0700
070600
030E00
1F9FC0
1F9FC0
1F9FC0
ENDCHAR
STARTCHAR 0390
ENCODING 912
SWIDTH 510 0
DWIDTH 17 0
BBX 14 23 1 0
BITMAP
0200
0300
6770
E670
6C70
0C00
0000
0000
7F00
7F00
7F00
0700
0700
0700
0700
0700
0700
0700
0700
0780
03FC
03FC
01F8
ENDCHAR
STARTCHAR 0391
ENCODING 913
SWIDTH 510 0
DWIDTH 17 0
BBX 16 20 0 0
BITMAP
03C0
03E0
03E0
0760
0670
0670
0E30
0C38
0C38
1C18
1C1C
181C
381C
3FFC
3FFE
7FFE
700E
7007
7007
E007
ENDCHAR
STARTCHAR 0392
ENCODING 914
SWIDTH 510 0
DWIDTH 17 0
BBX 13 20 2 0
BITMAP
FF80
FFC0
FFE0
C0F0
C070
C070
C070
C0E0
FFC0
FFC0
FFE0
C070
C038
C038
C038
C038
C0F0
FFF0
FFE0
FF80
ENDCHAR
STARTCHAR 0393
ENCODING 915
SWIDTH 510 0
DWIDTH 17 0
BBX 13 20 2 0
BITMAP
1FF8
1FF8
1FF8
1800
1800
1800
1800
1800
1800
1800
1800
1800
1800
1800
1800
1800
1800
FFC0
FFC0
FFC0
ENDCHAR
STARTCHAR 0394
ENCODING 916
SWIDTH 510 0
DWIDTH 17 0
BBX 16 20 0 0
BITMAP
01C0
03C0
03E0
0760
0770
0670
0E30
0C38
0C38
1C18
1818
181C
380C
380C
300E
300E
7006
7FFF
7FFF
FFFF
ENDCHAR
STARTCHAR 0395
ENCODING 917
SWIDTH 510 0
DWIDTH 17 0
BBX 12 20 3 0
BITMAP
FFE0
FFE0
FFE0
E000
E000
E000
E000
E000
FFC0
FFC0
FFC0
E000
E000
E000
E000
E000
E000
FFF0
FFF0
FFF0
ENDCHAR
STARTCHAR 0396
ENCODING 918
SWIDTH 510 0
DWIDTH 17 0
BBX 13 20 2 0
BITMAP
FFF8
FFF8
FFF8
0070
00E0
00E0
01C0
0380
0380
0700
0E00
1C00
1C00
3800
7000
7000
E000
FFF8
FFF8
FFF8
ENDCHAR
STARTCHAR 0397
ENCODING 919
SWIDTH 510 0
DWIDTH 17 0
BBX 14 20 1 0
BITMAP
E01C
E01C
E01C
E01C
E01C
E01C
E01C
E01C
FFFC
FFFC
FFFC
E01C
E01C
E01C
E01C
E01C
E01C
E01C
E01C
E01C
ENDCHAR
STARTCHAR 0398
ENCODING 920
SWIDTH 510 0
DWIDTH 17 0
BBX 15 20 1 0
BITMAP
07C0
1FF0
3FF8
7878
703C
F01C
E01C
E00C
E7CE
E7CE
E7CE
E00E
E00C
E01C
E01C
703C
7878
3FF8
1FF0
07C0
ENDCHAR
STARTCHAR 0399
ENCODING 921
SWIDTH 510 0
DWIDTH 17 0
BBX 11 20 3 0
BITMAP
FFE0
FFE0
FFE0
0E00
0E00
0E00
0E00
0E00
0E00
0E00
0E00
0E00
0E00
0E00
0E00
0E00
0E00
FFE0
FFE0
FFE0
ENDCHAR
STARTCHAR 039A
ENCODING 922
SWIDTH 510 0
DWIDTH 17 0
BBX 13 20 2 0
BITMAP
E070
E070
E0E0
E1C0
E3C0
E380
E700
EE00
FC00
FC00
FE00
EF00
E700
E380
E1C0
E0E0
E0E0
E070
E078
E038
ENDCHAR
STARTCHAR 039B
ENCODING 923
SWIDTH 510 0
DWIDTH 17 0
BBX 16 20 0 0
BITMAP
03C0
03E0
03E0
0760
0670
0670
0E30
0C38
0C38
1C18
1C1C
181C
381C
380C
300E
300E
700E
7007
6007
E007
ENDCHAR
STARTCHAR 039C
ENCODING 924
SWIDTH 510 0
DWIDTH 17 0
BBX 14 20 1 0
BITMAP
7038
7838
7878
787C
6C7C
6CFC
6CDC
6ECC
66CC
678C
678C
E38C
E00C
E00C
E00C
E00C
E00C
E00C
E00C
E00C
ENDCHAR
STARTCHAR 039D
ENCODING 925
SWIDTH 510 0
DWIDTH 17 0
BBX 13 20 2 0
BITMAP
E038
E038
F038
F838
F838
DC38
CC38
CE38
C638
C738
C338
C3B8
C3B8
C1B8
C1F8
C0F8
C0F8
C078
C078
C038
ENDCHAR
STARTCHAR 039E
ENCODING 926
SWIDTH 510 0
DWIDTH 17 0
BBX 14 20 1 0
BITMAP
7FFC
7FFC
7FFC
0000
0000
0000
0000
0000
3FF8
3FF8
3FF8
0000
0000
0000
0000
0000
0000
FFFC
FFFC
FFFC
ENDCHAR
STARTCHAR 039F
ENCODING 927
SWIDTH 510 0
DWIDTH 17 0
BBX 15 20 1 0
BITMAP
07C0
1FF0
3FF8
7878
703C
F01C
E01C
E00C
E00E
E00E
E00E
E00E
E00C
E01C
E01C
703C
7878
3FF8
1FF0
07C0
ENDCHAR
STARTCHAR 03A0
ENCODING 928
SWIDTH 510 0
DWIDTH 17 0
BBX 14 20 1 0
BITMAP
FFFC
FFFC
FFFC
E01C
E01C
E01C
E01C
E01C
E01C
E01C
E01C
E01C
E01C
E01C
E01C
E01C
E01C
E01C
E01C
E01C
ENDCHAR
STARTCHAR 03A1
ENCODING 929
SWIDTH 510 0
DWIDTH 17 0
BBX 13 20 2 0
BITMAP
FF80
FFE0
FFF0
E0F0
E038
E038
E038
E038
E038
E0F8
FFF0
FFE0
FF80
E000
E000
E000
E000
E000
E000
E000
ENDCHAR
STARTCHAR 03A3
ENCODING 931
SWIDTH 510 0
DWIDTH 17 0
BBX 14 20 1 0
BITMAP
7FFC
7FFC
7FFC
3000
3800
1C00
0E00
0700
0380
01C0
0380
0700
0E00
1C00
3800
3000
7000
FFFC
FFFC
FFFC
ENDCHAR
STARTCHAR 03A4
ENCODING 932
SWIDTH 510 0
DWIDTH 17 0
BBX 14 20 1 0
BITMAP
FFFC
FFFC
FFFC
0380
0380
0380
0380
0380
0380
0380
0380
0380
0380
0380
0380
0380
0380
0380
0380
0380
ENDCHAR
STARTCHAR 03A5
ENCODING 933
SWIDTH 510 0
DWIDTH 17 0
BBX 15 20 1 0
BITMAP
E00E
E00C
E01C
701C
7038
3838
3870
1C70
1EE0
0FC0
07C0
0780
0380
0380
0380
0380
0380
0380
0380
0380
ENDCHAR
STARTCHAR 03A6
ENCODING 934
SWIDTH 510 0
DWIDTH 17 0
BBX 14 22 1 0
BITMAP
0380
0380
0FC0
1FF0
3FF8
7BB8
739C
739C
E38C
E38C
E38C
E38C
E38C
639C
739C
7BB8
3FF8
1FF0
0FC0
0380
0380
0380
ENDCHAR
STARTCHAR 03A7
ENCODING 935
SWIDTH 510 0
DWIDTH 17 0
BBX 14 20 1 0
BITMAP
E01C
7038
7038
3870
1C70
1CE0
0EE0
0FC0
0780
0780
07C0
0FC0
0CE0
1C60
3870
3830
7038
7038
E01C
E01C
ENDCHAR
STARTCHAR 03A8
ENCODING 936
SWIDTH 510 0
DWIDTH 17 0
BBX 14 20 1 0
BITMAP
E01C
E01C
E01C
E01C
E01C
E31C
E31C
E31C
E31C
631C
631C
731C
7338
3FF8
3FF0
0FE0
0300
0300
0300
0300
ENDCHAR
STARTCHAR 03A9
ENCODING 937
SWIDTH 510 0
DWIDTH 17 0
BBX 15 20 1 0
BITMAP
07C0
1FF0
3FF8
7878
703C
F01C
E01C
E00C
E00C
E00C
E00C
E01C
601C
7018
7038
3830
1870
FCFE
FCFE
FCFE
ENDCHAR
STARTCHAR 03AA
ENCODING 938
SWIDTH 510 0
DWIDTH 17 0
BBX 11 26 3 0
BITMAP
7180
73C0
7180
0000
0000
0000
FFE0
FFE0
FFE0
0E00
0E00
0E00
0E00
0E00
0E00
0E00
0E00
0E00
0E00
0E00
0E00
0E00
0E00
FFE0
FFE0
FFE0
ENDCHAR
STARTCHAR 03AB
ENCODING 939
SWIDTH 510 0
DWIDTH 17 0
BBX 15 26 1 0
BITMAP
1C60
1CF0
1C60
0000
0000
0000
E00E
E00C
E01C
701C
7038
3838
3870
1C70
1EE0
0FC0
07C0
0780
0380
0380
0380
0380
0380
0380
0380
0380
ENDCHAR
STARTCHAR 03AC
ENCODING 940
SWIDTH 510 0
DWIDTH 17 0
BBX 13 23 2 0
BITMAP
0100
01C0
0380
0700
0600
0400
0000
0000
0FE0
3FF0
7FF0
F870
E070
E070
E070
C070
C070
E070
E070
F078
7FF8
3FF8
1F88
ENDCHAR
STARTCHAR 03AD
ENCODING 941
SWIDTH 510 0
DWIDTH 17 0
BBX 13 23 2 0
BITMAP
0080
01C0
0380
0380
0700
0200
0000
0000
0FE0
3FF0
7FF0
7010
7000
7000
3FC0
3FC0
7000
E000
E000
F018
7FF8
3FF8
1FE0
ENDCHAR
STARTCHAR 03AE
ENCODING 942
SWIDTH 510 0
DWIDTH 17 0
BBX 12 28 2 -5
BITMAP
0100
03C0
0380
0700
0E00
0400
0000
0000
7F80
FFE0
FFE0
E0F0
E070
E070
E070
E030
E030
E030
E030
E030
E030
E030
E030
0030
0030
0030
0030
0030
ENDCHAR
STARTCHAR 03AF
ENCODING 943
SWIDTH 510 0
DWIDTH 17 0
BBX 13 23 2 0
BITMAP
0100
0380
0700
0600
0E00
0400
0000
0000
FE00
FE00
FE00
0E00
0E00
0E00
0E00
0E00
0E00
0E00
0E00
0F00
07F8
07F8
03F0
ENDCHAR
STARTCHAR 03B0
ENCODING 944
SWIDTH 510 0
DWIDTH 17 0
BBX 12 23 2 0
BITMAP
0200
0300
6770
F670
6C70
0400
0000
0000
E070
E070
E070
E070
E070
E070
E070
E070
E070
E070
7070
70F0
7FE0
3FC0
1F80
ENDCHAR
STARTCHAR 03B1
ENCODING 945
SWIDTH 510 0
DWIDTH 17 0
BBX 13 15 2 0
BITMAP
0FE0
3FF0
7FF0
F870
E070
E070
E070
C070
C070
E070
E070
F078
7FF8
3FF8
1F88
ENDCHAR
STARTCHAR 03B2
ENCODING 946
SWIDTH 510 0
DWIDTH 17 0
BBX 13 28 2 -5
BITMAP
0F80
3FC0
7FE0
78E0
7070
E070
E070
E060
E0E0
E780
E7C0
E0F0
E070
E038
E038
E038
E038
E038
E038
F0F0
FFF0
FFE0
EF80
E000
E000
E000
E000
E000
ENDCHAR
STARTCHAR 03B3
ENCODING 947
SWIDTH 510 0
DWIDTH 17 0
BBX 14 20 1 -5
BITMAP
E00C
701C
701C
7018
3838
3838
1830
1C70
1C60
0CE0
0EE0
0FC0
0780
0780
0700
0700
0700
0300
0300
0300
ENDCHAR
STARTCHAR 03B4
ENCODING 948
SWIDTH 510 0
DWIDTH 17 0
BBX 14 23 1 0
BITMAP
07F0
0FF8
1C10
1800
1C00
1E00
0F80
0FC0
1FE0
3CF0
7838
703C
601C
E01C
E01C
E01C
E01C
701C
703C
7878
3FF8
1FF0
0FC0
ENDCHAR
STARTCHAR 03B5
ENCODING 949
SWIDTH 510 0
DWIDTH 17 0
BBX 13 15 2 0
BITMAP
0FE0
3FF0
7FF0
7010
7000
7000
3FC0
3FC0
7000
E000
E000
F018
7FF8
3FF8
1FE0
ENDCHAR
STARTCHAR 03B6
ENCODING 950
SWIDTH 510 0
DWIDTH 17 0
BBX 13 28 2 -5
BITMAP
7FF0
7FF0
7FF0
00E0
01C0
0380
0700
0E00
1C00
1C00
3800
7000
7000
6000
E000
E000
E000
E000
E000
7000
7800
3FC0
0FF0
0078
0038
0038
0070
0070
ENDCHAR
STARTCHAR 03B7
ENCODING 951
SWIDTH 510 0
DWIDTH 17 0
BBX 12 20 2 -5
BITMAP
7F80
FFE0
FFE0
E0F0
E070
E070
E070
E030
E030
E030
E030
E030
E030
E030
E030
0030
0030
0030
0030
0030
ENDCHAR
STARTCHAR 03B8
ENCODING 952
SWIDTH 510 0
DWIDTH 17 0
BBX 13 23 2 0
BITMAP
0F80
3FC0
3FE0
78E0
7070
E070
E030
E038
C038
C038
FFF8
FFF8
FFF8
C038
C038
E038
E030
E070
7070
78E0
3FE0
3FC0
0F80
ENDCHAR
STARTCHAR 03B9
ENCODING 953
SWIDTH 510 0
DWIDTH 17 0
BBX 13 15 2 0
BITMAP
FE00
FE00
FE00
0E00
0E00
0E00
0E00
0E00
0E00
0E00
0E00
0F00
07F8
07F8
03F0
ENDCHAR
STARTCHAR 03BA
ENCODING 954
SWIDTH 510 0
DWIDTH 17 0
BBX 13 15 2 0
BITMAP
E038
E070
E1E0
E3C0
E780
EF00
FC00
FC00
EF00
E780
E1C0
E0E0
E070
E078
E038
ENDCHAR
STARTCHAR 03BB
ENCODING 955
SWIDTH 510 0
DWIDTH 17 0
BBX 14 23 1 0
BITMAP
7800
7C00
0E00
0700
0700
0300
0380
0380
03C0
07C0
06C0
0EE0
0CE0
1C60
1870
3870
3830
3038
7038
7038
601C
E01C
E01C
ENDCHAR
STARTCHAR 03BC
ENCODING 956
SWIDTH 510 0
DWIDTH 17 0
BBX 12 20 2 -5
BITMAP
E070
E070
E070
E070
E070
E070
E070
E070
E070
E070
F070
F070
FFF0
FFF0
EFE0
E000
E000
E000
E000
E000
ENDCHAR
STARTCHAR 03BD
ENCODING 957
SWIDTH 510 0
DWIDTH 17 0
BBX 14 15 1 0
BITMAP
E00C
E01C
701C
7018
7038
3838
3870
1870
1C60
1CE0
0EE0
0FC0
07C0
0780
0380
ENDCHAR
STARTCHAR 03BE
ENCODING 958
SWIDTH 510 0
DWIDTH 17 0
BBX 13 28 2 -5
BITMAP
07E0
1FF0
3FF0
3C10
7800
7000
7000
7000
3800
3C00
1FE0
0FE0
1FE0
7C00
7000
E000
E000
E000
E000
7000
7C00
3FC0
0FF0
0078
0038
0038
0030
0030
ENDCHAR
STARTCHAR 03BF
ENCODING 959
SWIDTH 510 0
DWIDTH 17 0
BBX 14 15 1 0
BITMAP
07C0
1FF0
3FF8
7878
703C
E01C
E01C
E01C
E01C
E01C
703C
7878
3FF8
1FF0
0FC0
ENDCHAR
STARTCHAR 03C0
ENCODING 960
SWIDTH 510 0
DWIDTH 17 0
BBX 12 15 2 0
BITMAP
FFF0
FFF0
FFF0
E070
E070
E070
E070
E070
E070
E070
E070
E070
E070
E070
E070
ENDCHAR
STARTCHAR 03C1
ENCODING 961
SWIDTH 510 0
DWIDTH 17 0
BBX 13 20 2 -5
BITMAP
0F80
3FE0
7FF0
7870
7038
E038
E038
E038
E038
E038
E038
F0F0
FFF0
FFE0
EF80
E000
E000
E000
E000
E000
ENDCHAR
STARTCHAR 03C2
ENCODING 962
SWIDTH 510 0
DWIDTH 17 0
BBX 13 20 2 -5
BITMAP
07F0
1FF8
3FF0
7C10
7000
E000
E000
E000
E000
E000
E000
7000
3C00
1FC0
07F0
0078
0038
0038
0070
0030
ENDCHAR
STARTCHAR 03C3
ENCODING 963
SWIDTH 510 0
DWIDTH 17 0
BBX 15 15 1 0
BITMAP
07FE
1FFE
3FFE
7870
7038
7038
E018
E01C
E01C
E01C
7038
7878
3FF0
1FF0
0FC0
ENDCHAR
STARTCHAR 03C4
ENCODING 964
SWIDTH 510 0
DWIDTH 17 0
BBX 13 15 2 0
BITMAP
FFF0
FFF0
FFF0
1C00
1C00
1C00
1C00
1C00
1C00
1C00
1C00
1E00
0FF8
0FF8
03F0
ENDCHAR
STARTCHAR 03C5
ENCODING 965
SWIDTH 510 0
DWIDTH 17 0
BBX 12 15 2 0
BITMAP
E070
E070
E070
E070
E070
E070
E070
E070
E070
E070
7070
70F0
7FE0
3FC0
1F80
ENDCHAR
STARTCHAR 03C6
ENCODING 966
SWIDTH 510 0
DWIDTH 17 0
BBX 15 20 1 -5
BITMAP
0FC0
3FF0
7FF8
733C
E31C
E30C
E30E
E30E
E30E
E30C
E31C
733C
7FF8
3FF0
0FE0
0300
0300
0300
0300
0300
ENDCHAR
STARTCHAR 03C7
ENCODING 967
SWIDTH 510 0
DWIDTH 17 0
BBX 14 15 1 0
BITMAP
701C
7038
3870
1C60
0EE0
0FC0
0780
0380
07C0
0EE0
1C60
3870
3038
701C
E01C
ENDCHAR
STARTCHAR 03C8
ENCODING 968
SWIDTH 510 0
DWIDTH 17 0
BBX 14 20 1 -5
BITMAP
E00C
E00C
E00C
E00C
E30C
E30C
E30C
E30C
E31C
E31C
731C
733C
7FF8
3FF0
0FE0
0300
0300
0300
0300
0300
ENDCHAR
STARTCHAR 03C9
ENCODING 969
SWIDTH 510 0
DWIDTH 17 0
BBX 14 15 1 0
BITMAP
1830
3830
3038
7018
701C
601C
E39C
E38C
E38C
E38C
E39C
E79C
7FFC
7EF8
3C70
ENDCHAR
STARTCHAR 03CA
ENCODING 970
SWIDTH 510 0
DWIDTH 17 0
BBX 13 21 2 0
BITMAP
7180
73C0
7180
0000
0000
0000
FE00
FE00
FE00
0E00
0E00
0E00
0E00
0E00
0E00
0E00
0E00
0F00
07F8
07F8
03F0
ENDCHAR
STARTCHAR 03CB
ENCODING 971
SWIDTH 510 0
DWIDTH 17 0
BBX 12 21 2 0
BITMAP
38C0
39E0
38C0
0000
0000
0000
E070
E070
E070
E070
E070
E070
E070
E070
E070
E070
7070
70F0
7FE0
3FC0
1F80
ENDCHAR
STARTCHAR 03CC
ENCODING 972
SWIDTH 510 0
DWIDTH 17 0
BBX 14 23 1 0
BITMAP
0080
01E0
01C0
0380
0700
0200
0000
0000
07C0
1FF0
3FF8
7878
703C
E01C
E01C
E01C
E01C
E01C
703C
7878
3FF8
1FF0
0FC0
ENDCHAR
STARTCHAR 03CD
ENCODING 973
SWIDTH 510 0
DWIDTH 17 0
BBX 12 23 2 0
BITMAP
0100
03C0
0380
0700
0E00
0400
0000
0000
E070
E070
E070
E070
E070
E070
E070
E070
E070
E070
7070
70F0
7FE0
3FC0
1F80
ENDCHAR
STARTCHAR 03CE
ENCODING 974
SWIDTH 510 0
DWIDTH 17 0
BBX 14 23 1 0
BITMAP
0080
00E0
01C0
0380
0700
0200
0000
0000
1830
3830
3038
7018
701C
601C
E39C
E38C
E38C
E38C
E39C
E79C
7FFC
7EF8
3C70
ENDCHAR
STARTCHAR 0400
ENCODING 1024
SWIDTH 510 0
DWIDTH 17 0
BBX 12 28 3 0
BITMAP
0800
1C00
0E00
0600
0700
0300
0000
0000
FFE0
FFE0
FFE0
E000
E000
E000
E000
E000
FFC0
FFC0
FFC0
E000
E000
E000
E000
E000
E000
FFF0
FFF0
FFF0
ENDCHAR
STARTCHAR 0401
ENCODING 1025
SWIDTH 510 0
DWIDTH 17 0
BBX 12 26 3 0
BITMAP
31C0
79C0
31C0
0000
0000
0000
FFE0
FFE0
FFE0
E000
E000
E000
E000
E000
FFC0
FFC0
FFC0
E000
E000
E000
E000
E000
E000
FFF0
FFF0
FFF0
ENDCHAR
STARTCHAR 0402
ENCODING 1026
SWIDTH 510 0
DWIDTH 17 0
BBX 14 20 1 0
BITMAP
FFE0
FFE0
FFE0
3800
3800
3800
3800
3FE0
3FF0
3FF8
383C
381C
381C
381C
381C
381C
383C
39F8
39F0
39E0
ENDCHAR
STARTCHAR 0403
ENCODING 1027
SWIDTH 510 0
DWIDTH 17 0
BBX 13 28 2 0
BITMAP
0040
0060
00E0
01C0
0380
0100
0000
0000
1FF8
1FF8
1FF8
1800
1800
1800
1800
1800
1800
1800
1800
1800
1800
1800
1800
1800
1800
FFC0
FFC0
FFC0
ENDCHAR
STARTCHAR 0404
ENCODING 1028
SWIDTH 510 0
DWIDTH 17 0
BBX 14 20 1 0
BITMAP
03F0
0FFC
1FFC
3C0C
7800
7000
6000
E000
FFC0
FFC0
FFC0
E000
E000
6000
7000
7800
3C0C
1FFC
0FFC
03F0
ENDCHAR
STARTCHAR 0405
ENCODING 1029
SWIDTH 510 0
DWIDTH 17 0
BBX 13 20 2 0
BITMAP
0FC0
3FF0
7FF0
7020
E000
E000
E000
7800
7E00
3FC0
0FE0
01F0
0070
0038
0038
0038
C070
FFF0
FFE0
3F80
ENDCHAR
STARTCHAR 0406
ENCODING 1030
SWIDTH 510 0
DWIDTH 17 0
BBX 11 20 3 0
BITMAP
FFE0
FFE0
FFE0
0E00
0E00
0E00
0E00
0E00
0E00
0E00
0E00
0E00
0E00
0E00
0E00
0E00
0E00
FFE0
FFE0
FFE0
ENDCHAR
STARTCHAR 0407
ENCODING 1031
SWIDTH 510 0
DWIDTH 17 0
BBX 11 26 3 0
BITMAP
7180
73C0
7180
0000
0000
0000
FFE0
FFE0
FFE0
0E00
0E00
0E00
0E00
0E00
0E00
0E00
0E00
0E00
0E00
0E00
0E00
0E00
0E00
FFE0
FFE0
FFE0
ENDCHAR
STARTCHAR 0408
ENCODING 1032
SWIDTH 510 0
DWIDTH 17 0
BBX 12 20 2 0
BITMAP
3FF0
3FF0
3FF0
0070
0070
0070
0070
0070
0070
0070
0070
0070
0070
0070
0070
4070
E1E0
FFE0
FFC0
3F00
ENDCHAR
STARTCHAR 0409
ENCODING 1033
SWIDTH 510 0
DWIDTH 17 0
BBX 16 20 0 0
BITMAP
1FC0
1FC0
1FC0
18C0
18C0
18C0
18C0
18F8
18FE
18FE
18CE
18C7
18C7
18C7
38C7
38C7
78CE
F0FE
F0FC
40F8
ENDCHAR
STARTCHAR 040A
ENCODING 1034
SWIDTH 510 0
DWIDTH 17 0
BBX 15 20 1 0
BITMAP
E180
E180
E180
E180
E180
E180
E180
E1F0
FFFC
FFFC
FF9C
E18E
E18E
E18E
E18E
E18E
E19C
E1FC
E1F8
E1F0
ENDCHAR
STARTCHAR 040B
ENCODING 1035
SWIDTH 510 0
DWIDTH 17 0
BBX 14 20 1 0
BITMAP
FFE0
FFE0
FFE0
3800
3800
3800
3800
3FE0
3FF0
3FF8
3838
381C
381C
381C
381C
381C
381C
381C
381C
381C
ENDCHAR
STARTCHAR 040C
ENCODING 1036
SWIDTH 510 0
DWIDTH 17 0
BBX 14 28 2 0
BITMAP
0100
0380
0700
0600
0C00
0800
0000
0000
E038
E070
E0F0
E0E0
E1C0
E380
E700
EF00
FE00
FC00
FE00
EF00
E780
E3C0
E1E0
E0F0
E070
E038
E038
E01C
ENDCHAR
STARTCHAR 040D
ENCODING 1037
SWIDTH 510 0
DWIDTH 17 0
BBX 13 28 2 0
BITMAP
0400
0C00
0E00
0700
0380
0100
0000
0000
C038
C078
C0F8
C0F8
C1F8
C1B8
C3B8
C338
C738
C638
CE38
CC38
DC38
D838
D838
F838
F038
F038
E038
E038
ENDCHAR
STARTCHAR 040E
ENCODING 1038
SWIDTH 510 0
DWIDTH 17 0
BBX 15 27 1 0
BITMAP
1870
1C60
0FE0
07C0
0000
0000
0000
C00E
E00E
E00C
701C
701C
3818
3838
1C38
1C70
0E70
0660
07E0
03C0
03C0
0180
0380
0700
7F00
FE00
F800
ENDCHAR
STARTCHAR 040F
ENCODING 1039
SWIDTH 510 0
DWIDTH 17 0
BBX 13 25 2 -5
BITMAP
C038
C038
C038
C038
C038
C038
C038
C038
C038
C038
C038
C038
C038
C038
C038
C038
C038
FFF8
FFF8
FFF8
0700
0700
0700
0700
0700
ENDCHAR
STARTCHAR 0410
ENCODING 1040
SWIDTH 510 0
DWIDTH 17 0
BBX 16 20 0 0
BITMAP
03C0
03E0
03E0
0760
0670
0670
0E30
0C38
0C38
1C18
1C1C
181C
381C
3FFC
3FFE
7FFE
700E
7007
7007
E007
ENDCHAR
STARTCHAR 0411
ENCODING 1041
SWIDTH 510 0
DWIDTH 17 0
BBX 13 20 2 0
BITMAP
FFE0
FFE0
FFE0
C000
C000
C000
C000
FF80
FFE0
FFF0
C0F0
C038
C038
C038
C038
C078
C0F0
FFF0
FFE0
FF80
ENDCHAR
STARTCHAR 0412
ENCODING 1042
SWIDTH 510 0
DWIDTH 17 0
BBX 13 20 2 0
BITMAP
FF80
FFC0
FFE0
C0F0
C070
C070
C070
C0E0
FFC0
FFC0
FFE0
C0F0
C038
C038
C038
C038
C0F0
FFF0
FFE0
FF80
ENDCHAR
STARTCHAR 0413
ENCODING 1043
SWIDTH 510 0
DWIDTH 17 0
BBX 13 20 2 0
BITMAP
1FF8
1FF8
1FF8
1800
1800
1800
1800
1800
1800
1800
1800
1800
1800
1800
1800
1800
1800
FFC0
FFC0
FFC0
ENDCHAR
STARTCHAR 0414
ENCODING 1044
SWIDTH 510 0
DWIDTH 17 0
BBX 15 25 1 -5
BITMAP
0FF8
0FF8
0FF8
0E18
0E18
0E18
0C18
0C18
0C18
1C18
1C18
1C18
1C18
1C18
3818
3818
7018
FFFE
FFFE
FFFE
C00E
C00E
C00E
C00E
C00E
ENDCHAR
STARTCHAR 0415
ENCODING 1045
SWIDTH 510 0
DWIDTH 17 0
BBX 12 20 3 0
BITMAP
FFE0
FFE0
FFE0
E000
E000
E000
E000
E000
FFC0
FFC0
FFC0
E000
E000
E000
E000
E000
E000
FFF0
FFF0
FFF0
ENDCHAR
STARTCHAR 0416
ENCODING 1046
SWIDTH 510 0
DWIDTH 17 0
BBX 16 20 0 0
BITMAP
6187
7186
318E
398C
199C
1998
0DB8
0DB0
07F0
07F0
0FB0
0DB8
1D98
199C
398C
318E
718E
7187
6187
E187
ENDCHAR
STARTCHAR 0417
ENCODING 1047
SWIDTH 510 0
DWIDTH 17 0
BBX 14 20 1 0
BITMAP
1FC0
7FF0
7FF8
2078
0038
0018
0038
0078
0FE0
0FE0
0FF8
007C
001C
000C
000C
001C
603C
7FF8
FFF0
1FC0
ENDCHAR
STARTCHAR 0418
ENCODING 1048
SWIDTH 510 0
DWIDTH 17 0
BBX 13 20 2 0
BITMAP
C038
C078
C0F8
C0F8
C1F8
C1B8
C3B8
C338
C738
C638
CE38
CC38
DC38
D838
D838
F838
F038
F038
E038
E038
ENDCHAR
STARTCHAR 0419
ENCODING 1049
SWIDTH 510 0
DWIDTH 17 0
BBX 13 27 2 0
BITMAP
30E0
38C0
1FC0
0F80
0000
0000
0000
C038
C078
C0F8
C0F8
C1F8
C1B8
C3B8
C338
C738
C638
CE38
CC38
DC38
D838
D838
F838
F038
F038
E038
E038
ENDCHAR
STARTCHAR 041A
ENCODING 1050
SWIDTH 510 0
DWIDTH 17 0
BBX 14 20 2 0
BITMAP
E038
E070
E0F0
E0E0
E1C0
E380
E700
EF00
FE00
FC00
FE00
EF00
E780
E3C0
E1E0
E0F0
E070
E038
E038
E01C
ENDCHAR
STARTCHAR 041B
ENCODING 1051
SWIDTH 510 0
DWIDTH 17 0
BBX 15 20 0 0
BITMAP
07FE
07FE
07FE
070E
070E
070E
070E
070E
070E
070E
060E
0E0E
0E0E
0E0E
1E0E
1C0E
3C0E
F80E
700E
600E
ENDCHAR
STARTCHAR 041C
ENCODING 1052
SWIDTH 510 0
DWIDTH 17 0
BBX 14 20 1 0
BITMAP
7038
7838
7838
7878
7C7C
6C7C
6CCC
66CC
66CC
678C
638C
E38C
E00C
E00C
E00C
E00C
E00C
E00C
E00C
E00C
ENDCHAR
STARTCHAR 041D
ENCODING 1053
SWIDTH 510 0
DWIDTH 17 0
BBX 14 20 1 0
BITMAP
E01C
E01C
E01C
E01C
E01C
E01C
E01C
E01C
FFFC
FFFC
FFFC
E01C
E01C
E01C
E01C
E01C
E01C
E01C
E01C
E01C
ENDCHAR
STARTCHAR 041E
ENCODING 1054
SWIDTH 510 0
DWIDTH 17 0
BBX 15 20 1 0
BITMAP
07C0
1FF0
3FF8
7878
703C
F01C
E01C
E00C
E00E
E00E
E00E
E00E
E00C
E01C
E01C
703C
7878
3FF8
1FF0
07C0
ENDCHAR
STARTCHAR 041F
ENCODING 1055
SWIDTH 510 0
DWIDTH 17 0
BBX 14 20 1 0
BITMAP
FFFC
FFFC
FFFC
E01C
E01C
E01C
E01C
E01C
E01C
E01C
E01C
E01C
E01C
E01C
E01C
E01C
E01C
E01C
E01C
E01C
ENDCHAR
STARTCHAR 0420
ENCODING 1056
SWIDTH 510 0
DWIDTH 17 0
BBX 13 20 2 0
BITMAP
FF80
FFE0
FFF0
E070
E038
E038
E038
E038
E038
E0F0
FFF0
FFE0
FF80
E000
E000
E000
E000
E000
E000
E000
ENDCHAR
STARTCHAR 0421
ENCODING 1057
SWIDTH 510 0
DWIDTH 17 0
BBX 13 20 2 0
BITMAP
07E0
1FF8
3FF8
7C10
7000
E000
E000
E000
C000
C000
C000
C000
E000
E000
E000
7000
7C18
3FF8
1FF8
07E0
ENDCHAR
STARTCHAR 0422
ENCODING 1058
SWIDTH 510 0
DWIDTH 17 0
BBX 14 20 1 0
BITMAP
FFFC
FFFC
FFFC
0380
0380
0380
0380
0380
0380
0380
0380
0380
0380
0380
0380
0380
0380
0380
0380
0380
ENDCHAR
STARTCHAR 0423
ENCODING 1059
SWIDTH 510 0
DWIDTH 17 0
BBX 15 20 1 0
BITMAP
C00E
E00E
E00C
701C
701C
3818
3838
1C38
1C70
0E70
0660
07E0
03C0
03C0
0180
0380
0700
7F00
FE00
F800
ENDCHAR
STARTCHAR 0424
ENCODING 1060
SWIDTH 510 0
DWIDTH 17 0
BBX 14 22 1 0
BITMAP
0380
0380
0FC0
1FF0
3FF8
7BB8
739C
739C
E38C
E38C
E38C
E38C
E38C
639C
739C
7BB8
3FF8
1FF0
0FC0
0380
0380
0380
ENDCHAR
STARTCHAR 0425
ENCODING 1061
SWIDTH 510 0
DWIDTH 17 0
BBX 14 20 1 0
BITMAP
E01C
701C
3838
3870
1C70
1CE0
0EE0
0FC0
0780
0380
0780
07C0
0FE0
1CE0
1C70
3870
3838
7038
701C
E01C
ENDCHAR
STARTCHAR 0426
ENCODING 1062
SWIDTH 510 0
DWIDTH 17 0
BBX 15 25 1 -5
BITMAP
E018
E018
E018
E018
E018
E018
E018
E018
E018
E018
E018
E018
E018
E018
E018
E018
E018
FFFE
FFFE
FFFE
000E
000E
000E
000E
000E
ENDCHAR
STARTCHAR 0427
ENCODING 1063
SWIDTH 510 0
DWIDTH 17 0
BBX 13 20 2 0
BITMAP
E038
E038
E038
E038
E038
E038
E038
E038
E038
F038
7FF8
7FF8
1FF8
0038
0038
0038
0038
0038
0038
0038
ENDCHAR
STARTCHAR 0428
ENCODING 1064
SWIDTH 510 0
DWIDTH 17 0
BBX 14 20 1 0
BITMAP
E00C
E00C
E00C
E00C
E00C
E00C
E00C
E00C
E38C
E38C
E38C
E38C
E38C
E38C
E38C
E38C
E38C
FFFC
FFFC
FFFC
ENDCHAR
STARTCHAR 0429
ENCODING 1065
SWIDTH 510 0
DWIDTH 17 0
BBX 15 25 1 -5
BITMAP
E018
E018
E018
E018
E018
E018
E018
E018
E318
E318
E318
E318
E318
E318
E318
E318
E318
FFFE
FFFE
FFFE
000E
000E
000E
000E
000E
ENDCHAR
STARTCHAR 042A
ENCODING 1066
SWIDTH 510 0
DWIDTH 17 0
BBX 14 20 1 0
BITMAP
F800
F800
F800
1800
1800
1800
1800
1FC0
1FF0
1FF8
183C
181C
181C
181C
181C
181C
183C
1FF8
1FF0
1FC0
ENDCHAR
STARTCHAR 042B
ENCODING 1067
SWIDTH 510 0
DWIDTH 17 0
BBX 14 20 1 0
BITMAP
E00C
E00C
E00C
E00C
E00C
E00C
E00C
FE0C
FF0C
FF8C
E38C
E1CC
E1CC
E1CC
E1CC
E1CC
E38C
FF8C
FF0C
FE0C
ENDCHAR
STARTCHAR 042C
ENCODING 1068
SWIDTH 510 0
DWIDTH 17 0
BBX 14 20 1 0
BITMAP
E000
E000
E000
E000
E000
E000
E000
FFC0
FFF0
FFF8
E07C
E01C
E01C
E01C
E01C
E01C
E07C
FFF8
FFF0
FFC0
ENDCHAR
STARTCHAR 042D
ENCODING 1069
SWIDTH 510 0
DWIDTH 17 0
BBX 13 20 2 0
BITMAP
3F00
FFC0
FFE0
C1F0
0070
0038
0038
0018
1FF8
1FF8
1FF8
0018
0018
0038
0038
0070
81F0
FFE0
FFC0
3F00
ENDCHAR
STARTCHAR 042E
ENCODING 1070
SWIDTH 510 0
DWIDTH 17 0
BBX 15 20 1 0
BITMAP
E0F0
E1F8
E3F8
E39C
E71C
E70C
E70C
E70E
FF0E
FF0E
FF0E
E70E
E70E
E70C
E70C
E71C
E39C
E3F8
E1F8
E0F0
ENDCHAR
STARTCHAR 042F
ENCODING 1071
SWIDTH 510 0
DWIDTH 17 0
BBX 13 20 2 0
BITMAP
07F8
1FF8
3FF8
7838
7038
7038
6038
7038
7038
7838
3FF8
1FF8
0FF8
0E38
1C38
3838
3838
7038
7038
E038
ENDCHAR
STARTCHAR 0430
ENCODING 1072
SWIDTH 510 0
DWIDTH 17 0
BBX 12 15 2 0
BITMAP
1F80
3FE0
3FF0
20F0
0070
0030
1FF0
7FF0
F030
E030
E030
F030
FFF0
7FF0
1FF0
ENDCHAR
STARTCHAR 0431
ENCODING 1073
SWIDTH 510 0
DWIDTH 17 0
BBX 14 23 1 0
BITMAP
0038
03F8
0FF8
1F80
3C00
3800
7000
77C0
7FF0
7878
7038
601C
E01C
E01C
601C
601C
701C
701C
703C
7878
3FF8
1FF0
0FC0
ENDCHAR
STARTCHAR 0432
ENCODING 1074
SWIDTH 510 0
DWIDTH 17 0
BBX 13 15 2 0
BITMAP
FF80
FFE0
FFF0
E070
E070
E070
FFE0
FFE0
E070
E038
E038
E078
FFF0
FFF0
FFC0
ENDCHAR
STARTCHAR 0433
ENCODING 1075
SWIDTH 510 0
DWIDTH 17 0
BBX 11 15 4 0
BITMAP
FFE0
FFE0
FFE0
C000
C000
C000
C000
C000
C000
C000
C000
C000
C000
C000
C000
ENDCHAR
STARTCHAR 0434
ENCODING 1076
SWIDTH 510 0
DWIDTH 17 0
BBX 14 19 1 -4
BITMAP
0FF8
0FF8
0FF8
0E38
0E38
0C38
1C38
1C38
1C38
1838
3838
7038
FFFC
FFFC
FFFC
C00C
C00C
C00C
C00C
ENDCHAR
STARTCHAR 0435
ENCODING 1077
SWIDTH 510 0
DWIDTH 17 0
BBX 14 15 1 0
BITMAP
07C0
1FF0
3FF8
7838
701C
601C
FFFC
FFFC
E000
E000
7000
7C08
3FF8
1FF8
07F0
ENDCHAR
STARTCHAR 0436
ENCODING 1078
SWIDTH 510 0
DWIDTH 17 0
BBX 16 15 0 0
BITMAP
7186
318E
398C
1998
0DB8
07B0
07E0
07F0
0FB8
1DB8
199C
398C
718E
7186
E187
ENDCHAR
STARTCHAR 0437
ENCODING 1079
SWIDTH 510 0
DWIDTH 17 0
BBX 13 15 2 0
BITMAP
3F80
7FE0
7FF0
6070
0070
0070
1FE0
1FE0
0070
0038
0038
4078
7FF0
FFE0
3FC0
ENDCHAR
STARTCHAR 0438
ENCODING 1080
SWIDTH 510 0
DWIDTH 17 0
BBX 12 15 2 0
BITMAP
E030
E070
E0F0
E1F0
E1B0
E330
E730
E630
EC30
FC30
F830
F830
F030
E030
E030
ENDCHAR
STARTCHAR 0439
ENCODING 1081
SWIDTH 510 0
DWIDTH 17 0
BBX 12 22 2 0
BITMAP
3860
38E0
1FC0
0F80
0000
0000
0000
E030
E070
E0F0
E1F0
E1B0
E330
E730
E630
EC30
FC30
F830
F830
F030
E030
E030
ENDCHAR
STARTCHAR 043A
ENCODING 1082
SWIDTH 510 0
DWIDTH 17 0
BBX 13 15 2 0
BITMAP
E038
E070
E1E0
E3C0
E780
EF00
FC00
FC00
EF00
E780
E1C0
E0E0
E070
E078
E038
ENDCHAR
STARTCHAR 043B
ENCODING 1083
SWIDTH 510 0
DWIDTH 17 0
BBX 14 15 0 0
BITMAP
07FC
07FC
07FC
071C
071C
071C
071C
061C
0E1C
0E1C
1E1C
3C1C
FC1C
781C
601C
ENDCHAR
STARTCHAR 043C
ENCODING 1084
SWIDTH 510 0
DWIDTH 17 0
BBX 15 15 1 0
BITMAP
701C
703C
783C
783C
786C
EC6C
ECEC
ECCC
E6CC
E78C
E78C
E38C
E00C
E00E
E00E
ENDCHAR
STARTCHAR 043D
ENCODING 1085
SWIDTH 510 0
DWIDTH 17 0
BBX 12 15 2 0
BITMAP
E070
E070
E070
E070
E070
E070
FFF0
FFF0
FFF0
E070
E070
E070
E070
E070
E070
ENDCHAR
STARTCHAR 043E
ENCODING 1086
SWIDTH 510 0
DWIDTH 17 0
BBX 14 15 1 0
BITMAP
07C0
1FF0
3FF8
7878
703C
E01C
E01C
E01C
E01C
E01C
703C
7878
3FF8
1FF0
0FC0
ENDCHAR
STARTCHAR 043F
ENCODING 1087
SWIDTH 510 0
DWIDTH 17 0
BBX 12 15 2 0
BITMAP
FFF0
FFF0
FFF0
E070
E070
E070
E070
E070
E070
E070
E070
E070
E070
E070
E070
ENDCHAR
STARTCHAR 0440
ENCODING 1088
SWIDTH 510 0
DWIDTH 17 0
BBX 13 20 2 -5
BITMAP
7F80
FFE0
FFF0
E0F0
E078
E038
E038
E038
E038
E038
E038
F0F0
FFF0
FFE0
EF80
E000
E000
E000
E000
E000
ENDCHAR
STARTCHAR 0441
ENCODING 1089
SWIDTH 510 0
DWIDTH 17 0
BBX 13 15 2 0
BITMAP
07F0
1FF8
7FF0
7810
F000
E000
E000
C000
C000
E000
F000
7818
7FF8
3FF8
0FF0
ENDCHAR
STARTCHAR 0442
ENCODING 1090
SWIDTH 510 0
DWIDTH 17 0
BBX 13 15 2 0
BITMAP
FFF8
FFF8
FFF8
0700
0700
0700
0700
0700
0700
0700
0700
0700
0700
0700
0700
ENDCHAR
STARTCHAR 0443
ENCODING 1091
SWIDTH 510 0
DWIDTH 17 0
BBX 14 20 1 -5
BITMAP
701C
701C
701C
3838
3838
3838
1C30
1C70
0C70
0E60
0EE0
07E0
07C0
03C0
0180
0380
0700
7F00
FE00
F800
ENDCHAR
STARTCHAR 0444
ENCODING 1092
SWIDTH 510 0
DWIDTH 17 0
BBX 15 28 1 -5
BITMAP
0300
0300
0300
0300
0300
0300
0300
0300
0FE0
3FF0
7FF8
733C
E31C
E30C
E30E
E30E
E30E
E30C
E31C
733C
7FF8
3FF0
0FE0
0300
0300
0300
0300
0300
ENDCHAR
STARTCHAR 0445
ENCODING 1093
SWIDTH 510 0
DWIDTH 17 0
BBX 14 15 1 0
BITMAP
701C
7038
3870
1C60
0EE0
0FC0
0780
0380
07C0
0EE0
1C60
3870
3038
701C
E01C
ENDCHAR
STARTCHAR 0446
ENCODING 1094
SWIDTH 510 0
DWIDTH 17 0
BBX 13 19 2 -4
BITMAP
E070
E070
E070
E070
E070
E070
E070
E070
E070
E070
E070
E070
FFF8
FFF8
FFF8
0018
0018
0018
0018
ENDCHAR
STARTCHAR 0447
ENCODING 1095
SWIDTH 510 0
DWIDTH 17 0
BBX 12 15 2 0
BITMAP
C070
C070
C070
C070
C070
E070
F070
FFF0
7FF0
1FF0
0070
0070
0070
0070
0070
ENDCHAR
STARTCHAR 0448
ENCODING 1096
SWIDTH 510 0
DWIDTH 17 0
BBX 14 15 1 0
BITMAP
E00C
E00C
E00C
E00C
E38C
E38C
E38C
E38C
E38C
E38C
E38C
E38C
FFFC
FFFC
FFFC
ENDCHAR
STARTCHAR 0449
ENCODING 1097
SWIDTH 510 0
DWIDTH 17 0
BBX 14 19 1 -4
BITMAP
E018
E018
E018
E018
E718
E718
E718
E718
E718
E718
E718
E718
FFFC
FFFC
FFFC
000C
000C
000C
000C
ENDCHAR
STARTCHAR 044A
ENCODING 1098
SWIDTH 510 0
DWIDTH 17 0
BBX 14 15 1 0
BITMAP
F800
F800
F800
1800
1800
1FE0
1FF8
183C
181C
180C
181C
181C
183C
1FF8
1FE0
ENDCHAR
STARTCHAR 044B
ENCODING 1099
SWIDTH 510 0
DWIDTH 17 0
BBX 14 15 1 0
BITMAP
E01C
E01C
E01C
E01C
E01C
FF1C
FF9C
E39C
E1DC
E1DC
E1DC
E1DC
E39C
FF9C
7E1C
ENDCHAR
STARTCHAR 044C
ENCODING 1100
SWIDTH 510 0
DWIDTH 17 0
BBX 13 15 2 0
BITMAP
E000
E000
E000
E000
E000
FFC0
FFF0
E078
E038
E038
E038
E038
E078
FFF0
7FC0
ENDCHAR
STARTCHAR 044D
ENCODING 1101
SWIDTH 510 0
DWIDTH 17 0
BBX 13 15 2 0
BITMAP
7F00
FFC0
7FE0
40F0
0078
0038
1FF8
1FF8
0038
0038
0078
C1F0
FFE0
FFC0
7F00
ENDCHAR
STARTCHAR 044E
ENCODING 1102
SWIDTH 510 0
DWIDTH 17 0
BBX 14 15 2 0
BITMAP
C1E0
C3F0
C7F8
C738
C618
CE1C
FE1C
FE1C
FE1C
C61C
C618
C738
C7F8
C3F0
C1E0
ENDCHAR
STARTCHAR 044F
ENCODING 1103
SWIDTH 510 0
DWIDTH 17 0
BBX 12 15 2 0
BITMAP
1FF0
3FF0
7FF0
F070
E070
E070
7070
7FF0
1FF0
3870
3870
7070
E070
E070
C070
ENDCHAR
STARTCHAR 0450
ENCODING 1104
SWIDTH 510 0
DWIDTH 17 0
BBX 14 23 1 0
BITMAP
0200
0600
0700
0380
01C0
0080
0000
0000
07C0
1FF0
3FF8
7838
701C
601C
FFFC
FFFC
E000
E000
7000
7C08
3FF8
1FF8
07F0
ENDCHAR
STARTCHAR 0451
ENCODING 1105
SWIDTH 510 0
DWIDTH 17 0
BBX 14 21 1 0
BITMAP
0C70
1E70
0C70
0000
0000
0000
07C0
1FF0
3FF8
7838
701C
601C
FFFC
FFFC
E000
E000
7000
7C08
3FF8
1FF8
07F0
ENDCHAR
STARTCHAR 0452
ENCODING 1106
SWIDTH 510 0
DWIDTH 17 0
BBX 13 28 1 -5
BITMAP
3800
3800
3800
FFC0
FFC0
3800
3800
3800
3FC0
3FF0
3FF0
3878
3838
3838
3838
3818
3818
3818
3818
3818
3818
3818
3818
0018
0038
0038
01F8
01E0
ENDCHAR
STARTCHAR 0453
ENCODING 1107
SWIDTH 510 0
DWIDTH 17 0
BBX 11 23 4 0
BITMAP
0100
0380
0700
0E00
0C00
0800
0000
0000
FFE0
FFE0
FFE0
C000
C000
C000
C000
C000
C000
C000
C000
C000
C000
C000
C000
ENDCHAR
STARTCHAR 0454
ENCODING 1108
SWIDTH 510 0
DWIDTH 17 0
BBX 13 15 2 0
BITMAP
07E0
1FF8
7FF0
7810
E000
E000
FF80
FF80
C000
E000
F000
7818
7FF8
3FF8
0FE0
ENDCHAR
STARTCHAR 0455
ENCODING 1109
SWIDTH 510 0
DWIDTH 17 0
BBX 12 15 2 0
BITMAP
1FE0
3FE0
7FE0
7020
E000
7800
7F00
3FC0
07F0
00F0
0070
4070
FFF0
FFE0
3FC0
ENDCHAR
STARTCHAR 0456
ENCODING 1110
SWIDTH 510 0
DWIDTH 17 0
BBX 13 21 2 0
BITMAP
1C00
1E00
1E00
1C00
0000
0000
FE00
FE00
FE00
0E00
0E00
0E00
0E00
0E00
0E00
0E00
0E00
0F08
07F8
07F8
03F0
ENDCHAR
STARTCHAR 0457
ENCODING 1111
SWIDTH 510 0
DWIDTH 17 0
BBX 13 21 2 0
BITMAP
7180
73C0
7180
0000
0000
0000
FE00
FE00
FE00
0E00
0E00
0E00
0E00
0E00
0E00
0E00
0E00
0F00
07F8
07F8
03F0
ENDCHAR
STARTCHAR 0458
ENCODING 1112
SWIDTH 510 0
DWIDTH 17 0
BBX 11 26 2 -5
BITMAP
01C0
03C0
03C0
01C0
0000
0000
3FE0
3FE0
3FE0
00E0
00E0
00E0
00E0
00E0
00E0
00E0
00E0
00E0
00E0
00E0
00E0
00E0
41C0
7FC0
FF80
3F00
ENDCHAR
STARTCHAR 0459
ENCODING 1113
SWIDTH 510 0
DWIDTH 17 0
BBX 16 15 0 0
BITMAP
1FC0
1FC0
1FC0
1CC0
1CC0
1CFC
1CFE
1CC6
1CC7
18C7
38C7
38C7
F8FE
70FE
60FC
ENDCHAR
STARTCHAR 045A
ENCODING 1114
SWIDTH 510 0
DWIDTH 17 0
BBX 14 15 2 0
BITMAP
C300
C300
C300
C300
C300
C3F0
FFF8
FF18
C31C
C31C
C31C
C31C
C3F8
C3F8
C3F0
ENDCHAR
STARTCHAR 045B
ENCODING 1115
SWIDTH 510 0
DWIDTH 17 0
BBX 13 23 1 0
BITMAP
3800
3800
3800
FFC0
FFC0
3800
3800
3800
3FC0
3FF0
3FF0
3878
3838
3838
3838
3818
3818
3818
3818
3818
3818
3818
3818
ENDCHAR
STARTCHAR 045C
ENCODING 1116
SWIDTH 510 0
DWIDTH 17 0
BBX 13 23 2 0
BITMAP
0080
01C0
01C0
0380
0700
0200
0000
0000
E038
E070
E1E0
E3C0
E780
EF00
FC00
FC00
EF00
E780
E1C0
E0E0
E070
E078
E038
ENDCHAR
STARTCHAR 045D
ENCODING 1117
SWIDTH 510 0
DWIDTH 17 0
BBX 12 23 2 0
BITMAP
0400
0C00
0E00
0700
0380
0100
0000
0000
E030
E070
E0F0
E1F0
E1B0
E330
E730
E630
EC30
FC30
F830
F830
F030
E030
E030
ENDCHAR
STARTCHAR 045E
ENCODING 1118
SWIDTH 510 0
DWIDTH 17 0
BBX 14 27 1 -5
BITMAP
0C30
0C70
0FE0
07C0
0000
0000
0000
701C
701C
701C
3838
3838
3838
1C30
1C70
0C70
0E60
0EE0
07E0
07C0
03C0
0180
0380
0700
7F00
FE00
F800
ENDCHAR
STARTCHAR 045F
ENCODING 1119
SWIDTH 510 0
DWIDTH 17 0
BBX 12 19 2 -4
BITMAP
E070
E070
E070
E070
E070
E070
E070
E070
E070
E070
E070
E070
FFF0
FFF0
FFF0
0700
0700
0700
0700
ENDCHAR
STARTCHAR 0462
ENCODING 1122
SWIDTH 510 0
DWIDTH 17 0
BBX 14 22 1 0
BITMAP
1800
1800
FFE0
FFE0
FFE0
1800
1800
1800
1800
1FE0
1FF8
1FFC
183C
181C
180C
180C
180C
181C
183C
1FF8
1FF0
1FE0
ENDCHAR
STARTCHAR 0463
ENCODING 1123
SWIDTH 510 0
DWIDTH 17 0
BBX 14 23 1 0
BITMAP
1800
1800
1800
1800
1800
1800
1800
1800
FFC0
FFC0
1800
1800
1800
1FE0
1FF8
183C
181C
181C
181C
181C
183C
1FF8
1FE0
ENDCHAR
STARTCHAR 0472
ENCODING 1138
SWIDTH 510 0
DWIDTH 17 0
BBX 15 20 1 0
BITMAP
07C0
1FF0
3FF8
7878
703C
E01C
E01C
E00C
EE0E
FF9E
F1FE
E0FE
E00C
E01C
F01C
703C
7878
3FF8
1FF0
07C0
ENDCHAR
STARTCHAR 0473
ENCODING 1139
SWIDTH 510 0
DWIDTH 17 0
BBX 14 15 1 0
BITMAP
07C0
1FF0
3FF8
7838
701C
EF1C
FFFC
F1FC
E01C
F01C
703C
7878
3FF8
1FF0
0FC0
ENDCHAR
STARTCHAR 0474
ENCODING 1140
SWIDTH 510 0
DWIDTH 17 0
BBX 16 20 1 0
BITMAP
C00E
E01F
E03E
E038
6038
7030
7070
7070
3060
3860
38E0
38E0
18C0
1DC0
1DC0
0DC0
0D80
0F80
0780
0700
ENDCHAR
STARTCHAR 0475
ENCODING 1141
SWIDTH 510 0
DWIDTH 17 0
BBX 15 15 1 0
BITMAP
E01E
E03E
703E
7070
7070
3060
38E0
38C0
18C0
1DC0
1D80
0F80
0F80
0F00
0700
ENDCHAR
STARTCHAR 048A
ENCODING 1162
SWIDTH 510 0
DWIDTH 17 0
BBX 14 32 2 -6
BITMAP
30C0
38C0
1FC0
0F80
0000
0000
C078
C078
C0F8
C0F8
C1F8
C1B8
C3B8
C338
C738
C638
CE38
CC38
CC38
DC38
D838
F838
F038
F03C
E03C
E03C
0018
0038
0038
0070
00E0
0020
ENDCHAR
STARTCHAR 048B
ENCODING 1163
SWIDTH 510 0
DWIDTH 17 0
BBX 14 26 2 -5
BITMAP
3860
38E0
1FC0
0F80
0000
0000
E038
E078
E0F8
E1F8
E1B8
E3B8
E738
E638
EE38
FC38
F838
F838
F03C
E03C
E03C
0018
0038
0038
0070
0020
ENDCHAR
STARTCHAR 048C
ENCODING 1164
SWIDTH 510 0
DWIDTH 17 0
BBX 14 20 1 0
BITMAP
3800
3800
FF80
FF80
FF80
3800
3800
3FE0
3FF8
3FF8
383C
381C
380C
380C
380C
381C
383C
3FF8
3FF0
3FC0
ENDCHAR
STARTCHAR 048D
ENCODING 1165
SWIDTH 510 0
DWIDTH 17 0
BBX 14 16 1 0
BITMAP
3800
3800
FFC0
FFC0
3800
3800
3FE0
3FF8
383C
381C
381C
381C
381C
383C
3FF8
1FE0
ENDCHAR
STARTCHAR 048E
ENCODING 1166
SWIDTH 510 0
DWIDTH 17 0
BBX 13 20 2 0
BITMAP
FF80
FFE0
FFF0
E070
E038
E038
E238
E738
E338
E3F0
FFF0
FFE0
FFC0
E0E0
E060
E070
E020
E000
E000
E000
ENDCHAR
STARTCHAR 048F
ENCODING 1167
SWIDTH 510 0
DWIDTH 17 0
BBX 13 20 2 -5
BITMAP
7F80
FFE0
FFF0
E0F0
E078
E038
E038
E038
E138
E338
E3F8
F1F0
FFF0
FFE0
EFE0
E060
E030
E020
E000
E000
ENDCHAR
STARTCHAR 0490
ENCODING 1168
SWIDTH 510 0
DWIDTH 17 0
BBX 13 24 2 0
BITMAP
0018
0018
0018
0018
1FF8
1FF8
1FF8
1800
1800
1800
1800
1800
1800
1800
1800
1800
1800
1800
1800
1800
1800
FFC0
FFC0
FFC0
ENDCHAR
STARTCHAR 0491
ENCODING 1169
SWIDTH 510 0
DWIDTH 17 0
BBX 11 19 4 0
BITMAP
00E0
00E0
00E0
00E0
FFE0
FFE0
FFE0
C000
C000
C000
C000
C000
C000
C000
C000
C000
C000
C000
C000
ENDCHAR
STARTCHAR 0492
ENCODING 1170
SWIDTH 510 0
DWIDTH 17 0
BBX 13 20 2 0
BITMAP
1FF8
1FF8
1FF8
1800
1800
1800
1800
1800
FFC0
FFC0
FFC0
1800
1800
1800
1800
1800
1800
FFC0
FFC0
FFC0
ENDCHAR
STARTCHAR 0493
ENCODING 1171
SWIDTH 510 0
DWIDTH 17 0
BBX 14 15 1 0
BITMAP
1FFC
1FFC
1FFC
1800
1800
1800
1800
FFC0
FFC0
1800
1800
1800
1800
1800
1800
ENDCHAR
STARTCHAR 0494
ENCODING 1172
SWIDTH 510 0
DWIDTH 17 0
BBX 14 25 1 -5
BITMAP
FFF0
FFF0
FFF0
E000
E000
E000
E000
FFC0
FFE0
FFF0
E078
E03C
E01C
E01C
E01C
E00C
E00C
E01C
E01C
E01C
0038
0078
07F0
07E0
07C0
ENDCHAR
STARTCHAR 0495
ENCODING 1173
SWIDTH 510 0
DWIDTH 17 0
BBX 13 20 2 -5
BITMAP
FFE0
FFE0
E000
E000
E000
E000
FFC0
FFE0
E070
E038
E038
E038
E018
E018
E038
0038
0038
0070
03E0
03C0
ENDCHAR
STARTCHAR 0496
ENCODING 1174
SWIDTH 510 0
DWIDTH 17 0
BBX 16 25 0 -5
BITMAP
638E
738C
738C
3398
3B98
1BB0
1BB0
1FE0
0FE0
0FF0
0FF0
0FB8
1BB8
3B9C
339C
339C
738E
738F
638F
E387
0003
0003
0003
0003
0003
ENDCHAR
STARTCHAR 0497
ENCODING 1175
SWIDTH 510 0
DWIDTH 17 0
BBX 16 19 0 -4
BITMAP
718E
319C
3998
19B8
1DB0
0DF0
0FE0
07E0
0DF0
1DB8
199C
399C
718F
718F
E187
0007
0007
0007
0007
ENDCHAR
STARTCHAR 0498
ENCODING 1176
SWIDTH 510 0
DWIDTH 17 0
BBX 14 26 1 -6
BITMAP
1FC0
7FF0
7FF8
2078
0038
0018
0038
0078
0FE0
0FE0
0FF8
007C
001C
000C
000C
001C
603C
7FF8
FFF0
1FC0
0300
0700
0380
0180
0F80
0F00
ENDCHAR
STARTCHAR 0499
ENCODING 1177
SWIDTH 510 0
DWIDTH 17 0
BBX 13 21 2 -6
BITMAP
3F80
7FE0
7FF0
6070
0070
0070
1FE0
1FE0
0070
0038
0038
4078
7FF0
FFE0
3FC0
0600
0E00
0700
0300
1F00
1E00
ENDCHAR
STARTCHAR 049A
ENCODING 1178
SWIDTH 510 0
DWIDTH 17 0
BBX 14 25 2 -5
BITMAP
E038
E070
E0F0
E0E0
E1C0
E380
E700
EE00
FC00
FC00
FE00
EF00
E780
E3C0
E1E0
E0E0
E0F0
E07C
E07C
E03C
001C
001C
001C
001C
001C
ENDCHAR
STARTCHAR 049B
ENCODING 1179
SWIDTH 510 0
DWIDTH 17 0
BBX 13 19 2 -4
BITMAP
E038
E070
E1E0
E3C0
E780
EE00
FC00
FE00
EF00
E780
E3C0
E1F0
E0F8
E078
E038
0018
0018
0018
0018
ENDCHAR
STARTCHAR 049C
ENCODING 1180
SWIDTH 510 0
DWIDTH 17 0
BBX 14 20 2 0
BITMAP
C038
C038
C078
C070
C070
CCE0
CDE0
CDC0
CF80
FF80
FF80
CFC0
CDC0
CCE0
CCE0
C070
C078
C038
C03C
C01C
ENDCHAR
STARTCHAR 049D
ENCODING 1181
SWIDTH 510 0
DWIDTH 17 0
BBX 14 15 2 0
BITMAP
C038
C070
C0E0
CDC0
CDC0
CF80
FF00
FF80
CFC0
CDE0
CCE0
C0F0
C070
C038
C03C
ENDCHAR
STARTCHAR 049E
ENCODING 1182
SWIDTH 510 0
DWIDTH 17 0
BBX 15 20 1 0
BITMAP
381C
3838
FC38
FC70
38E0
38E0
39C0
3B80
3F00
3F00
3F80
3BC0
39E0
38F0
3870
3838
3838
381C
381C
380E
ENDCHAR
STARTCHAR 049F
ENCODING 1183
SWIDTH 510 0
DWIDTH 17 0
BBX 14 16 1 0
BITMAP
3800
381C
FC38
FC70
38E0
39C0
3F80
3F00
3F80
3BC0
39E0
38E0
3870
3838
381C
381C
ENDCHAR
STARTCHAR 04A0
ENCODING 1184
SWIDTH 510 0
DWIDTH 17 0
BBX 15 20 1 0
BITMAP
F81C
F81C
F838
1878
1870
18E0
19E0
19C0
1B80
1F00
1F80
19C0
18E0
1870
1870
1838
1838
181C
181E
180E
ENDCHAR
STARTCHAR 04A1
ENCODING 1185
SWIDTH 510 0
DWIDTH 17 0
BBX 14 15 1 0
BITMAP
F81C
F838
F870
18E0
19C0
1B80
1F00
1F80
1BC0
19E0
18F0
1870
1838
181C
181C
ENDCHAR
STARTCHAR 04A2
ENCODING 1186
SWIDTH 510 0
DWIDTH 17 0
BBX 15 25 1 -5
BITMAP
E018
E018
E018
E018
E018
E018
E018
E018
FFF8
FFF8
FFF8
E018
E018
E018
E018
E018
E018
E01E
E01E
E01E
000E
000E
000E
000E
000E
ENDCHAR
STARTCHAR 04A3
ENCODING 1187
SWIDTH 510 0
DWIDTH 17 0
BBX 13 19 2 -4
BITMAP
E070
E070
E070
E070
E070
E070
FFF0
FFF0
FFF0
E070
E070
E070
E078
E078
E078
0018
0018
0018
0018
ENDCHAR
STARTCHAR 04A4
ENCODING 1188
SWIDTH 510 0
DWIDTH 17 0
BBX 15 20 1 0
BITMAP
E07E
E07E
E07E
E070
E070
E070
E070
E070
FFF0
FFF0
FFF0
E070
E070
E070
E070
E070
E070
E070
E070
E070
ENDCHAR
STARTCHAR 04A5
ENCODING 1189
SWIDTH 510 0
DWIDTH 17 0
BBX 14 15 2 0
BITMAP
E0FC
E0FC
E0FC
E0E0
E0E0
E0E0
FFE0
FFE0
FFE0
E0E0
E0E0
E0E0
E0E0
E0E0
E0E0
ENDCHAR
STARTCHAR 04A6
ENCODING 1190
SWIDTH 510 0
DWIDTH 17 0
BBX 13 25 2 -5
BITMAP
FE00
FE00
FE00
C600
C600
C600
C600
C7E0
C7F0
C7F0
C638
C638
C618
C618
C618
C618
C618
C618
C618
C618
0038
0038
00F0
00F0
00C0
ENDCHAR
STARTCHAR 04A7
ENCODING 1191
SWIDTH 510 0
DWIDTH 17 0
BBX 13 20 2 -5
BITMAP
FE00
FE00
FE00
C600
C600
C600
C7E0
C7F0
C7F8
C638
C638
C618
C618
C618
C618
0018
0038
0030
00F0
01E0
ENDCHAR
STARTCHAR 04A8
ENCODING 1192
SWIDTH 510 0
DWIDTH 17 0
BBX 15 25 1 -5
BITMAP
03F0
0FF8
1FF8
3C10
7800
7000
E0F0
E1F8
E3FC
E39C
E38E
E30E
E30E
E30E
631C
739C
7BBC
3FF8
1FF0
07C0
01C0
00F0
007C
003C
001C
ENDCHAR
STARTCHAR 04A9
ENCODING 1193
SWIDTH 510 0
DWIDTH 17 0
BBX 15 20 1 -5
BITMAP
07C0
1FC0
3C00
7000
70F0
E1FC
E39C
E38C
E30E
E30C
730C
731C
3BB8
1FF0
07E0
01C0
00E0
0070
003C
001C
ENDCHAR
STARTCHAR 04AA
ENCODING 1194
SWIDTH 510 0
DWIDTH 17 0
BBX 13 26 2 -6
BITMAP
07E0
1FF8
3FF8
7C10
7000
E000
E000
E000
C000
C000
C000
C000
E000
E000
E000
7000
7C18
3FF8
1FF8
07E0
0180
0380
01C0
00C0
07C0
0780
ENDCHAR
STARTCHAR 04AB
ENCODING 1195
SWIDTH 510 0
DWIDTH 17 0
BBX 13 21 2 -6
BITMAP
07F0
1FF8
7FF0
7810
F000
E000
E000
C000
C000
E000
F000
7818
7FF8
3FF8
0FF0
0300
0300
0380
0180
0F80
0F00
ENDCHAR
STARTCHAR 04AC
ENCODING 1196
SWIDTH 510 0
DWIDTH 17 0
BBX 14 25 1 -5
BITMAP
FFFC
FFFC
FFFC
0380
0380
0380
0380
0380
0380
0380
0380
0380
0380
0380
0380
0380
0380
03C0
03C0
03C0
01C0
01C0
01C0
01C0
01C0
ENDCHAR
STARTCHAR 04AD
ENCODING 1197
SWIDTH 510 0
DWIDTH 17 0
BBX 13 19 2 -4
BITMAP
FFF8
FFF8
FFF8
0700
0700
0700
0700
0700
0700
0700
0700
0700
0780
0780
0780
0380
0380
0380
0380
ENDCHAR
STARTCHAR 04AE
ENCODING 1198
SWIDTH 510 0
DWIDTH 17 0
BBX 15 20 1 0
BITMAP
E00E
E00C
E01C
701C
7038
3838
3870
1C70
1EE0
0FC0
07C0
0780
0380
0380
0380
0380
0380
0380
0380
0380
ENDCHAR
STARTCHAR 04AF
ENCODING 1199
SWIDTH 510 0
DWIDTH 17 0
BBX 14 20 1 -5
BITMAP
E01C
E01C
701C
7038
7038
3838
3870
1C70
1CE0
0EE0
0EC0
0FC0
0780
0780
0380
0380
0380
0380
0380
0380
ENDCHAR
STARTCHAR 04B0
ENCODING 1200
SWIDTH 510 0
DWIDTH 17 0
BBX 15 20 1 0
BITMAP
E00E
E01C
701C
7018
3038
3830
1870
1C60
0CE0
0EC0
07C0
0780
3FF8
3FF8
3FF8
0380
0380
0380
0380
0380
ENDCHAR
STARTCHAR 04B1
ENCODING 1201
SWIDTH 510 0
DWIDTH 17 0
BBX 14 20 1 -5
BITMAP
E00C
E01C
701C
7018
7038
3838
3830
1870
1C60
1CE0
0EE0
0FC0
07C0
3FF8
3FF8
0380
0380
0380
0380
0380
ENDCHAR
STARTCHAR 04B2
ENCODING 1202
SWIDTH 510 0
DWIDTH 17 0
BBX 15 25 1 -5
BITMAP
E01C
7018
3038
3870
1870
1CE0
0CC0
0FC0
0780
0780
07C0
0FC0
0CE0
1CF0
3870
3878
7038
703E
E01E
E01E
000E
000E
000E
000E
000E
ENDCHAR
STARTCHAR 04B3
ENCODING 1203
SWIDTH 510 0
DWIDTH 17 0
BBX 14 19 1 -4
BITMAP
701C
7038
3870
1C60
0EE0
0FC0
0780
07C0
0FE0
0EE0
1C70
3878
303C
703C
E01C
000C
000C
000C
000C
ENDCHAR
STARTCHAR 04B4
ENCODING 1204
SWIDTH 510 0
DWIDTH 17 0
BBX 15 25 1 -5
BITMAP
FF18
FF18
FF18
3818
3818
3818
3818
3818
3818
3818
3818
3818
3818
3818
3818
3818
3818
3FFE
3FFE
3FFE
000E
000E
000E
000E
000E
ENDCHAR
STARTCHAR 04B5
ENCODING 1205
SWIDTH 510 0
DWIDTH 17 0
BBX 14 19 1 -4
BITMAP
FF38
FF38
FF38
3838
3838
3838
3838
3838
3838
3838
3838
3838
3FFC
3FFC
3FFC
000C
000C
000C
000C
ENDCHAR
STARTCHAR 04B6
ENCODING 1206
SWIDTH 510 0
DWIDTH 17 0
BBX 14 25 2 -5
BITMAP
E030
E030
E030
E030
E030
E030
E030
E030
E030
F030
7FF0
7FF0
1FF0
0030
0030
0030
0030
003C
003C
003C
001C
001C
001C
001C
001C
ENDCHAR
STARTCHAR 04B7
ENCODING 1207
SWIDTH 510 0
DWIDTH 17 0
BBX 13 19 2 -4
BITMAP
C070
C070
C070
C070
C070
E070
E070
F070
7FF0
1FF0
0070
0070
0078
0078
0078
0018
0018
0018
0018
ENDCHAR
STARTCHAR 04B8
ENCODING 1208
SWIDTH 510 0
DWIDTH 17 0
BBX 13 20 2 0
BITMAP
E038
E038
E038
E038
E038
E038
E738
E738
E738
F738
7FF8
7FF8
1FF8
0738
0738
0738
0738
0038
0038
0038
ENDCHAR
STARTCHAR 04B9
ENCODING 1209
SWIDTH 510 0
DWIDTH 17 0
BBX 12 15 2 0
BITMAP
C070
C070
C070
C070
C670
E670
F670
FFF0
7FF0
1FF0
0670
0670
0670
0070
0070
ENDCHAR
STARTCHAR 04BA
ENCODING 1210
SWIDTH 510 0
DWIDTH 17 0
BBX 14 20 1 0
BITMAP
E000
E000
E000
E000
E000
E000
E000
FFE0
FFF0
FFF8
E078
E01C
E01C
E01C
E01C
E01C
E01C
E01C
E01C
E01C
ENDCHAR
STARTCHAR 04BB
ENCODING 1211
SWIDTH 510 0
DWIDTH 17 0
BBX 12 23 2 0
BITMAP
E000
E000
E000
E000
E000
E000
E000
E000
FF80
FFE0
FFE0
E0F0
E070
E070
E070
E030
E030
E030
E030
E030
E030
E030
E030
ENDCHAR
STARTCHAR 04BC
ENCODING 1212
SWIDTH 510 0
DWIDTH 17 0
BBX 15 20 1 0
BITMAP
01E0
03F8
07F8
071C
C70C
CE0C
CE0C
EE0E
FFFE
7FFE
3FFE
0E00
0E00
0E00
0E00
0700
0784
03FC
03FC
00F8
ENDCHAR
STARTCHAR 04BD
ENCODING 1213
SWIDTH 510 0
DWIDTH 17 0
BBX 14 15 1 0
BITMAP
01E0
03F0
C7F8
C73C
CE1C
EE1C
7FFC
3FFC
0E00
0E00
0E00
0708
07F8
03F8
01F0
ENDCHAR
STARTCHAR 04BE
ENCODING 1214
SWIDTH 510 0
DWIDTH 17 0
BBX 15 25 1 -5
BITMAP
01E0
03F8
07F8
071C
C70C
CE0C
CE0C
EE0E
FFFE
7FFE
3FFE
0E00
0E00
0E00
0E00
0700
0784
03FC
03FC
00F8
0070
0070
0070
0070
0070
ENDCHAR
STARTCHAR 04BF
ENCODING 1215
SWIDTH 510 0
DWIDTH 17 0
BBX 14 19 1 -4
BITMAP
01E0
03F0
C7F8
C73C
CE1C
EE1C
7FFC
3FFC
0E00
0E00
0E00
0708
07F8
03F8
01F0
00E0
00E0
00E0
00E0
ENDCHAR
STARTCHAR 04C0
ENCODING 1216
SWIDTH 510 0
DWIDTH 17 0
BBX 11 20 3 0
BITMAP
FFE0
FFE0
FFE0
0E00
0E00
0E00
0E00
0E00
0E00
0E00
0E00
0E00
0E00
0E00
0E00
0E00
0E00
FFE0
FFE0
FFE0
ENDCHAR
STARTCHAR 04C1
ENCODING 1217
SWIDTH 510 0
DWIDTH 17 0
BBX 16 27 0 0
BITMAP
0C38
0E30
07F0
03E0
0000
0000
0000
6187
7186
318E
398C
199C
1998
0DB8
0DB0
07F0
07F0
0FB0
0DB8
1D98
199C
398C
318E
718E
7187
6187
E187
ENDCHAR
STARTCHAR 04C2
ENCODING 1218
SWIDTH 510 0
DWIDTH 17 0
BBX 16 22 0 0
BITMAP
0C38
0E30
07F0
03E0
0000
0000
0000
7186
318E
398C
1998
0DB8
07B0
07E0
07F0
0FB8
1DB8
199C
398C
718E
7186
E187
ENDCHAR
STARTCHAR 04C3
ENCODING 1219
SWIDTH 510 0
DWIDTH 17 0
BBX 13 25 2 -5
BITMAP
C038
C070
C0F0
C1E0
C1C0
C380
C700
CE00
DC00
FF00
FFE0
FFF0
C1F0
C078
C038
C038
C018
C018
C038
C038
0078
00F0
07F0
07E0
0780
ENDCHAR
STARTCHAR 04C4
ENCODING 1220
SWIDTH 510 0
DWIDTH 17 0
BBX 13 20 2 -5
BITMAP
E078
E0F0
E1E0
E380
E700
EE00
FF80
FFE0
E0F0
E070
E038
E038
E038
E038
E038
0038
0070
00F0
07E0
0780
ENDCHAR
STARTCHAR 04C5
ENCODING 1221
SWIDTH 510 0
DWIDTH 17 0
BBX 16 26 0 -6
BITMAP
07FE
07FE
07FE
070E
070E
070E
070E
070E
070E
070E
060E
0E0E
0E0E
0E0E
1E0E
1C0E
3C0E
F80F
700F
600F
0006
000E
000E
001C
0038
0008
ENDCHAR
STARTCHAR 04C6
ENCODING 1222
SWIDTH 510 0
DWIDTH 17 0
BBX 16 20 0 -5
BITMAP
07FE
07FE
07FE
070E
070E
070E
070E
060E
0E0E
0E0E
1E0E
3C0E
FC0F
780F
600F
0006
000E
000E
001C
0008
ENDCHAR
STARTCHAR 04C7
ENCODING 1223
SWIDTH 510 0
DWIDTH 17 0
BBX 14 26 1 -6
BITMAP
E01C
E01C
E01C
E01C
E01C
E01C
E01C
E01C
FFFC
FFFC
FFFC
E01C
E01C
E01C
E01C
E01C
E01C
E01C
E01C
E01C
001C
001C
001C
001C
00F8
00F0
ENDCHAR
STARTCHAR 04C8
ENCODING 1224
SWIDTH 510 0
DWIDTH 17 0
BBX 12 20 2 -5
BITMAP
E070
E070
E070
E070
E070
E070
FFF0
FFF0
FFF0
E070
E070
E070
E070
E070
E070
0070
0070
0070
03E0
03C0
ENDCHAR
STARTCHAR 04C9
ENCODING 1225
SWIDTH 510 0
DWIDTH 17 0
BBX 15 26 1 -6
BITMAP
E01C
E01C
E01C
E01C
E01C
E01C
E01C
E01C
FFFC
FFFC
FFFC
E01C
E01C
E01C
E01C
E01C
E01C
E01E
E01E
E01E
000C
001C
001C
0038
0070
0010
ENDCHAR
STARTCHAR 04CA
ENCODING 1226
SWIDTH 510 0
DWIDTH 17 0
BBX 14 20 2 -5
BITMAP
E038
E038
E038
E038
E038
E038
FFF8
FFF8
FFF8
E038
E038
E038
E03C
E03C
E03C
0018
0038
0038
0070
0020
ENDCHAR
STARTCHAR 04CB
ENCODING 1227
SWIDTH 510 0
DWIDTH 17 0
BBX 13 25 2 -5
BITMAP
E038
E038
E038
E038
E038
E038
E038
E038
E038
F038
7FF8
7FF8
1FF8
0038
0038
0038
0038
0078
0078
0078
0060
0060
0060
0060
0060
ENDCHAR
STARTCHAR 04CC
ENCODING 1228
SWIDTH 510 0
DWIDTH 17 0
BBX 12 19 2 -4
BITMAP
C070
C070
C070
C070
C070
E070
F070
FFF0
7FF0
1FF0
0070
0070
00F0
00F0
00F0
00E0
00E0
00E0
00E0
ENDCHAR
STARTCHAR 04CD
ENCODING 1229
SWIDTH 510 0
DWIDTH 17 0
BBX 15 26 1 -6
BITMAP
7030
7870
7878
7878
78D8
6CD8
6CD8
6D98
6798
6798
6798
E318
E018
E018
E018
E01C
E01C
E01E
E01E
E01E
000C
001C
001C
0038
0070
0010
ENDCHAR
STARTCHAR 04CE
ENCODING 1230
SWIDTH 510 0
DWIDTH 17 0
BBX 15 20 1 -5
BITMAP
7038
7078
7078
7878
78D8
F8D8
ECD8
EDD8
ED98
E798
E798
E71C
E01E
E01E
E01E
000C
001C
001C
0038
0010
ENDCHAR
STARTCHAR 04CF
ENCODING 1231
SWIDTH 510 0
DWIDTH 17 0
BBX 11 20 3 0
BITMAP
FFE0
FFE0
FFE0
0E00
0E00
0E00
0E00
0E00
0E00
0E00
0E00
0E00
0E00
0E00
0E00
0E00
0E00
FFE0
FFE0
FFE0
ENDCHAR
STARTCHAR 04D0
ENCODING 1232
SWIDTH 510 0
DWIDTH 17 0
BBX 16 27 0 0
BITMAP
0C38
0E30
07F0
03E0
0000
0000
0000
03C0
03E0
03E0
0760
0670
0670
0E30
0C38
0C38
1C18
1C1C
181C
381C
3FFC
3FFE
7FFE
700E
7007
7007
E007
ENDCHAR
STARTCHAR 04D1
ENCODING 1233
SWIDTH 510 0
DWIDTH 17 0
BBX 12 22 2 0
BITMAP
30E0
38C0
1FC0
0F80
0000
0000
0000
1F80
3FE0
3FF0
20F0
0070
0030
1FF0
7FF0
F030
E030
E030
F030
FFF0
7FF0
1FF0
ENDCHAR
STARTCHAR 04D2
ENCODING 1234
SWIDTH 510 0
DWIDTH 17 0
BBX 16 26 0 0
BITMAP
0E30
0E78
0E30
0000
0000
0000
03C0
03E0
03E0
0760
0670
0670
0E30
0C38
0C38
1C18
1C1C
181C
381C
3FFC
3FFE
7FFE
700E
7007
7007
E007
ENDCHAR
STARTCHAR 04D3
ENCODING 1235
SWIDTH 510 0
DWIDTH 17 0
BBX 12 21 2 0
BITMAP
38C0
39E0
38C0
0000
0000
0000
1F80
3FE0
3FF0
20F0
0070
0030
1FF0
7FF0
F030
E030
E030
F030
FFF0
7FF0
1FF0
ENDCHAR
STARTCHAR 04D4
ENCODING 1236
SWIDTH 510 0
DWIDTH 17 0
BBX 15 20 1 0
BITMAP
03FC
03FC
07FC
06C0
06C0
0CC0
0CC0
1CC0
18FC
18FC
18FC
38C0
3FC0
3FC0
7FC0
70C0
60C0
60FE
E0FE
E0FE
ENDCHAR
STARTCHAR 04D5
ENCODING 1237
SWIDTH 510 0
DWIDTH 17 0
BBX 15 15 1 0
BITMAP
3C70
7EFC
7FFC
478C
038E
038E
3FFE
7FFE
E380
E380
E180
E3C4
FFFC
7FFC
3E78
ENDCHAR
STARTCHAR 04D6
ENCODING 1238
SWIDTH 510 0
DWIDTH 17 0
BBX 12 27 3 0
BITMAP
30C0
31C0
3F80
1F00
0000
0000
0000
FFE0
FFE0
FFE0
E000
E000
E000
E000
E000
FFC0
FFC0
FFC0
E000
E000
E000
E000
E000
E000
FFF0
FFF0
FFF0
ENDCHAR
STARTCHAR 04D7
ENCODING 1239
SWIDTH 510 0
DWIDTH 17 0
BBX 14 22 1 0
BITMAP
1870
1C60
0FE0
07C0
0000
0000
0000
07C0
1FF0
3FF8
7838
701C
601C
FFFC
FFFC
E000
E000
7000
7C08
3FF8
1FF8
07F0
ENDCHAR
STARTCHAR 04D8
ENCODING 1240
SWIDTH 510 0
DWIDTH 17 0
BBX 15 20 1 0
BITMAP
1F80
7FE0
7FF0
2078
003C
001C
001C
000C
000C
FFFE
FFFE
FFFE
E00C
E01C
E01C
703C
7878
3FF0
1FE0
0FC0
ENDCHAR
STARTCHAR 04D9
ENCODING 1241
SWIDTH 510 0
DWIDTH 17 0
BBX 14 15 1 0
BITMAP
1FC0
3FE0
3FF8
2078
003C
001C
001C
FFFC
FFFC
601C
701C
7878
3FF8
3FF0
0FC0
ENDCHAR
STARTCHAR 04DA
ENCODING 1242
SWIDTH 510 0
DWIDTH 17 0
BBX 15 26 1 0
BITMAP
18E0
3CE0
18E0
0000
0000
0000
1F80
7FE0
7FF0
2078
003C
001C
001C
000C
000C
FFFE
FFFE
FFFE
E00C
E01C
E01C
703C
7878
3FF0
1FE0
0FC0
ENDCHAR
STARTCHAR 04DB
ENCODING 1243
SWIDTH 510 0
DWIDTH 17 0
BBX 14 21 1 0
BITMAP
1860
3CF0
1860
0000
0000
0000
1FC0
3FE0
3FF8
2078
003C
001C
001C
FFFC
FFFC
601C
701C
7878
3FF8
3FF0
0FC0
ENDCHAR
STARTCHAR 04DC
ENCODING 1244
SWIDTH 510 0
DWIDTH 17 0
BBX 16 26 0 0
BITMAP
0E30
0E78
0E30
0000
0000
0000
6187
7186
318E
398C
199C
1998
0DB8
0DB0
07F0
07F0
0FB0
0DB8
1D98
199C
398C
318E
718E
7187
6187
E187
ENDCHAR
STARTCHAR 04DD
ENCODING 1245
SWIDTH 510 0
DWIDTH 17 0
BBX 16 21 0 0
BITMAP
0E30
0E78
0E30
0000
0000
0000
7186
318E
398C
1998
0DB8
07B0
07E0
07F0
0FB8
1DB8
199C
398C
718E
7186
E187
ENDCHAR
STARTCHAR 04DE
ENCODING 1246
SWIDTH 510 0
DWIDTH 17 0
BBX 14 26 1 0
BITMAP
1860
3CF0
1860
0000
0000
0000
1FC0
7FF0
7FF8
2078
0038
0018
0038
0078
0FE0
0FE0
0FF8
007C
001C
000C
000C
001C
603C
7FF8
FFF0
1FC0
ENDCHAR
STARTCHAR 04DF
ENCODING 1247
SWIDTH 510 0
DWIDTH 17 0
BBX 13 21 2 0
BITMAP
30C0
79E0
30C0
0000
0000
0000
3F80
7FE0
7FF0
6070
0070
0070
1FE0
1FE0
0070
0038
0038
4078
7FF0
FFE0
3FC0
ENDCHAR
STARTCHAR 04E0
ENCODING 1248
SWIDTH 510 0
DWIDTH 17 0
BBX 14 20 1 0
BITMAP
7FFC
7FFC
7FFC
0038
0070
00E0
0380
0700
0FC0
0FF0
0FF8
007C
001C
000C
001C
001C
C07C
FFF8
FFF0
1FC0
ENDCHAR
STARTCHAR 04E1
ENCODING 1249
SWIDTH 510 0
DWIDTH 17 0
BBX 12 20 2 -5
BITMAP
FFF0
FFF0
FFE0
00E0
01C0
0380
0700
0E00
1F00
1FC0
01E0
0070
0070
0070
0070
0070
81F0
FFE0
FFC0
7F00
ENDCHAR
STARTCHAR 04E2
ENCODING 1250
SWIDTH 510 0
DWIDTH 17 0
BBX 13 26 2 0
BITMAP
3FC0
3FC0
0000
0000
0000
0000
C038
C078
C0F8
C0F8
C1F8
C1B8
C3B8
C338
C738
C638
CE38
CC38
DC38
D838
D838
F838
F038
F038
E038
E038
ENDCHAR
STARTCHAR 04E3
ENCODING 1251
SWIDTH 510 0
DWIDTH 17 0
BBX 12 21 2 0
BITMAP
3FC0
3FC0
0000
0000
0000
0000
E030
E070
E0F0
E1F0
E1B0
E330
E730
E630
EC30
FC30
F830
F830
F030
E030
E030
ENDCHAR
STARTCHAR 04E4
ENCODING 1252
SWIDTH 510 0
DWIDTH 17 0
BBX 13 26 2 0
BITMAP
38C0
39E0
38C0
0000
0000
0000
C038
C078
C0F8
C0F8
C1F8
C1B8
C3B8
C338
C738
C638
CE38
CC38
DC38
D838
D838
F838
F038
F038
E038
E038
ENDCHAR
STARTCHAR 04E5
ENCODING 1253
SWIDTH 510 0
DWIDTH 17 0
BBX 12 21 2 0
BITMAP
38C0
39E0
38C0
0000
0000
0000
E030
E070
E0F0
E1F0
E1B0
E330
E730
E630
EC30
FC30
F830
F830
F030
E030
E030
ENDCHAR
STARTCHAR 04E6
ENCODING 1254
SWIDTH 510 0
DWIDTH 17 0
BBX 15 26 1 0
BITMAP
1C60
1CF0
1C60
0000
0000
0000
07C0
1FF0
3FF8
7878
703C
F01C
E01C
E00C
E00E
E00E
E00E
E00E
E00C
E01C
E01C
703C
7878
3FF8
1FF0
07C0
ENDCHAR
STARTCHAR 04E7
ENCODING 1255
SWIDTH 510 0
DWIDTH 17 0
BBX 14 21 1 0
BITMAP
1C60
1CF0
1C60
0000
0000
0000
07C0
1FF0
3FF8
7878
703C
E01C
E01C
E01C
E01C
E01C
703C
7878
3FF8
1FF0
0FC0
ENDCHAR
STARTCHAR 04E8
ENCODING 1256
SWIDTH 510 0
DWIDTH 17 0
BBX 15 20 1 0
BITMAP
07C0
1FF0
3FF8
7878
701C
E01C
E01C
E00C
FFFE
FFFE
FFFE
E00E
E00C
E01C
E01C
703C
7878
3FF8
1FF0
07C0
ENDCHAR
STARTCHAR 04E9
ENCODING 1257
SWIDTH 510 0
DWIDTH 17 0
BBX 14 15 1 0
BITMAP
07C0
1FF0
3FF8
7838
701C
E01C
FFFC
FFFC
E01C
E01C
701C
7878
3FF8
1FF0
0FC0
ENDCHAR
STARTCHAR 04EA
ENCODING 1258
SWIDTH 510 0
DWIDTH 17 0
BBX 15 26 1 0
BITMAP
1C60
1CF0
1C60
0000
0000
0000
07C0
1FF0
3FF8
7878
701C
E01C
E01C
E00C
FFFE
FFFE
FFFE
E00E
E00C
E01C
E01C
703C
7878
3FF8
1FF0
07C0
ENDCHAR
STARTCHAR 04EB
ENCODING 1259
SWIDTH 510 0
DWIDTH 17 0
BBX 14 21 1 0
BITMAP
1C60
1CF0
1C60
0000
0000
0000
07C0
1FF0
3FF8
7838
701C
E01C
FFFC
FFFC
E01C
E01C
701C
7878
3FF8
1FF0
0FC0
ENDCHAR
STARTCHAR 04EC
ENCODING 1260
SWIDTH 510 0
DWIDTH 17 0
BBX 13 26 2 0
BITMAP
31C0
79C0
31C0
0000
0000
0000
3F00
FFC0
FFE0
C1F0
0070
0038
0038
0018
1FF8
1FF8
1FF8
0018
0018
0038
0038
0070
81F0
FFE0
FFC0
3F00
ENDCHAR
STARTCHAR 04ED
ENCODING 1261
SWIDTH 510 0
DWIDTH 17 0
BBX 13 21 2 0
BITMAP
31C0
79C0
31C0
0000
0000
0000
7F00
FFC0
7FE0
40F0
0078
0038
1FF8
1FF8
0038
0038
0078
C1F0
FFE0
FFC0
7F00
ENDCHAR
STARTCHAR 04EE
ENCODING 1262
SWIDTH 510 0
DWIDTH 17 0
BBX 15 26 1 0
BITMAP
1FF0
1FF0
0000
0000
0000
0000
C00E
E00E
E00C
701C
701C
3818
3838
1C38
1C70
0E70
0660
07E0
03C0
03C0
0180
0380
0700
7F00
FE00
F800
ENDCHAR
STARTCHAR 04EF
ENCODING 1263
SWIDTH 510 0
DWIDTH 17 0
BBX 14 26 1 -5
BITMAP
0FF0
0FF0
0000
0000
0000
0000
701C
701C
701C
3838
3838
3838
1C30
1C70
0C70
0E60
0EE0
07E0
07C0
03C0
0180
0380
0700
7F00
FE00
F800
ENDCHAR
STARTCHAR 04F0
ENCODING 1264
SWIDTH 510 0
DWIDTH 17 0
BBX 15 26 1 0
BITMAP
1C70
1C70
1C70
0000
0000
0000
C00E
E00E
E00C
701C
701C
3818
3838
1C38
1C70
0E70
0660
07E0
03C0
03C0
0180
0380
0700
7F00
FE00
F800
ENDCHAR
STARTCHAR 04F1
ENCODING 1265
SWIDTH 510 0
DWIDTH 17 0
BBX 14 26 1 -5
BITMAP
0C70
1E70
0C70
0000
0000
0000
701C
701C
701C
3838
3838
3838
1C30
1C70
0C70
0E60
0EE0
07E0
07C0
03C0
0180
0380
0700
7F00
FE00
F800
ENDCHAR
STARTCHAR 04F2
ENCODING 1266
SWIDTH 510 0
DWIDTH 17 0
BBX 15 28 1 0
BITMAP
0210
0318
0738
0E70
0C60
0840
0000
0000
C00E
E00E
E00C
701C
701C
3818
3838
1C38
1C70
0E70
0660
07E0
03C0
03C0
0180
0380
0700
7F00
FE00
F800
ENDCHAR
STARTCHAR 04F3
ENCODING 1267
SWIDTH 510 0
DWIDTH 17 0
BBX 14 28 1 -5
BITMAP
0108
0398
0738
0630
0C60
0440
0000
0000
701C
701C
701C
3838
3838
3838
1C30
1C70
0C70
0E60
0EE0
07E0
07C0
03C0
0180
0380
0700
7F00
FE00
F800
ENDCHAR
STARTCHAR 04F4
ENCODING 1268
SWIDTH 510 0
DWIDTH 17 0
BBX 13 26 2 0
BITMAP
38C0
39E0
38C0
0000
0000
0000
E038
E038
E038
E038
E038
E038
E038
E038
E038
F038
7FF8
7FF8
1FF8
0038
0038
0038
0038
0038
0038
0038
ENDCHAR
STARTCHAR 04F5
ENCODING 1269
SWIDTH 510 0
DWIDTH 17 0
BBX 12 21 2 0
BITMAP
38C0
39E0
38C0
0000
0000
0000
C070
C070
C070
C070
C070
E070
F070
FFF0
7FF0
1FF0
0070
0070
0070
0070
0070
ENDCHAR
STARTCHAR 04F6
ENCODING 1270
SWIDTH 510 0
DWIDTH 17 0
BBX 13 25 2 -5
BITMAP
1FF8
1FF8
1FF8
1800
1800
1800
1800
1800
1800
1800
1800
1800
1800
1800
1800
1800
1800
FFC0
FFC0
FFC0
01C0
01C0
01C0
01C0
01C0
ENDCHAR
STARTCHAR 04F7
ENCODING 1271
SWIDTH 510 0
DWIDTH 17 0
BBX 11 19 4 -4
BITMAP
FFE0
FFE0
FFE0
C000
C000
C000
C000
C000
C000
C000
C000
C000
F000
F000
F000
7000
7000
7000
7000
ENDCHAR
STARTCHAR 04F8
ENCODING 1272
SWIDTH 510 0
DWIDTH 17 0
BBX 14 26 1 0
BITMAP
1C60
1CF0
1C60
0000
0000
0000
E00C
E00C
E00C
E00C
E00C
E00C
E00C
FE0C
FF0C
FF8C
E38C
E1CC
E1CC
E1CC
E1CC
E1CC
E38C
FF8C
FF0C
FE0C
ENDCHAR
STARTCHAR 04F9
ENCODING 1273
SWIDTH 510 0
DWIDTH 17 0
BBX 14 21 1 0
BITMAP
1C60
1CF0
1C60
0000
0000
0000
E01C
E01C
E01C
E01C
E01C
FF1C
FF9C
E39C
E1DC
E1DC
E1DC
E1DC
E39C
FF9C
7E1C
ENDCHAR
STARTCHAR 1E80
ENCODING 7808
SWIDTH 510 0
DWIDTH 17 0
BBX 14 28 1 0
BITMAP
0200
0600
0700
0380
01C0
0080
0000
0000
E00C
E00C
E00C
E00C
E00C
E00C
E00C
E00C
E38C
678C
678C
66CC
6ECC
6CDC
6C7C
7C78
7878
7838
7838
7038
ENDCHAR
STARTCHAR 1E81
ENCODING 7809
SWIDTH 510 0
DWIDTH 17 0
BBX 15 23 1 0
BITMAP
0200
0600
0700
0380
01C0
0080
0000
0000
C00E
C00E
C00E
E00C
E38C
E38C
E78C
67DC
67DC
6EDC
6CF8
7C78
7878
3838
3030
ENDCHAR
STARTCHAR 1E82
ENCODING 7810
SWIDTH 510 0
DWIDTH 17 0
BBX 14 28 1 0
BITMAP
0080
01C0
0380
0300
0600
0600
0000
0000
E00C
E00C
E00C
E00C
E00C
E00C
E00C
E00C
E38C
678C
678C
66CC
6ECC
6CDC
6C7C
7C78
7878
7838
7838
7038
ENDCHAR
STARTCHAR 1E83
ENCODING 7811
SWIDTH 510 0
DWIDTH 17 0
BBX 15 23 1 0
BITMAP
0080
01C0
0380
0300
0600
0600
0000
0000
C00E
C00E
C00E
E00C
E38C
E38C
E78C
67DC
67DC
6EDC
6CF8
7C78
7878
3838
3030
ENDCHAR
STARTCHAR 1E84
ENCODING 7812
SWIDTH 510 0
DWIDTH 17 0
BBX 14 26 1 0
BITMAP
1C60
1CF0
1C60
0000
0000
0000
E00C
E00C
E00C
E00C
E00C
E00C
E00C
E00C
E38C
678C
678C
66CC
6ECC
6CDC
6C7C
7C78
7878
7838
7838
7038
ENDCHAR
STARTCHAR 1E85
ENCODING 7813
SWIDTH 510 0
DWIDTH 17 0
BBX 15 21 1 0
BITMAP
1C60
1CF0
1C60
0000
0000
0000
C00E
C00E
C00E
E00C
E38C
E38C
E78C
67DC
67DC
6EDC
6CF8
7C78
7878
3838
3030
ENDCHAR
STARTCHAR 1EF2
ENCODING 7922
SWIDTH 510 0
DWIDTH 17 0
BBX 15 28 1 0
BITMAP
0200
0600
0700
0380
01C0
0080
0000
0000
E00E
E00C
E01C
701C
7038
3838
3870
1C70
1EE0
0FC0
07C0
0780
0380
0380
0380
0380
0380
0380
0380
0380
ENDCHAR
STARTCHAR 1EF3
ENCODING 7923
SWIDTH 510 0
DWIDTH 17 0
BBX 14 28 1 -5
BITMAP
0200
0600
0700
0380
01C0
0080
0000
0000
701C
701C
701C
3838
3838
3838
1C30
1C70
0C70
0E60
0EE0
07E0
07C0
03C0
0180
0380
0700
7F00
FE00
F800
ENDCHAR
STARTCHAR 1F00
ENCODING 7936
SWIDTH 510 0
DWIDTH 17 0
BBX 13 23 2 0
BITMAP
0700
0700
0700
0300
0600
0400
0000
0000
0FE0
3FF0
7FF0
F870
E070
E070
E070
C070
C070
E070
E070
F078
7FF8
3FF8
1F88
ENDCHAR
STARTCHAR 1F01
ENCODING 7937
SWIDTH 510 0
DWIDTH 17 0
BBX 13 23 2 0
BITMAP
0600
0F00
0700
0600
0300
0100
0000
0000
0FE0
3FF0
7FF0
F870
E070
E070
E070
C070
C070
E070
E070
F078
7FF8
3FF8
1F88
ENDCHAR
STARTCHAR 1F02
ENCODING 7938
SWIDTH 510 0
DWIDTH 17 0
BBX 13 23 2 0
BITMAP
3900
3B80
39C0
18C0
3060
2040
0000
0000
0FE0
3FF0
7FF0
F870
E070
E070
E070
C070
C070
E070
E070
F078
7FF8
3FF8
1F88
ENDCHAR
STARTCHAR 1F03
ENCODING 7939
SWIDTH 510 0
DWIDTH 17 0
BBX 13 23 2 0
BITMAP
3100
7B80
3180
31C0
18E0
0840
0000
0000
0FE0
3FF0
7FF0
F870
E070
E070
E070
C070
C070
E070
E070
F078
7FF8
3FF8
1F88
ENDCHAR
STARTCHAR 1F04
ENCODING 7940
SWIDTH 510 0
DWIDTH 17 0
BBX 13 23 2 0
BITMAP
0C20
1E70
0EE0
0CE0
19C0
1080
0000
0000
0FE0
3FF0
7FF0
F870
E070
E070
E070
C070
C070
E070
E070
F078
7FF8
3FF8
1F88
ENDCHAR
STARTCHAR 1F05
ENCODING 7941
SWIDTH 510 0
DWIDTH 17 0
BBX 13 23 2 0
BITMAP
3820
3870
38E0
30C0
1980
0880
0000
0000
0FE0
3FF0
7FF0
F870
E070
E070
E070
C070
C070
E070
E070
F078
7FF8
3FF8
1F88
ENDCHAR
STARTCHAR 1F06
ENCODING 7942
SWIDTH 510 0
DWIDTH 17 0
BBX 13 27 2 0
BITMAP
0780
0FC0
18E0
1860
0300
0700
0300
0300
0600
0400
0000
0000
0FE0
3FF0
7FF0
F870
E070
E070
E070
C070
C070
E070
E070
F078
7FF8
3FF8
1F88
ENDCHAR
STARTCHAR 1F07
ENCODING 7943
SWIDTH 510 0
DWIDTH 17 0
BBX 13 27 2 0
BITMAP
0F00
1F80
18C0
30C0
0600
0700
0600
0600
0300
0100
0000
0000
0FE0
3FF0
7FF0
F870
E070
E070
E070
C070
C070
E070
E070
F078
7FF8
3FF8
1F88
ENDCHAR
STARTCHAR 1F08
ENCODING 7944
SWIDTH 510 0
DWIDTH 17 0
BBX 16 21 0 0
BITMAP
7000
73C0
73E0
33E0
6760
4670
0670
0E30
0C38
0C38
1C18
1C1C
181C
381C
3FFC
3FFE
7FFE
700E
7007
7007
E007
ENDCHAR
STARTCHAR 1F09
ENCODING 7945
SWIDTH 510 0
DWIDTH 17 0
BBX 16 21 0 0
BITMAP
E000
E3C0
E3E0
C3E0
6760
2670
0670
0E30
0C38
0C38
1C18
1C1C
181C
381C
3FFC
3FFE
7FFE
700E
7007
7007
E007
ENDCHAR
STARTCHAR 1F0A
ENCODING 7946
SWIDTH 510 0
DWIDTH 17 0
BBX 22 21 -6 0
BITMAP
620000
770F00
730F80
638F80
E1DD80
C099C0
0019C0
0038C0
0030E0
0030E0
007060
007070
006070
00E070
00FFF0
00FFF8
01FFF8
01C038
01C01C
01C01C
03801C
ENDCHAR
STARTCHAR 1F0B
ENCODING 7947
SWIDTH 510 0
DWIDTH 17 0
BBX 22 21 -6 0
BITMAP
620000
F70F00
630F80
638F80
31DD80
1099C0
0019C0
0038C0
0030E0
0030E0
007060
007070
006070
00E070
00FFF0
00FFF8
01FFF8
01C038
01C01C
01C01C
03801C
ENDCHAR
STARTCHAR 1F0C
ENCODING 7948
SWIDTH 510 0
DWIDTH 17 0
BBX 20 21 -4 0
BITMAP
610000
F3BC00
773E00
663E00
CE7600
846700
006700
00E300
00C380
00C380
01C180
01C1C0
0181C0
0381C0
03FFC0
03FFE0
07FFE0
0700E0
070070
070070
0E0070
ENDCHAR
STARTCHAR 1F0D
ENCODING 7949
SWIDTH 510 0
DWIDTH 17 0
BBX 21 21 -5 0
BITMAP
E08000
E1DE00
E39F00
C31F00
663B00
223380
003380
007180
0061C0
0061C0
00E0C0
00E0E0
00C0E0
01C0E0
01FFE0
01FFF0
03FFF0
038070
038038
038038
070038
ENDCHAR
STARTCHAR 1F0E
ENCODING 7950
SWIDTH 510 0
DWIDTH 17 0
BBX 19 24 -3 0
BITMAP
3C0000
7E0000
630000
C30000
187800
1C7C00
1C7C00
18EC00
38CE00
20CE00
01C600
018700
018700
038300
038380
030380
070380
07FF80
07FFC0
0FFFC0
0E01C0
0E00E0
0E00E0
1C00E0
ENDCHAR
STARTCHAR 1F0F
ENCODING 7951
SWIDTH 510 0
DWIDTH 17 0
BBX 19 24 -3 0
BITMAP
3C0000
7E0000
C70000
C30000
187800
387C00
387C00
18EC00
1CCE00
04CE00
01C600
018700
018700
038300
038380
030380
070380
07FF80
07FFC0
0FFFC0
0E01C0
0E00E0
0E00E0
1C00E0
ENDCHAR
STARTCHAR 1F10
ENCODING 7952
SWIDTH 510 0
DWIDTH 17 0
BBX 13 23 2 0
BITMAP
0380
0380
0380
0380
0300
0600
0000
0000
0FE0
3FF0
7FF0
7010
7000
7000
3FC0
3FC0
7000
E000
E000
F018
7FF8
3FF8
1FE0
ENDCHAR
STARTCHAR 1F11
ENCODING 7953
SWIDTH 510 0
DWIDTH 17 0
BBX 13 23 2 0
BITMAP
0600
0F00
0700
0600
0300
0100
0000
0000
0FE0
3FF0
7FF0
7010
7000
7000
3FC0
3FC0
7000
E000
E000
F018
7FF8
3FF8
1FE0
ENDCHAR
STARTCHAR 1F12
ENCODING 7954
SWIDTH 510 0
DWIDTH 17 0
BBX 13 23 2 0
BITMAP
1C40
1DC0
1CE0
0C70
1830
1010
0000
0000
0FE0
3FF0
7FF0
7010
7000
7000
3FC0
3FC0
7000
E000
E000
F018
7FF8
3FF8
1FE0
ENDCHAR
STARTCHAR 1F13
ENCODING 7955
SWIDTH 510 0
DWIDTH 17 0
BBX 13 23 2 0
BITMAP
3100
7B80
3180
31C0
18E0
0840
0000
0000
0FE0
3FF0
7FF0
7010
7000
7000
3FC0
3FC0
7000
E000
E000
F018
7FF8
3FF8
1FE0
ENDCHAR
STARTCHAR 1F14
ENCODING 7956
SWIDTH 510 0
DWIDTH 17 0
BBX 13 23 2 0
BITMAP
1840
3CE0
19C0
1980
3380
2100
0000
0000
0FE0
3FF0
7FF0
7010
7000
7000
3FC0
3FC0
7000
E000
E000
F018
7FF8
3FF8
1FE0
ENDCHAR
STARTCHAR 1F15
ENCODING 7957
SWIDTH 510 0
DWIDTH 17 0
BBX 13 23 2 0
BITMAP
3820
3870
38E0
30C0
1980
0880
0000
0000
0FE0
3FF0
7FF0
7010
7000
7000
3FC0
3FC0
7000
E000
E000
F018
7FF8
3FF8
1FE0
ENDCHAR
STARTCHAR 1F18
ENCODING 7960
SWIDTH 510 0
DWIDTH 17 0
BBX 17 21 -2 0
BITMAP
600000
F7FF00
F7FF00
67FF00
C70000
870000
070000
070000
070000
07FE00
07FE00
07FE00
070000
070000
070000
070000
070000
070000
07FF80
07FF80
07FF80
ENDCHAR
STARTCHAR 1F19
ENCODING 7961
SWIDTH 510 0
DWIDTH 17 0
BBX 17 21 -2 0
BITMAP
E00000
E7FF00
E7FF00
C7FF00
670000
270000
070000
070000
070000
07FE00
07FE00
07FE00
070000
070000
070000
070000
070000
070000
07FF80
07FF80
07FF80
ENDCHAR
STARTCHAR 1F1A
ENCODING 7962
SWIDTH 510 0
DWIDTH 17 0
BBX 23 21 -8 0
BITMAP
620000
771FFC
731FFC
639FFC
E1DC00
C09C00
001C00
001C00
001C00
001FF8
001FF8
001FF8
001C00
001C00
001C00
001C00
001C00
001C00
001FFE
001FFE
001FFE
ENDCHAR
STARTCHAR 1F1B
ENCODING 7963
SWIDTH 510 0
DWIDTH 17 0
BBX 23 21 -8 0
BITMAP
620000
F71FFC
E31FFC
639FFC
31DC00
109C00
001C00
001C00
001C00
001FF8
001FF8
001FF8
001C00
001C00
001C00
001C00
001C00
001C00
001FFE
001FFE
001FFE
ENDCHAR
STARTCHAR 1F1C
ENCODING 7964
SWIDTH 510 0
DWIDTH 17 0
BBX 22 21 -7 0
BITMAP
610000
E3BFF8
E73FF8
663FF8
CC3800
8C3800
003800
003800
003800
003FF0
003FF0
003FF0
003800
003800
003800
003800
003800
003800
003FFC
003FFC
003FFC
ENDCHAR
STARTCHAR 1F1D
ENCODING 7965
SWIDTH 510 0
DWIDTH 17 0
BBX 23 21 -8 0
BITMAP
E08000
E1DFFC
E39FFC
C31FFC
661C00
221C00
001C00
001C00
001C00
001FF8
001FF8
001FF8
001C00
001C00
001C00
001C00
001C00
001C00
001FFE
001FFE
001FFE
ENDCHAR
STARTCHAR 1F20
ENCODING 7968
SWIDTH 510 0
DWIDTH 17 0
BBX 12 28 2 -5
BITMAP
0700
0700
0700
0300
0600
0400
0000
0000
7F80
FFE0
FFE0
E0F0
E070
E070
E070
E030
E030
E030
E030
E030
E030
E030
E030
0030
0030
0030
0030
0030
ENDCHAR
STARTCHAR 1F21
ENCODING 7969
SWIDTH 510 0
DWIDTH 17 0
BBX 12 28 2 -5
BITMAP
0600
0F00
0700
0600
0300
0100
0000
0000
7F80
FFE0
FFE0
E0F0
E070
E070
E070
E030
E030
E030
E030
E030
E030
E030
E030
0030
0030
0030
0030
0030
ENDCHAR
STARTCHAR 1F22
ENCODING 7970
SWIDTH 510 0
DWIDTH 17 0
BBX 12 28 2 -5
BITMAP
3900
3B80
39C0
18C0
3060
2040
0000
0000
7F80
FFE0
FFE0
E0F0
E070
E070
E070
E030
E030
E030
E030
E030
E030
E030
E030
0030
0030
0030
0030
0030
ENDCHAR
STARTCHAR 1F23
ENCODING 7971
SWIDTH 510 0
DWIDTH 17 0
BBX 12 28 2 -5
BITMAP
3100
7B80
3180
31C0
18E0
0840
0000
0000
7F80
FFE0
FFE0
E0F0
E070
E070
E070
E030
E030
E030
E030
E030
E030
E030
E030
0030
0030
0030
0030
0030
ENDCHAR
STARTCHAR 1F24
ENCODING 7972
SWIDTH 510 0
DWIDTH 17 0
BBX 12 28 2 -5
BITMAP
1840
3CE0
19C0
1980
3380
2100
0000
0000
7F80
FFE0
FFE0
E0F0
E070
E070
E070
E030
E030
E030
E030
E030
E030
E030
E030
0030
0030
0030
0030
0030
ENDCHAR
STARTCHAR 1F25
ENCODING 7973
SWIDTH 510 0
DWIDTH 17 0
BBX 12 28 2 -5
BITMAP
3820
3870
38E0
30C0
1980
0880
0000
0000
7F80
FFE0
FFE0
E0F0
E070
E070
E070
E030
E030
E030
E030
E030
E030
E030
E030
0030
0030
0030
0030
0030
ENDCHAR
STARTCHAR 1F26
ENCODING 7974
SWIDTH 510 0
DWIDTH 17 0
BBX 12 32 2 -5
BITMAP
0F00
1F80
18C0
30C0
0600
0700
0700
0600
0E00
0800
0000
0000
7F80
FFE0
FFE0
E0F0
E070
E070
E070
E030
E030
E030
E030
E030
E030
E030
E030
0030
0030
0030
0030
0030
ENDCHAR
STARTCHAR 1F27
ENCODING 7975
SWIDTH 510 0
DWIDTH 17 0
BBX 12 32 2 -5
BITMAP
0F00
1F80
18C0
30C0
0600
0700
0600
0600
0300
0100
0000
0000
7F80
FFE0
FFE0
E0F0
E070
E070
E070
E030
E030
E030
E030
E030
E030
E030
E030
0030
0030
0030
0030
0030
ENDCHAR
STARTCHAR 1F28
ENCODING 7976
SWIDTH 510 0
DWIDTH 17 0
BBX 19 21 -4 0
BITMAP
700000
7700E0
7700E0
6700E0
E700E0
C700E0
0700E0
0700E0
0700E0
07FFE0
07FFE0
07FFE0
0700E0
0700E0
0700E0
0700E0
0700E0
0700E0
0700E0
0700E0
0700E0
ENDCHAR
STARTCHAR 1F29
ENCODING 7977
SWIDTH 510 0
DWIDTH 17 0
BBX 19 21 -4 0
BITMAP
600000
F700E0
E700E0
6700E0
7700E0
1700E0
0700E0
0700E0
0700E0
07FFE0
07FFE0
07FFE0
0700E0
0700E0
0700E0
0700E0
0700E0
0700E0
0700E0
0700E0
0700E0
ENDCHAR
STARTCHAR 1F2A
ENCODING 7978
SWIDTH 510 0
DWIDTH 17 0
BBX 24 21 -9 0
BITMAP
E60000
EE3807
E73807
63B807
C1B807
81B807
003807
003807
003807
003FFF
003FFF
003FFF
003807
003807
003807
003807
003807
003807
003807
003807
003807
ENDCHAR
STARTCHAR 1F2B
ENCODING 7979
SWIDTH 510 0
DWIDTH 17 0
BBX 24 21 -9 0
BITMAP
E40000
EE3807
E73807
C33807
61B807
21B807
003807
003807
003807
003FFF
003FFF
003FFF
003807
003807
003807
003807
003807
003807
003807
003807
003807
ENDCHAR
STARTCHAR 1F2C
ENCODING 7980
SWIDTH 510 0
DWIDTH 17 0
BBX 24 21 -9 0
BITMAP
710000
73B807
73B807
673807
EE3807
C43807
003807
003807
003807
003FFF
003FFF
003FFF
003807
003807
003807
003807
003807
003807
003807
003807
003807
ENDCHAR
STARTCHAR 1F2D
ENCODING 7981
SWIDTH 510 0
DWIDTH 17 0
BBX 25 21 -10 0
BITMAP
60800000
F1DC0380
E1DC0380
639C0380
371C0380
121C0380
001C0380
001C0380
001C0380
001FFF80
001FFF80
001FFF80
001C0380
001C0380
001C0380
001C0380
001C0380
001C0380
001C0380
001C0380
001C0380
ENDCHAR
STARTCHAR 1F2E
ENCODING 7982
SWIDTH 510 0
DWIDTH 17 0
BBX 23 24 -8 0
BITMAP
3C0000
7F0000
630000
C10000
1C700E
1C700E
1C700E
1C700E
38700E
30700E
00700E
00700E
007FFE
007FFE
007FFE
00700E
00700E
00700E
00700E
00700E
00700E
00700E
00700E
00700E
ENDCHAR
STARTCHAR 1F2F
ENCODING 7983
SWIDTH 510 0
DWIDTH 17 0
BBX 23 24 -8 0
BITMAP
3C0000
7F0000
630000
C10000
18700E
1C700E
1C700E
18700E
0C700E
04700E
00700E
00700E
007FFE
007FFE
007FFE
00700E
00700E
00700E
00700E
00700E
00700E
00700E
00700E
00700E
ENDCHAR
STARTCHAR 1F30
ENCODING 7984
SWIDTH 510 0
DWIDTH 17 0
BBX 13 23 2 0
BITMAP
0E00
0E00
0E00
0E00
1C00
1800
0000
0000
FE00
FE00
FE00
0E00
0E00
0E00
0E00
0E00
0E00
0E00
0E00
0F00
07F8
07F8
03F0
ENDCHAR
STARTCHAR 1F31
ENCODING 7985
SWIDTH 510 0
DWIDTH 17 0
BBX 13 23 2 0
BITMAP
0C00
1E00
1C00
0C00
0600
0200
0000
0000
FE00
FE00
FE00
0E00
0E00
0E00
0E00
0E00
0E00
0E00
0E00
0F00
07F8
07F8
03F0
ENDCHAR
STARTCHAR 1F32
ENCODING 7986
SWIDTH 510 0
DWIDTH 17 0
BBX 13 23 2 0
BITMAP
7100
7700
7380
31C0
60C0
4040
0000
0000
FE00
FE00
FE00
0E00
0E00
0E00
0E00
0E00
0E00
0E00
0E00
0F00
07F8
07F8
03F0
ENDCHAR
STARTCHAR 1F33
ENCODING 7987
SWIDTH 510 0
DWIDTH 17 0
BBX 13 23 2 0
BITMAP
7200
7700
7380
6180
31C0
1080
0000
0000
FE00
FE00
FE00
0E00
0E00
0E00
0E00
0E00
0E00
0E00
0E00
0F00
07F8
07F8
03F0
ENDCHAR
STARTCHAR 1F34
ENCODING 7988
SWIDTH 510 0
DWIDTH 17 0
BBX 13 23 2 0
BITMAP
3880
38E0
39C0
1B80
3300
2200
0000
0000
FE00
FE00
FE00
0E00
0E00
0E00
0E00
0E00
0E00
0E00
0E00
0F00
07F8
07F8
03F0
ENDCHAR
STARTCHAR 1F35
ENCODING 7989
SWIDTH 510 0
DWIDTH 17 0
BBX 13 23 2 0
BITMAP
7080
70E0
71C0
6380
3300
1200
0000
0000
FE00
FE00
FE00
0E00
0E00
0E00
0E00
0E00
0E00
0E00
0E00
0F00
07F8
07F8
03F0
ENDCHAR
STARTCHAR 1F36
ENCODING 7990
SWIDTH 510 0
DWIDTH 17 0
BBX 13 27 2 0
BITMAP
1E00
3F80
3180
6080
0E00
0E00
0E00
0E00
0C00
1800
0000
0000
FE00
FE00
FE00
0E00
0E00
0E00
0E00
0E00
0E00
0E00
0E00
0F00
07F8
07F8
03F0
ENDCHAR
STARTCHAR 1F37
ENCODING 7991
SWIDTH 510 0
DWIDTH 17 0
BBX 13 27 2 0
BITMAP
1E00
3F80
3180
6080
0E00
0E00
0E00
0C00
0600
0200
0000
0000
FE00
FE00
FE00
0E00
0E00
0E00
0E00
0E00
0E00
0E00
0E00
0F00
07F8
07F8
03F0
ENDCHAR
STARTCHAR 1F38
ENCODING 7992
SWIDTH 510 0
DWIDTH 17 0
BBX 16 21 -2 0
BITMAP
E000
F7FF
E7FF
67FF
C070
8070
0070
0070
0070
0070
0070
0070
0070
0070
0070
0070
0070
0070
07FF
07FF
07FF
ENDCHAR
STARTCHAR 1F39
ENCODING 7993
SWIDTH 510 0
DWIDTH 17 0
BBX 16 21 -2 0
BITMAP
E000
E7FF
E7FF
C7FF
6070
2070
0070
0070
0070
0070
0070
0070
0070
0070
0070
0070
0070
0070
07FF
07FF
07FF
ENDCHAR
STARTCHAR 1F3A
ENCODING 7994
SWIDTH 510 0
DWIDTH 17 0
BBX 22 21 -8 0
BITMAP
620000
F71FFC
731FFC
639FFC
C1C1C0
8081C0
0001C0
0001C0
0001C0
0001C0
0001C0
0001C0
0001C0
0001C0
0001C0
0001C0
0001C0
0001C0
001FFC
001FFC
001FFC
ENDCHAR
STARTCHAR 1F3B
ENCODING 7995
SWIDTH 510 0
DWIDTH 17 0
BBX 22 21 -8 0
BITMAP
620000
F71FFC
E31FFC
639FFC
31C1C0
1081C0
0001C0
0001C0
0001C0
0001C0
0001C0
0001C0
0001C0
0001C0
0001C0
0001C0
0001C0
0001C0
001FFC
001FFC
001FFC
ENDCHAR
STARTCHAR 1F3C
ENCODING 7996
SWIDTH 510 0
DWIDTH 17 0
BBX 21 21 -7 0
BITMAP
E30000
E3BFF8
E73FF8
663FF8
CC0380
8C0380
000380
000380
000380
000380
000380
000380
000380
000380
000380
000380
000380
000380
003FF8
003FF8
003FF8
ENDCHAR
STARTCHAR 1F3D
ENCODING 7997
SWIDTH 510 0
DWIDTH 17 0
BBX 22 21 -8 0
BITMAP
E08000
E1DFFC
E39FFC
C31FFC
6601C0
2601C0
0001C0
0001C0
0001C0
0001C0
0001C0
0001C0
0001C0
0001C0
0001C0
0001C0
0001C0
0001C0
001FFC
001FFC
001FFC
ENDCHAR
STARTCHAR 1F3E
ENCODING 7998
SWIDTH 510 0
DWIDTH 17 0
BBX 20 24 -6 0
BITMAP
3C0000
7E0000
C70000
C30000
187FF0
387FF0
187FF0
180700
300700
200700
000700
000700
000700
000700
000700
000700
000700
000700
000700
000700
000700
007FF0
007FF0
007FF0
ENDCHAR
STARTCHAR 1F3F
ENCODING 7999
SWIDTH 510 0
DWIDTH 17 0
BBX 20 24 -6 0
BITMAP
3C0000
7E0000
C70000
C30000
187FF0
387FF0
387FF0
180700
1C0700
040700
000700
000700
000700
000700
000700
000700
000700
000700
000700
000700
000700
007FF0
007FF0
007FF0
ENDCHAR
STARTCHAR 1F40
ENCODING 8000
SWIDTH 510 0
DWIDTH 17 0
BBX 14 23 1 0
BITMAP
0380
0380
0380
0180
0300
0200
0000
0000
07C0
1FF0
3FF8
7878
703C
E01C
E01C
E01C
E01C
E01C
703C
7878
3FF8
1FF0
0FC0
ENDCHAR
STARTCHAR 1F41
ENCODING 8001
SWIDTH 510 0
DWIDTH 17 0
BBX 14 23 1 0
BITMAP
0300
0780
0380
0300
0180
0080
0000
0000
07C0
1FF0
3FF8
7878
703C
E01C
E01C
E01C
E01C
E01C
703C
7878
3FF8
1FF0
0FC0
ENDCHAR
STARTCHAR 1F42
ENCODING 8002
SWIDTH 510 0
DWIDTH 17 0
BBX 14 23 1 0
BITMAP
1C80
1DC0
1CE0
0C60
1830
1020
0000
0000
07C0
1FF0
3FF8
7878
703C
E01C
E01C
E01C
E01C
E01C
703C
7878
3FF8
1FF0
0FC0
ENDCHAR
STARTCHAR 1F43
ENCODING 8003
SWIDTH 510 0
DWIDTH 17 0
BBX 14 23 1 0
BITMAP
1880
3DC0
18C0
18E0
0C70
0420
0000
0000
07C0
1FF0
3FF8
7878
703C
E01C
E01C
E01C
E01C
E01C
703C
7878
3FF8
1FF0
0FC0
ENDCHAR
STARTCHAR 1F44
ENCODING 8004
SWIDTH 510 0
DWIDTH 17 0
BBX 14 23 1 0
BITMAP
0C20
1E70
0CE0
0CC0
19C0
1080
0000
0000
07C0
1FF0
3FF8
7878
703C
E01C
E01C
E01C
E01C
E01C
703C
7878
3FF8
1FF0
0FC0
ENDCHAR
STARTCHAR 1F45
ENCODING 8005
SWIDTH 510 0
DWIDTH 17 0
BBX 14 23 1 0
BITMAP
1C10
1C38
1C70
1860
0CC0
0440
0000
0000
07C0
1FF0
3FF8
7878
703C
E01C
E01C
E01C
E01C
E01C
703C
7878
3FF8
1FF0
0FC0
ENDCHAR
STARTCHAR 1F48
ENCODING 8008
SWIDTH 510 0
DWIDTH 17 0
BBX 19 21 -3 0
BITMAP
700000
707C00
71FF00
73FF80
E78780
C703C0
0F01C0
0E01C0
0E00C0
0E00E0
0E00E0
0E00E0
0E00E0
0E00C0
0E01C0
0E01C0
0703C0
078780
03FF80
01FF00
007C00
ENDCHAR
STARTCHAR 1F49
ENCODING 8009
SWIDTH 510 0
DWIDTH 17 0
BBX 20 21 -4 0
BITMAP
E00000
F03E00
E0FF80
61FFC0
73C3C0
3381E0
0780E0
0700E0
070060
070070
070070
070070
070070
070060
0700E0
0700E0
0381E0
03C3C0
01FFC0
00FF80
003E00
ENDCHAR
STARTCHAR 1F4A
ENCODING 8010
SWIDTH 510 0
DWIDTH 17 0
BBX 25 21 -9 0
BITMAP
E4000000
EE01F000
E707FC00
630FFE00
C19E1E00
811C0F00
003C0700
00380700
00380300
00380380
00380380
00380380
00380380
00380300
00380700
00380700
001C0F00
001E1E00
000FFE00
0007FC00
0001F000
ENDCHAR
STARTCHAR 1F4B
ENCODING 8011
SWIDTH 510 0
DWIDTH 17 0
BBX 25 21 -9 0
BITMAP
E4000000
EE01F000
E707FC00
C30FFE00
619E1E00
211C0F00
003C0700
00380700
00380300
00380380
00380380
00380380
00380380
00380300
00380700
00380700
001C0F00
001E1E00
000FFE00
0007FC00
0001F000
ENDCHAR
STARTCHAR 1F4C
ENCODING 8012
SWIDTH 510 0
DWIDTH 17 0
BBX 23 21 -7 0
BITMAP
E30000
E387C0
E71FF0
663FF8
CC7878
8C703C
00F01C
00E01C
00E00C
00E00E
00E00E
00E00E
00E00E
00E00C
00E01C
00E01C
00703C
007878
003FF8
001FF0
0007C0
ENDCHAR
STARTCHAR 1F4D
ENCODING 8013
SWIDTH 510 0
DWIDTH 17 0
BBX 24 21 -8 0
BITMAP
E18000
E1C3E0
E38FF8
C71FFC
663C3C
26381E
00780E
00700E
007006
007007
007007
007007
007007
007006
00700E
00700E
00381E
003C3C
001FFC
000FF8
0003E0
ENDCHAR
STARTCHAR 1F50
ENCODING 8016
SWIDTH 510 0
DWIDTH 17 0
BBX 12 23 2 0
BITMAP
0700
0700
0700
0300
0600
0400
0000
0000
E070
E070
E070
E070
E070
E070
E070
E070
E070
E070
7070
70F0
7FE0
3FC0
1F80
ENDCHAR
STARTCHAR 1F51
ENCODING 8017
SWIDTH 510 0
DWIDTH 17 0
BBX 12 23 2 0
BITMAP
0600
0F00
0700
0600
0300
0100
0000
0000
E070
E070
E070
E070
E070
E070
E070
E070
E070
E070
7070
70F0
7FE0
3FC0
1F80
ENDCHAR
STARTCHAR 1F52
ENCODING 8018
SWIDTH 510 0
DWIDTH 17 0
BBX 12 23 2 0
BITMAP
3900
3B80
39C0
18C0
3060
2040
0000
0000
E070
E070
E070
E070
E070
E070
E070
E070
E070
E070
7070
70F0
7FE0
3FC0
1F80
ENDCHAR
STARTCHAR 1F53
ENCODING 8019
SWIDTH 510 0
DWIDTH 17 0
BBX 12 23 2 0
BITMAP
3100
7B80
3180
31C0
18E0
0840
0000
0000
E070
E070
E070
E070
E070
E070
E070
E070
E070
E070
7070
70F0
7FE0
3FC0
1F80
ENDCHAR
STARTCHAR 1F54
ENCODING 8020
SWIDTH 510 0
DWIDTH 17 0
BBX 12 23 2 0
BITMAP
1840
3CE0
19C0
1980
3380
2100
0000
0000
E070
E070
E070
E070
E070
E070
E070
E070
E070
E070
7070
70F0
7FE0
3FC0
1F80
ENDCHAR
STARTCHAR 1F55
ENCODING 8021
SWIDTH 510 0
DWIDTH 17 0
BBX 12 23 2 0
BITMAP
3820
3870
38E0
30C0
1980
0880
0000
0000
E070
E070
E070
E070
E070
E070
E070
E070
E070
E070
7070
70F0
7FE0
3FC0
1F80
ENDCHAR
STARTCHAR 1F56
ENCODING 8022
SWIDTH 510 0
DWIDTH 17 0
BBX 12 27 2 0
BITMAP
0F00
1F80
18C0
30C0
0600
0700
0700
0600
0E00
0800
0000
0000
E070
E070
E070
E070
E070
E070
E070
E070
E070
E070
7070
70F0
7FE0
3FC0
1F80
ENDCHAR
STARTCHAR 1F57
ENCODING 8023
SWIDTH 510 0
DWIDTH 17 0
BBX 12 27 2 0
BITMAP
0F00
1F80
18C0
30C0
0600
0700
0600
0600
0300
0100
0000
0000
E070
E070
E070
E070
E070
E070
E070
E070
E070
E070
7070
70F0
7FE0
3FC0
1F80
ENDCHAR
STARTCHAR 1F59
ENCODING 8025
SWIDTH 510 0
DWIDTH 17 0
BBX 20 21 -4 0
BITMAP
E00000
E70070
E70060
6700E0
7380E0
3381C0
01C1C0
01C380
00E380
00F700
007E00
003E00
003C00
001C00
001C00
001C00
001C00
001C00
001C00
001C00
001C00
ENDCHAR
STARTCHAR 1F5B
ENCODING 8027
SWIDTH 510 0
DWIDTH 17 0
BBX 25 21 -9 0
BITMAP
62000000
EE380380
E7380300
63B80700
319C0700
109C0E00
000E0E00
000E1C00
00071C00
0007B800
0003F000
0001F000
0001E000
0000E000
0000E000
0000E000
0000E000
0000E000
0000E000
0000E000
0000E000
ENDCHAR
STARTCHAR 1F5D
ENCODING 8029
SWIDTH 510 0
DWIDTH 17 0
BBX 26 21 -10 0
BITMAP
E1000000
E1DC01C0
E39C0180
C71C0380
660E0380
240E0700
00070700
00070E00
00038E00
0003DC00
0001F800
0000F800
0000F000
00007000
00007000
00007000
00007000
00007000
00007000
00007000
00007000
ENDCHAR
STARTCHAR 1F5F
ENCODING 8031
SWIDTH 510 0
DWIDTH 17 0
BBX 24 24 -8 0
BITMAP
780000
FE0000
C60000
820000
387007
387006
38700E
30380E
18381C
081C1C
001C38
000E38
000F70
0007E0
0003E0
0003C0
0001C0
0001C0
0001C0
0001C0
0001C0
0001C0
0001C0
0001C0
ENDCHAR
STARTCHAR 1F60
ENCODING 8032
SWIDTH 510 0
DWIDTH 17 0
BBX 14 23 1 0
BITMAP
0380
0380
0380
0180
0300
0200
0000
0000
1830
3830
3038
7018
701C
601C
E39C
E38C
E38C
E38C
E39C
E79C
7FFC
7EF8
3C70
ENDCHAR
STARTCHAR 1F61
ENCODING 8033
SWIDTH 510 0
DWIDTH 17 0
BBX 14 23 1 0
BITMAP
0300
0780
0380
0300
0180
0080
0000
0000
1830
3830
3038
7018
701C
601C
E39C
E38C
E38C
E38C
E39C
E79C
7FFC
7EF8
3C70
ENDCHAR
STARTCHAR 1F62
ENCODING 8034
SWIDTH 510 0
DWIDTH 17 0
BBX 14 23 1 0
BITMAP
1C80
1DC0
1CE0
0C60
1830
1020
0000
0000
1830
3830
3038
7018
701C
601C
E39C
E38C
E38C
E38C
E39C
E79C
7FFC
7EF8
3C70
ENDCHAR
STARTCHAR 1F63
ENCODING 8035
SWIDTH 510 0
DWIDTH 17 0
BBX 14 23 1 0
BITMAP
1880
3DC0
18C0
18E0
0C70
0420
0000
0000
1830
3830
3038
7018
701C
601C
E39C
E38C
E38C
E38C
E39C
E79C
7FFC
7EF8
3C70
ENDCHAR
STARTCHAR 1F64
ENCODING 8036
SWIDTH 510 0
DWIDTH 17 0
BBX 14 23 1 0
BITMAP
0C20
1E70
0CE0
0CC0
19C0
1080
0000
0000
1830
3830
3038
7018
701C
601C
E39C
E38C
E38C
E38C
E39C
E79C
7FFC
7EF8
3C70
ENDCHAR
STARTCHAR 1F65
ENCODING 8037
SWIDTH 510 0
DWIDTH 17 0
BBX 14 23 1 0
BITMAP
1C10
1C38
1C70
1860
0CC0
0440
0000
0000
1830
3830
3038
7018
701C
601C
E39C
E38C
E38C
E38C
E39C
E79C
7FFC
7EF8
3C70
ENDCHAR
STARTCHAR 1F66
ENCODING 8038
SWIDTH 510 0
DWIDTH 17 0
BBX 14 27 1 0
BITMAP
0780
0FC0
0C60
1860
0300
0380
0380
0300
0700
0400
0000
0000
1830
3830
3038
7018
701C
601C
E39C
E38C
E38C
E38C
E39C
E79C
7FFC
7EF8
3C70
ENDCHAR
STARTCHAR 1F67
ENCODING 8039
SWIDTH 510 0
DWIDTH 17 0
BBX 14 27 1 0
BITMAP
0780
0FC0
0C60
1860
0300
0380
0300
0300
0180
0080
0000
0000
1830
3830
3038
7018
701C
601C
E39C
E38C
E38C
E38C
E39C
E79C
7FFC
7EF8
3C70
ENDCHAR
STARTCHAR 1F68
ENCODING 8040
SWIDTH 510 0
DWIDTH 17 0
BBX 19 21 -3 0
BITMAP
700000
707C00
71FF00
63FF80
E78780
C703C0
0F01C0
0E01C0
0E00C0
0E00C0
0E00C0
0E00C0
0E01C0
0601C0
070180
070380
038300
018700
0FCFE0
0FCFE0
0FCFE0
ENDCHAR
STARTCHAR 1F69
ENCODING 8041
SWIDTH 510 0
DWIDTH 17 0
BBX 20 21 -4 0
BITMAP
E00000
E03E00
E0FF80
61FFC0
73C3C0
3381E0
0780E0
0700E0
070060
070060
070060
070060
0700E0
0300E0
0380C0
0381C0
01C180
00C380
07E7F0
07E7F0
07E7F0
ENDCHAR
STARTCHAR 1F6A
ENCODING 8042
SWIDTH 510 0
DWIDTH 17 0
BBX 25 21 -9 0
BITMAP
E4000000
EE01F000
E707FC00
630FFE00
C19E1E00
811C0F00
003C0700
00380700
00380300
00380300
00380300
00380300
00380700
00180700
001C0600
001C0E00
000E0C00
00061C00
003F3F80
003F3F80
003F3F80
ENDCHAR
STARTCHAR 1F6B
ENCODING 8043
SWIDTH 510 0
DWIDTH 17 0
BBX 25 21 -9 0
BITMAP
E4000000
EE01F000
E707FC00
C30FFE00
619E1E00
211C0F00
003C0700
00380700
00380300
00380300
00380300
00380300
00380700
00180700
001C0600
001C0E00
000E0C00
00061C00
003F3F80
003F3F80
003F3F80
ENDCHAR
STARTCHAR 1F6C
ENCODING 8044
SWIDTH 510 0
DWIDTH 17 0
BBX 23 21 -7 0
BITMAP
E20000
E387C0
E71FF0
6E3FF8
CC7878
8C703C
00F01C
00E01C
00E00C
00E00C
00E00C
00E00C
00E01C
00601C
007018
007038
003830
001870
00FCFE
00FCFE
00FCFE
ENDCHAR
STARTCHAR 1F6D
ENCODING 8045
SWIDTH 510 0
DWIDTH 17 0
BBX 24 21 -8 0
BITMAP
E10000
E1C3E0
E38FF8
C71FFC
663C3C
24381E
00780E
00700E
007006
007006
007006
007006
00700E
00300E
00380C
00381C
001C18
000C38
007E7F
007E7F
007E7F
ENDCHAR
STARTCHAR 1F6E
ENCODING 8046
SWIDTH 510 0
DWIDTH 17 0
BBX 22 24 -6 0
BITMAP
3C0000
7E0000
630000
C10000
1C0F80
1C3FE0
1C7FF0
1CF0F0
38E078
31E038
01C038
01C018
01C018
01C018
01C018
01C038
00C038
00E030
00E070
007060
0030E0
01F9FC
01F9FC
01F9FC
ENDCHAR
STARTCHAR 1F6F
ENCODING 8047
SWIDTH 510 0
DWIDTH 17 0
BBX 22 24 -6 0
BITMAP
780000
FE0000
C60000
820000
380F80
383FE0
387FF0
30F0F0
18E078
09E038
01C038
01C018
01C018
01C018
01C018
01C038
00C038
00E030
00E070
007060
0030E0
01F9FC
01F9FC
01F9FC
ENDCHAR
STARTCHAR 1F70
ENCODING 8048
SWIDTH 510 0
DWIDTH 17 0
BBX 13 23 2 0
BITMAP
0800
0E00
0F00
0780
0380
0080
0000
0000
0FE0
3FF0
7FF0
F870
E070
E070
E070
C070
C070
E070
E070
F078
7FF8
3FF8
1F88
ENDCHAR
STARTCHAR 1F71
ENCODING 8049
SWIDTH 510 0
DWIDTH 17 0
BBX 13 23 2 0
BITMAP
0080
01C0
03C0
0700
0E00
0400
0000
0000
0FE0
3FF0
7FF0
F870
E070
E070
E070
C070
C070
E070
E070
F078
7FF8
3FF8
1F88
ENDCHAR
STARTCHAR 1F72
ENCODING 8050
SWIDTH 510 0
DWIDTH 17 0
BBX 13 23 2 0
BITMAP
0800
0E00
0F00
0780
0380
0080
0000
0000
0FE0
3FF0
7FF0
7010
7000
7000
3FC0
3FC0
7000
E000
E000
F018
7FF8
3FF8
1FE0
ENDCHAR
STARTCHAR 1F73
ENCODING 8051
SWIDTH 510 0
DWIDTH 17 0
BBX 13 23 2 0
BITMAP
0080
01C0
03C0
0700
0E00
0400
0000
0000
0FE0
3FF0
7FF0
7010
7000
7000
3FC0
3FC0
7000
E000
E000
F018
7FF8
3FF8
1FE0
ENDCHAR
STARTCHAR 1F74
ENCODING 8052
SWIDTH 510 0
DWIDTH 17 0
BBX 12 28 2 -5
BITMAP
0800
0E00
0F00
0780
0380
0080
0000
0000
7F80
FFE0
FFE0
E0F0
E070
E070
E070
E030
E030
E030
E030
E030
E030
E030
E030
0030
0030
0030
0030
0030
ENDCHAR
STARTCHAR 1F75
ENCODING 8053
SWIDTH 510 0
DWIDTH 17 0
BBX 12 28 2 -5
BITMAP
0080
01C0
03C0
0700
0E00
0400
0000
0000
7F80
FFE0
FFE0
E0F0
E070
E070
E070
E030
E030
E030
E030
E030
E030
E030
E030
0030
0030
0030
0030
0030
ENDCHAR
STARTCHAR 1F76
ENCODING 8054
SWIDTH 510 0
DWIDTH 17 0
BBX 13 23 2 0
BITMAP
1000
1C00
1E00
0F00
0700
0100
0000
0000
FE00
FE00
FE00
0E00
0E00
0E00
0E00
0E00
0E00
0E00
0E00
0F00
07F8
07F8
03F0
ENDCHAR
STARTCHAR 1F77
ENCODING 8055
SWIDTH 510 0
DWIDTH 17 0
BBX 13 23 2 0
BITMAP
0100
0380
0780
1E00
1C00
0800
0000
0000
FE00
FE00
FE00
0E00
0E00
0E00
0E00
0E00
0E00
0E00
0E00
0F00
07F8
07F8
03F0
ENDCHAR
STARTCHAR 1F78
ENCODING 8056
SWIDTH 510 0
DWIDTH 17 0
BBX 14 23 1 0
BITMAP
0400
0700
0780
03C0
01C0
0040
0000
0000
07C0
1FF0
3FF8
7878
703C
E01C
E01C
E01C
E01C
E01C
703C
7878
3FF8
1FF0
0FC0
ENDCHAR
STARTCHAR 1F79
ENCODING 8057
SWIDTH 510 0
DWIDTH 17 0
BBX 14 23 1 0
BITMAP
0040
00E0
01E0
0380
0700
0200
0000
0000
07C0
1FF0
3FF8
7878
703C
E01C
E01C
E01C
E01C
E01C
703C
7878
3FF8
1FF0
0FC0
ENDCHAR
STARTCHAR 1F7A
ENCODING 8058
SWIDTH 510 0
DWIDTH 17 0
BBX 12 23 2 0
BITMAP
0800
0E00
0F00
0780
0380
0080
0000
0000
E070
E070
E070
E070
E070
E070
E070
E070
E070
E070
7070
70F0
7FE0
3FC0
1F80
ENDCHAR
STARTCHAR 1F7B
ENCODING 8059
SWIDTH 510 0
DWIDTH 17 0
BBX 12 23 2 0
BITMAP
0080
01C0
03C0
0700
0E00
0400
0000
0000
E070
E070
E070
E070
E070
E070
E070
E070
E070
E070
7070
70F0
7FE0
3FC0
1F80
ENDCHAR
STARTCHAR 1F7C
ENCODING 8060
SWIDTH 510 0
DWIDTH 17 0
BBX 14 23 1 0
BITMAP
0400
0700
0780
03C0
01C0
0040
0000
0000
1830
3830
3038
7018
701C
601C
E39C
E38C
E38C
E38C
E39C
E79C
7FFC
7EF8
3C70
ENDCHAR
STARTCHAR 1F7D
ENCODING 8061
SWIDTH 510 0
DWIDTH 17 0
BBX 14 23 1 0
BITMAP
0040
00E0
01E0
0380
0700
0200
0000
0000
1830
3830
3038
7018
701C
601C
E39C
E38C
E38C
E38C
E39C
E79C
7FFC
7EF8
3C70
ENDCHAR
STARTCHAR 1F80
ENCODING 8064
SWIDTH 510 0
DWIDTH 17 0
BBX 13 28 2 -5
BITMAP
0700
0700
0700
0300
0600
0400
0000
0000
0FE0
3FF0
7FF0
F870
E070
E070
E070
C070
C070
E070
E070
F078
7FF8
3FF8
1F88
0000
0E00
0600
0780
0380
ENDCHAR
STARTCHAR 1F81
ENCODING 8065
SWIDTH 510 0
DWIDTH 17 0
BBX 13 28 2 -5
BITMAP
0600
0F00
0700
0600
0300
0100
0000
0000
0FE0
3FF0
7FF0
F870
E070
E070
E070
C070
C070
E070
E070
F078
7FF8
3FF8
1F88
0000
0E00
0600
0780
0380
ENDCHAR
STARTCHAR 1F82
ENCODING 8066
SWIDTH 510 0
DWIDTH 17 0
BBX 13 28 2 -5
BITMAP
3900
3B80
39C0
18C0
3060
2040
0000
0000
0FE0
3FF0
7FF0
F870
E070
E070
E070
C070
C070
E070
E070
F078
7FF8
3FF8
1F88
0000
0E00
0600
0780
0380
ENDCHAR
STARTCHAR 1F83
ENCODING 8067
SWIDTH 510 0
DWIDTH 17 0
BBX 13 28 2 -5
BITMAP
3100
7B80
3180
31C0
18E0
0840
0000
0000
0FE0
3FF0
7FF0
F870
E070
E070
E070
C070
C070
E070
E070
F078
7FF8
3FF8
1F88
0000
0E00
0600
0780
0380
ENDCHAR
STARTCHAR 1F84
ENCODING 8068
SWIDTH 510 0
DWIDTH 17 0
BBX 13 28 2 -5
BITMAP
0C20
1E70
0EE0
0CE0
19C0
1080
0000
0000
0FE0
3FF0
7FF0
F870
E070
E070
E070
C070
C070
E070
E070
F078
7FF8
3FF8
1F88
0000
0E00
0600
0780
0380
ENDCHAR
STARTCHAR 1F85
ENCODING 8069
SWIDTH 510 0
DWIDTH 17 0
BBX 13 28 2 -5
BITMAP
3820
3870
38E0
30C0
1980
0880
0000
0000
0FE0
3FF0
7FF0
F870
E070
E070
E070
C070
C070
E070
E070
F078
7FF8
3FF8
1F88
0000
0E00
0600
0780
0380
ENDCHAR
STARTCHAR 1F86
ENCODING 8070
SWIDTH 510 0
DWIDTH 17 0
BBX 13 32 2 -5
BITMAP
0780
0FC0
18E0
1860
0300
0700
0300
0300
0600
0400
0000
0000
0FE0
3FF0
7FF0
F870
E070
E070
E070
C070
C070
E070
E070
F078
7FF8
3FF8
1F88
0000
0E00
0600
0780
0380
ENDCHAR
STARTCHAR 1F87
ENCODING 8071
SWIDTH 510 0
DWIDTH 17 0
BBX 13 32 2 -5
BITMAP
0F00
1F80
18C0
30C0
0600
0700
0600
0600
0300
0100
0000
0000
0FE0
3FF0
7FF0
F870
E070
E070
E070
C070
C070
E070
E070
F078
7FF8
3FF8
1F88
0000
0E00
0600
0780
0380
ENDCHAR
STARTCHAR 1F88
ENCODING 8072
SWIDTH 510 0
DWIDTH 17 0
BBX 18 21 -2 0
BITMAP
600000
F3C000
73C000
67C000
E6C000
86C000
06E380
066380
0E6380
0C6380
0C6380
0C7380
0C7380
0C7380
1FF380
1FF380
1FF380
183B80
1839C0
1839C0
3818C0
ENDCHAR
STARTCHAR 1F89
ENCODING 8073
SWIDTH 510 0
DWIDTH 17 0
BBX 19 21 -3 0
BITMAP
600000
F1E000
E1E000
63E000
736000
136000
0371C0
0331C0
0731C0
0631C0
0631C0
0639C0
0639C0
0639C0
0FF9C0
0FF9C0
0FF9C0
0C1DC0
0C1CE0
0C1CE0
1C0C60
ENDCHAR
STARTCHAR 1F8A
ENCODING 8074
SWIDTH 510 0
DWIDTH 17 0
BBX 24 21 -8 0
BITMAP
E20000
EE0F00
E70F00
639F00
C19B00
819B00
001B8E
00198E
00398E
00318E
00318E
0031CE
0031CE
0031CE
007FCE
007FCE
007FCE
0060EE
0060E7
0060E7
00E063
ENDCHAR
STARTCHAR 1F8B
ENCODING 8075
SWIDTH 510 0
DWIDTH 17 0
BBX 24 21 -8 0
BITMAP
E20000
EE0F00
E70F00
E39F00
719B00
209B00
001B8E
00198E
00398E
00318E
00318E
0031CE
0031CE
0031CE
007FCE
007FCE
007FCE
0060EE
0060E7
0060E7
00E063
ENDCHAR
STARTCHAR 1F8C
ENCODING 8076
SWIDTH 510 0
DWIDTH 17 0
BBX 23 21 -7 0
BITMAP
710000
739E00
739E00
673E00
EE3600
443600
00371C
00331C
00731C
00631C
00631C
00639C
00639C
00639C
00FF9C
00FF9C
00FF9C
00C1DC
00C1CE
00C1CE
01C0C6
ENDCHAR
STARTCHAR 1F8D
ENCODING 8077
SWIDTH 510 0
DWIDTH 17 0
BBX 24 21 -8 0
BITMAP
608000
F1CF00
E1CF00
639F00
371B00
121B00
001B8E
00198E
00398E
00318E
00318E
0031CE
0031CE
0031CE
007FCE
007FCE
007FCE
0060EE
0060E7
0060E7
00E063
ENDCHAR
STARTCHAR 1F8E
ENCODING 8078
SWIDTH 510 0
DWIDTH 17 0
BBX 21 24 -5 0
BITMAP
3C0000
FE0000
C60000
830000
387800
387800
38F800
18D800
30D800
20DC70
00CC70
01CC70
018C70
018C70
018E70
018E70
018E70
03FE70
03FE70
03FE70
030770
030738
030738
070318
ENDCHAR
STARTCHAR 1F8F
ENCODING 8079
SWIDTH 510 0
DWIDTH 17 0
BBX 22 24 -6 0
BITMAP
3C0000
7F0000
630000
C10000
183C00
1C3C00
1C7C00
186C00
0C6C00
046E38
006638
00E638
00C638
00C638
00C738
00C738
00C738
01FF38
01FF38
01FF38
0183B8
01839C
01839C
03818C
ENDCHAR
STARTCHAR 1F90
ENCODING 8080
SWIDTH 510 0
DWIDTH 17 0
BBX 12 28 2 -5
BITMAP
0700
0700
0700
0300
0600
0400
0000
0000
7F80
FFE0
FFE0
E0F0
E070
E070
E070
E030
E030
E030
E030
E030
E030
E030
E030
0030
E030
E030
7830
3830
ENDCHAR
STARTCHAR 1F91
ENCODING 8081
SWIDTH 510 0
DWIDTH 17 0
BBX 12 28 2 -5
BITMAP
0600
0F00
0700
0600
0300
0100
0000
0000
7F80
FFE0
FFE0
E0F0
E070
E070
E070
E030
E030
E030
E030
E030
E030
E030
E030
0030
E030
E030
7830
3830
ENDCHAR
STARTCHAR 1F92
ENCODING 8082
SWIDTH 510 0
DWIDTH 17 0
BBX 12 28 2 -5
BITMAP
3900
3B80
39C0
18C0
3060
2040
0000
0000
7F80
FFE0
FFE0
E0F0
E070
E070
E070
E030
E030
E030
E030
E030
E030
E030
E030
0030
E030
E030
7830
3830
ENDCHAR
STARTCHAR 1F93
ENCODING 8083
SWIDTH 510 0
DWIDTH 17 0
BBX 12 28 2 -5
BITMAP
3100
7B80
3180
31C0
18E0
0840
0000
0000
7F80
FFE0
FFE0
E0F0
E070
E070
E070
E030
E030
E030
E030
E030
E030
E030
E030
0030
E030
E030
7830
3830
ENDCHAR
STARTCHAR 1F94
ENCODING 8084
SWIDTH 510 0
DWIDTH 17 0
BBX 12 28 2 -5
BITMAP
1840
3CE0
19C0
1980
3380
2100
0000
0000
7F80
FFE0
FFE0
E0F0
E070
E070
E070
E030
E030
E030
E030
E030
E030
E030
E030
0030
E030
E030
7830
3830
ENDCHAR
STARTCHAR 1F95
ENCODING 8085
SWIDTH 510 0
DWIDTH 17 0
BBX 12 28 2 -5
BITMAP
3820
3870
38E0
30C0
1980
0880
0000
0000
7F80
FFE0
FFE0
E0F0
E070
E070
E070
E030
E030
E030
E030
E030
E030
E030
E030
0030
E030
E030
7830
3830
ENDCHAR
STARTCHAR 1F96
ENCODING 8086
SWIDTH 510 0
DWIDTH 17 0
BBX 12 32 2 -5
BITMAP
0F00
1F80
18C0
30C0
0600
0700
0700
0600
0E00
0800
0000
0000
7F80
FFE0
FFE0
E0F0
E070
E070
E070
E030
E030
E030
E030
E030
E030
E030
E030
0030
E030
E030
7830
3830
ENDCHAR
STARTCHAR 1F97
ENCODING 8087
SWIDTH 510 0
DWIDTH 17 0
BBX 12 32 2 -5
BITMAP
0F00
1F80
18C0
30C0
0600
0700
0600
0600
0300
0100
0000
0000
7F80
FFE0
FFE0
E0F0
E070
E070
E070
E030
E030
E030
E030
E030
E030
E030
E030
0030
E030
E030
7830
3830
ENDCHAR
STARTCHAR 1F98
ENCODING 8088
SWIDTH 510 0
DWIDTH 17 0
BBX 20 21 -4 0
BITMAP
700000
770C00
770C00
670C00
E70C00
C70C00
070CE0
070CE0
070CE0
07FCE0
07FCE0
07FCE0
070CE0
070CE0
070CE0
070CE0
070CE0
070CE0
070C70
070C70
070C30
ENDCHAR
STARTCHAR 1F99
ENCODING 8089
SWIDTH 510 0
DWIDTH 17 0
BBX 20 21 -4 0
BITMAP
E00000
E70C00
E70C00
E70C00
770C00
370C00
070CE0
070CE0
070CE0
07FCE0
07FCE0
07FCE0
070CE0
070CE0
070CE0
070CE0
070CE0
070CE0
070C70
070C70
070C30
ENDCHAR
STARTCHAR 1F9A
ENCODING 8090
SWIDTH 510 0
DWIDTH 17 0
BBX 25 21 -9 0
BITMAP
E6000000
EE386000
E7386000
63B86000
C1B86000
81B86000
00386700
00386700
00386700
003FE700
003FE700
003FE700
00386700
00386700
00386700
00386700
00386700
00386700
00386380
00386380
00386180
ENDCHAR
STARTCHAR 1F9B
ENCODING 8091
SWIDTH 510 0
DWIDTH 17 0
BBX 25 21 -9 0
BITMAP
E4000000
EE386000
E7386000
C3386000
61B86000
21B86000
00386700
00386700
00386700
003FE700
003FE700
003FE700
00386700
00386700
00386700
00386700
00386700
00386700
00386380
00386380
00386180
ENDCHAR
STARTCHAR 1F9C
ENCODING 8092
SWIDTH 510 0
DWIDTH 17 0
BBX 25 21 -9 0
BITMAP
71000000
73B86000
73B86000
67386000
EE386000
C4386000
00386700
00386700
00386700
003FE700
003FE700
003FE700
00386700
00386700
00386700
00386700
00386700
00386700
00386380
00386380
00386180
ENDCHAR
STARTCHAR 1F9D
ENCODING 8093
SWIDTH 510 0
DWIDTH 17 0
BBX 26 21 -10 0
BITMAP
60800000
F1DC3000
E1DC3000
639C3000
371C3000
121C3000
001C3380
001C3380
001C3380
001FF380
001FF380
001FF380
001C3380
001C3380
001C3380
001C3380
001C3380
001C3380
001C31C0
001C31C0
001C30C0
ENDCHAR
STARTCHAR 1F9E
ENCODING 8094
SWIDTH 510 0
DWIDTH 17 0
BBX 24 24 -8 0
BITMAP
3C0000
7F0000
630000
C10000
1C70C0
1C70C0
1C70C0
1C70C0
3870C0
3070CE
0070CE
0070CE
007FCE
007FCE
007FCE
0070CE
0070CE
0070CE
0070CE
0070CE
0070CE
0070C7
0070C7
0070C3
ENDCHAR
STARTCHAR 1F9F
ENCODING 8095
SWIDTH 510 0
DWIDTH 17 0
BBX 24 24 -8 0
BITMAP
3C0000
7F0000
630000
C10000
1870C0
1C70C0
1C70C0
1870C0
0C70C0
0470CE
0070CE
0070CE
007FCE
007FCE
007FCE
0070CE
0070CE
0070CE
0070CE
0070CE
0070CE
0070C7
0070C7
0070C3
ENDCHAR
STARTCHAR 1FA0
ENCODING 8096
SWIDTH 510 0
DWIDTH 17 0
BBX 14 28 1 -5
BITMAP
0380
0380
0380
0180
0300
0200
0000
0000
1830
3830
3038
7018
701C
601C
E39C
E38C
E38C
E38C
E39C
E79C
7FFC
7EF8
3C70
0000
0380
0380
03E0
01E0
ENDCHAR
STARTCHAR 1FA1
ENCODING 8097
SWIDTH 510 0
DWIDTH 17 0
BBX 14 28 1 -5
BITMAP
0300
0780
0380
0300
0180
0080
0000
0000
1830
3830
3038
7018
701C
601C
E39C
E38C
E38C
E38C
E39C
E79C
7FFC
7EF8
3C70
0000
0380
0380
03E0
01E0
ENDCHAR
STARTCHAR 1FA2
ENCODING 8098
SWIDTH 510 0
DWIDTH 17 0
BBX 14 28 1 -5
BITMAP
1C80
1DC0
1CE0
0C60
1830
1020
0000
0000
1830
3830
3038
7018
701C
601C
E39C
E38C
E38C
E38C
E39C
E79C
7FFC
7EF8
3C70
0000
0380
0380
03E0
01E0
ENDCHAR
STARTCHAR 1FA3
ENCODING 8099
SWIDTH 510 0
DWIDTH 17 0
BBX 14 28 1 -5
BITMAP
1880
3DC0
18C0
18E0
0C70
0420
0000
0000
1830
3830
3038
7018
701C
601C
E39C
E38C
E38C
E38C
E39C
E79C
7FFC
7EF8
3C70
0000
0380
0380
03E0
01E0
ENDCHAR
STARTCHAR 1FA4
ENCODING 8100
SWIDTH 510 0
DWIDTH 17 0
BBX 14 28 1 -5
BITMAP
0C20
1E70
0CE0
0CC0
19C0
1080
0000
0000
1830
3830
3038
7018
701C
601C
E39C
E38C
E38C
E38C
E39C
E79C
7FFC
7EF8
3C70
0000
0380
0380
03E0
01E0
ENDCHAR
STARTCHAR 1FA5
ENCODING 8101
SWIDTH 510 0
DWIDTH 17 0
BBX 14 28 1 -5
BITMAP
1C10
1C38
1C70
1860
0CC0
0440
0000
0000
1830
3830
3038
7018
701C
601C
E39C
E38C
E38C
E38C
E39C
E79C
7FFC
7EF8
3C70
0000
0380
0380
03E0
01E0
ENDCHAR
STARTCHAR 1FA6
ENCODING 8102
SWIDTH 510 0
DWIDTH 17 0
BBX 14 32 1 -5
BITMAP
0780
0FC0
0C60
1860
0300
0380
0380
0300
0700
0400
0000
0000
1830
3830
3038
7018
701C
601C
E39C
E38C
E38C
E38C
E39C
E79C
7FFC
7EF8
3C70
0000
0380
0380
03E0
01E0
ENDCHAR
STARTCHAR 1FA7
ENCODING 8103
SWIDTH 510 0
DWIDTH 17 0
BBX 14 32 1 -5
BITMAP
0780
0FC0
0C60
1860
0300
0380
0300
0300
0180
0080
0000
0000
1830
3830
3038
7018
701C
601C
E39C
E38C
E38C
E38C
E39C
E79C
7FFC
7EF8
3C70
0000
0380
0380
03E0
01E0
ENDCHAR
STARTCHAR 1FA8
ENCODING 8104
SWIDTH 510 0
DWIDTH 17 0
BBX 19 21 -3 0
BITMAP
600000
F1E000
73F000
67F000
CE3800
8E3800
0E19C0
0C19C0
0C19C0
0C19C0
0C19C0
0C19C0
0C19C0
0C19C0
0E19C0
0639C0
0631C0
0331C0
0F7CE0
0F7CE0
0F7C60
ENDCHAR
STARTCHAR 1FA9
ENCODING 8105
SWIDTH 510 0
DWIDTH 17 0
BBX 20 21 -4 0
BITMAP
E00000
E0F000
E1F800
C3F800
671C00
271C00
070CE0
060CE0
060CE0
060CE0
060CE0
060CE0
060CE0
060CE0
070CE0
031CE0
0318E0
0198E0
07BE70
07BE70
07BE30
ENDCHAR
STARTCHAR 1FAA
ENCODING 8106
SWIDTH 510 0
DWIDTH 17 0
BBX 26 21 -10 0
BITMAP
62000000
7703C000
7307E000
638FE000
E1DC7000
C09C7000
001C3380
00183380
00183380
00183380
00183380
00183380
00183380
00183380
001C3380
000C7380
000C6380
00066380
001EF9C0
001EF9C0
001EF8C0
ENDCHAR
STARTCHAR 1FAB
ENCODING 8107
SWIDTH 510 0
DWIDTH 17 0
BBX 26 21 -10 0
BITMAP
62000000
F703C000
6307E000
638FE000
31DC7000
109C7000
001C3380
00183380
00183380
00183380
00183380
00183380
00183380
00183380
001C3380
000C7380
000C6380
00066380
001EF9C0
001EF9C0
001EF8C0
ENDCHAR
STARTCHAR 1FAC
ENCODING 8108
SWIDTH 510 0
DWIDTH 17 0
BBX 23 21 -7 0
BITMAP
E20000
E71E00
E73F00
EE7F00
CCE380
88E380
00E19C
00C19C
00C19C
00C19C
00C19C
00C19C
00C19C
00C19C
00E19C
00639C
00631C
00331C
00F7CE
00F7CE
00F7C6
ENDCHAR
STARTCHAR 1FAD
ENCODING 8109
SWIDTH 510 0
DWIDTH 17 0
BBX 25 21 -9 0
BITMAP
60800000
F1C78000
E1CFC000
639FC000
3738E000
1238E000
00386700
00306700
00306700
00306700
00306700
00306700
00306700
00306700
00386700
0018E700
0018C700
000CC700
003DF380
003DF380
003DF180
ENDCHAR
STARTCHAR 1FAE
ENCODING 8110
SWIDTH 510 0
DWIDTH 17 0
BBX 22 24 -6 0
BITMAP
3C0000
7E0000
C60000
830000
183C00
387E00
18FE00
19C700
31C700
21C338
018338
018338
018338
018338
018338
018338
018338
01C338
00C738
00C638
006638
01EF9C
01EF9C
01EF8C
ENDCHAR
STARTCHAR 1FAF
ENCODING 8111
SWIDTH 510 0
DWIDTH 17 0
BBX 23 24 -7 0
BITMAP
3C0000
7E0000
C70000
C30000
181E00
383F00
387F00
18E380
1CE380
04E19C
00C19C
00C19C
00C19C
00C19C
00C19C
00C19C
00C19C
00E19C
00639C
00631C
00331C
00F7CE
00F7CE
00F7C6
ENDCHAR
STARTCHAR 1FB0
ENCODING 8112
SWIDTH 510 0
DWIDTH 17 0
BBX 13 22 2 0
BITMAP
30C0
18C0
1F80
0F00
0000
0000
0000
0FE0
3FF0
7FF0
F870
E070
E070
E070
C070
C070
E070
E070
F078
7FF8
3FF8
1F88
ENDCHAR
STARTCHAR 1FB1
ENCODING 8113
SWIDTH 510 0
DWIDTH 17 0
BBX 13 21 2 0
BITMAP
3FC0
3FC0
0000
0000
0000
0000
0FE0
3FF0
7FF0
F870
E070
E070
E070
C070
C070
E070
E070
F078
7FF8
3FF8
1F88
ENDCHAR
STARTCHAR 1FB2
ENCODING 8114
SWIDTH 510 0
DWIDTH 17 0
BBX 13 28 2 -5
BITMAP
0800
0E00
0F00
0780
0380
0080
0000
0000
0FE0
3FF0
7FF0
F870
E070
E070
E070
C070
C070
E070
E070
F078
7FF8
3FF8
1F88
0000
0E00
0600
0780
0380
ENDCHAR
STARTCHAR 1FB3
ENCODING 8115
SWIDTH 510 0
DWIDTH 17 0
BBX 13 20 2 -5
BITMAP
0FE0
3FF0
7FF0
F870
E070
E070
E070
C070
C070
E070
E070
F078
7FF8
3FF8
1F88
0000
0E00
0600
0780
0380
ENDCHAR
STARTCHAR 1FB4
ENCODING 8116
SWIDTH 510 0
DWIDTH 17 0
BBX 13 28 2 -5
BITMAP
0080
01C0
03C0
0700
0E00
0400
0000
0000
0FE0
3FF0
7FF0
F870
E070
E070
E070
C070
C070
E070
E070
F078
7FF8
3FF8
1F88
0000
0E00
0600
0780
0380
ENDCHAR
STARTCHAR 1FB6
ENCODING 8118
SWIDTH 510 0
DWIDTH 17 0
BBX 13 22 2 0
BITMAP
0780
0FC0
18E0
1860
0000
0000
0000
0FE0
3FF0
7FF0
F870
E070
E070
E070
C070
C070
E070
E070
F078
7FF8
3FF8
1F88
ENDCHAR
STARTCHAR 1FB7
ENCODING 8119
SWIDTH 510 0
DWIDTH 17 0
BBX 13 27 2 -5
BITMAP
0780
0FC0
18E0
1860
0000
0000
0000
0FE0
3FF0
7FF0
F870
E070
E070
E070
C070
C070
E070
E070
F078
7FF8
3FF8
1F88
0000
0E00
0600
0780
0380
ENDCHAR
STARTCHAR 1FB8
ENCODING 8120
SWIDTH 510 0
DWIDTH 17 0
BBX 16 27 0 0
BITMAP
0C30
0630
07E0
03C0
0000
0000
0000
03C0
03E0
03E0
0760
0670
0670
0E30
0C38
0C38
1C18
1C1C
181C
381C
3FFC
3FFE
7FFE
700E
7007
7007
E007
ENDCHAR
STARTCHAR 1FB9
ENCODING 8121
SWIDTH 510 0
DWIDTH 17 0
BBX 16 26 0 0
BITMAP
0FF0
0FF0
0000
0000
0000
0000
03C0
03E0
03E0
0760
0670
0670
0E30
0C38
0C38
1C18
1C1C
181C
381C
3FFC
3FFE
7FFE
700E
7007
7007
E007
ENDCHAR
STARTCHAR 1FBA
ENCODING 8122
SWIDTH 510 0
DWIDTH 17 0
BBX 18 21 -2 0
BITMAP
400000
E0F000
70F800
30F800
39D800
199C00
019C00
038C00
030E00
030E00
070600
070700
060700
0E0700
0FFF00
0FFF80
1FFF80
1C0380
1C01C0
1C01C0
3801C0
ENDCHAR
STARTCHAR 1FBB
ENCODING 8123
SWIDTH 510 0
DWIDTH 17 0
BBX 17 21 -1 0
BITMAP
100000
19E000
39F000
71F000
E3B000
433800
033800
071800
061C00
061C00
0E0C00
0E0E00
0C0E00
1C0E00
1FFE00
1FFF00
3FFF00
380700
380380
380380
700380
ENDCHAR
STARTCHAR 1FBC
ENCODING 8124
SWIDTH 510 0
DWIDTH 17 0
BBX 16 20 0 0
BITMAP
0F00
0F00
1F00
1B00
1B00
1B8E
198E
398E
318E
318E
31CE
31CE
31CE
7FCE
7FCE
7FCE
60EE
60E7
60E7
E063
ENDCHAR
STARTCHAR 1FBD
ENCODING 8125
SWIDTH 510 0
DWIDTH 17 0
BBX 3 6 7 17
BITMAP
E0
E0
E0
60
C0
80
ENDCHAR
STARTCHAR 1FBE
ENCODING 8126
SWIDTH 510 0
DWIDTH 17 0
BBX 5 4 6 -5
BITMAP
E0
E0
F8
78
ENDCHAR
STARTCHAR 1FBF
ENCODING 8127
SWIDTH 510 0
DWIDTH 17 0
BBX 3 6 7 17
BITMAP
E0
E0
E0
60
C0
80
ENDCHAR
STARTCHAR 1FC0
ENCODING 8128
SWIDTH 510 0
DWIDTH 17 0
BBX 8 4 4 18
BITMAP
3C
7E
63
C3
ENDCHAR
STARTCHAR 1FC1
ENCODING 8129
SWIDTH 510 0
DWIDTH 17 0
BBX 9 8 4 17
BITMAP
3C00
7E00
6300
C300
0000
C300
E380
C300
ENDCHAR
STARTCHAR 1FC2
ENCODING 8130
SWIDTH 510 0
DWIDTH 17 0
BBX 12 28 2 -5
BITMAP
0800
0E00
0F00
0780
0380
0080
0000
0000
7F80
FFE0
FFE0
E0F0
E070
E070
E070
E030
E030
E030
E030
E030
E030
E030
E030
0030
E030
E030
7830
3830
ENDCHAR
STARTCHAR 1FC3
ENCODING 8131
SWIDTH 510 0
DWIDTH 17 0
BBX 12 20 2 -5
BITMAP
7F80
FFE0
FFE0
E0F0
E070
E070
E070
E030
E030
E030
E030
E030
E030
E030
E030
0030
E030
E030
7830
3830
ENDCHAR
STARTCHAR 1FC4
ENCODING 8132
SWIDTH 510 0
DWIDTH 17 0
BBX 12 28 2 -5
BITMAP
0080
01C0
03C0
0700
0E00
0400
0000
0000
7F80
FFE0
FFE0
E0F0
E070
E070
E070
E030
E030
E030
E030
E030
E030
E030
E030
0030
E030
E030
7830
3830
ENDCHAR
STARTCHAR 1FC6
ENCODING 8134
SWIDTH 510 0
DWIDTH 17 0
BBX 12 27 2 -5
BITMAP
0F00
1F80
18C0
30C0
0000
0000
0000
7F80
FFE0
FFE0
E0F0
E070
E070
E070
E030
E030
E030
E030
E030
E030
E030
E030
0030
0030
0030
0030
0030
ENDCHAR
STARTCHAR 1FC7
ENCODING 8135
SWIDTH 510 0
DWIDTH 17 0
BBX 12 27 2 -5
BITMAP
0F00
1F80
18C0
30C0
0000
0000
0000
7F80
FFE0
FFE0
E0F0
E070
E070
E070
E030
E030
E030
E030
E030
E030
E030
E030
0030
E030
E030
7830
3830
ENDCHAR
STARTCHAR 1FC8
ENCODING 8136
SWIDTH 510 0
DWIDTH 17 0
BBX 19 21 -4 0
BITMAP
400000
E1FFC0
71FFC0
31FFC0
19C000
09C000
01C000
01C000
01C000
01FF80
01FF80
01FF80
01C000
01C000
01C000
01C000
01C000
01C000
01FFE0
01FFE0
01FFE0
ENDCHAR
STARTCHAR 1FC9
ENCODING 8137
SWIDTH 510 0
DWIDTH 17 0
BBX 19 21 -4 0
BITMAP
100000
19FFC0
39FFC0
71FFC0
E1C000
41C000
01C000
01C000
01C000
01FF80
01FF80
01FF80
01C000
01C000
01C000
01C000
01C000
01C000
01FFE0
01FFE0
01FFE0
ENDCHAR
STARTCHAR 1FCA
ENCODING 8138
SWIDTH 510 0
DWIDTH 17 0
BBX 20 21 -5 0
BITMAP
400000
C38070
E38070
738070
3B8070
138070
038070
038070
038070
03FFF0
03FFF0
03FFF0
038070
038070
038070
038070
038070
038070
038070
038070
038070
ENDCHAR
STARTCHAR 1FCB
ENCODING 8139
SWIDTH 510 0
DWIDTH 17 0
BBX 20 21 -5 0
BITMAP
100000
3B8070
738070
E38070
C38070
838070
038070
038070
038070
03FFF0
03FFF0
03FFF0
038070
038070
038070
038070
038070
038070
038070
038070
038070
ENDCHAR
ENDFONT
